B612-BoldItalic.sfdir
StartChar: exclam
Encoding: 257 33 257
GlifName: exclam
Width: 700
VWidth: 0
Flags: W
LayerCount: 2
Fore
SplineSet
663 1500 m 257
 477 444 l 257
 171 409 l 257
 363 1500 l 257
 663 1500 l 257
136 137 m 257
 138 167 138 167 154 195.5 c 128
 170 224 170 224 194.5 245 c 128
 219 266 219 266 249 277 c 128
 279 288 279 288 309 285 c 257
 369 278 369 278 402 238 c 128
 435 198 435 198 431 137 c 257
 429 106 429 106 413 77.5 c 128
 397 49 397 49 372.5 28 c 128
 348 7 348 7 318 -4.5 c 128
 288 -16 288 -16 258 -14 c 257
 227 -12 227 -12 203 1 c 128
 179 14 179 14 163.5 34 c 128
 148 54 148 54 141 80.5 c 128
 134 107 134 107 136 137 c 257
EndSplineSet
EndChar
StartChar: quotedbl
Encoding: 439 34 439
GlifName: quotedbl
Width: 800
VWidth: 0
Flags: W
LayerCount: 2
Fore
SplineSet
937 1500 m 257
 914 1367 l 257
 911 1349 911 1349 906 1324.5 c 128
 901 1300 901 1300 895 1273 c 128
 889 1246 889 1246 882 1218.5 c 128
 875 1191 875 1191 868 1168 c 257
 818 1013 l 257
 638 1013 l 257
 642 1168 l 257
 643 1191 643 1191 646 1218.5 c 128
 649 1246 649 1246 652.5 1273 c 128
 656 1300 656 1300 660.5 1324.5 c 128
 665 1349 665 1349 668 1367 c 257
 691 1500 l 257
 937 1500 l 257
637 1500 m 257
 614 1367 l 257
 611 1349 611 1349 606 1324.5 c 128
 601 1300 601 1300 595 1273 c 128
 589 1246 589 1246 582 1218.5 c 128
 575 1191 575 1191 568 1168 c 257
 518 1013 l 257
 338 1013 l 257
 342 1168 l 257
 343 1191 343 1191 346 1218.5 c 128
 349 1246 349 1246 352.5 1273 c 128
 356 1300 356 1300 360.5 1324.5 c 128
 365 1349 365 1349 368 1367 c 257
 391 1500 l 257
 637 1500 l 257
EndSplineSet
EndChar
StartChar: dollar
Encoding: 226 36 226
GlifName: dollar
Width: 1100
VWidth: 0
Flags: W
LayerCount: 2
Fore
SplineSet
786 430 m 257
 786 472 786 472 773.5 505.5 c 128
 761 539 761 539 740 566 c 257
 687 264 l 257
 730 290 730 290 758 331 c 128
 786 372 786 372 786 430 c 257
586 1125 m 257
 586 1086 586 1086 598.5 1058 c 128
 611 1030 611 1030 634 1007 c 257
 679 1264 l 257
 639 1247 639 1247 612.5 1214.5 c 128
 586 1182 586 1182 586 1125 c 257
1059 1178 m 257
 1019 1207 1019 1207 985.5 1226.5 c 128
 952 1246 952 1246 920 1259 c 257
 851 864 l 257
 902 832 902 832 952 795 c 128
 1002 758 1002 758 1040 708.5 c 128
 1078 659 1078 659 1098 595.5 c 128
 1118 532 1118 532 1110 448 c 257
 1101 356 1101 356 1063.5 282.5 c 128
 1026 209 1026 209 968.5 153.5 c 128
 911 98 911 98 839 60.5 c 128
 767 23 767 23 689 3 c 257
 655 -190 l 257
 365 -190 l 257
 397 -9 l 257
 293 5 293 5 204.5 38 c 128
 116 71 116 71 50 121 c 257
 228 348 l 257
 271 313 271 313 321.5 284 c 128
 372 255 372 255 440 238 c 257
 525 719 l 257
 465 752 465 752 413 787 c 128
 361 822 361 822 323.5 866 c 128
 286 910 286 910 266 966 c 128
 246 1022 246 1022 250 1097 c 257
 254 1178 254 1178 290 1246 c 128
 326 1314 326 1314 383 1366 c 128
 440 1418 440 1418 513 1453 c 128
 586 1488 586 1488 663 1505 c 257
 695 1681 l 257
 1002 1719 l 257
 962 1497 l 257
 1109 1463 1109 1463 1243 1369 c 257
 1059 1178 l 257
EndSplineSet
EndChar
StartChar: ampersand
Encoding: 111 38 111
GlifName: ampersand
Width: 1400
VWidth: 0
Flags: W
LayerCount: 2
Fore
SplineSet
1459 760 m 257
 1451 685 1451 685 1431 610 c 128
 1411 535 1411 535 1379.5 466 c 128
 1348 397 1348 397 1305.5 336.5 c 128
 1263 276 1263 276 1209 229 c 257
 1351 -19 l 257
 993 -19 l 257
 960 42 l 257
 888 10 888 10 812.5 -7 c 128
 737 -24 737 -24 652 -19 c 257
 545 -12 545 -12 450.5 25 c 128
 356 62 356 62 286.5 126.5 c 128
 217 191 217 191 180 281.5 c 128
 143 372 143 372 152 488 c 257
 158 564 158 564 191.5 630 c 128
 225 696 225 696 272.5 749.5 c 128
 320 803 320 803 374.5 843 c 128
 429 883 429 883 478 907 c 257
 453 965 453 965 446.5 1027.5 c 128
 440 1090 440 1090 444 1154 c 257
 449 1242 449 1242 487.5 1313 c 128
 526 1384 526 1384 590 1433 c 128
 654 1482 654 1482 740 1505 c 128
 826 1528 826 1528 927 1519 c 257
 1010 1512 1010 1512 1073 1489 c 128
 1136 1466 1136 1466 1182.5 1435 c 128
 1229 1404 1229 1404 1260.5 1370 c 128
 1292 1336 1292 1336 1312 1308 c 257
 1133 1098 l 257
 1113 1125 1113 1125 1083 1158 c 128
 1053 1191 1053 1191 1019.5 1220.5 c 128
 986 1250 986 1250 951.5 1270 c 128
 917 1290 917 1290 887 1290 c 257
 847 1290 847 1290 817 1274.5 c 128
 787 1259 787 1259 769 1233 c 128
 751 1207 751 1207 745.5 1173.5 c 128
 740 1140 740 1140 750 1104 c 257
 754 1090 754 1090 758.5 1074.5 c 128
 763 1059 763 1059 773.5 1034 c 128
 784 1009 784 1009 803.5 970 c 128
 823 931 823 931 856.5 869 c 128
 890 807 890 807 939.5 718.5 c 128
 989 630 989 630 1061 507 c 257
 1090 551 1090 551 1107 608 c 128
 1124 665 1124 665 1126 725 c 257
 1459 760 l 257
697 217 m 257
 732 217 732 217 766 224 c 128
 800 231 800 231 839 251 c 257
 589 691 l 257
 522 653 522 653 489.5 598 c 128
 457 543 457 543 455 489 c 257
 453 426 453 426 469.5 379 c 128
 486 332 486 332 518 298.5 c 128
 550 265 550 265 595.5 245 c 128
 641 225 641 225 697 217 c 257
EndSplineSet
EndChar
StartChar: parenleft
Encoding: 402 40 402
GlifName: parenleft
Width: 900
VWidth: 0
Flags: W
LayerCount: 2
Fore
SplineSet
361 1158 m 257
 374 1228 374 1228 388 1290 c 128
 402 1352 402 1352 422 1403 c 128
 442 1454 442 1454 470.5 1493.5 c 128
 499 1533 499 1533 539.5 1558.5 c 128
 580 1584 580 1584 635.5 1595 c 128
 691 1606 691 1606 766 1600 c 257
 791 1598 791 1598 814 1594.5 c 128
 837 1591 837 1591 861 1584.5 c 128
 885 1578 885 1578 911 1568.5 c 128
 937 1559 937 1559 968 1545 c 257
 858 1431 l 257
 836 1435 836 1435 810 1434.5 c 128
 784 1434 784 1434 759 1414.5 c 128
 734 1395 734 1395 713.5 1351.5 c 128
 693 1308 693 1308 681 1227 c 257
 456 -46 l 257
 444 -104 444 -104 450 -140.5 c 128
 456 -177 456 -177 472 -199 c 128
 488 -221 488 -221 510.5 -231 c 128
 533 -241 533 -241 554 -245 c 257
 631 -365 l 257
 608 -378 608 -378 580 -389 c 128
 552 -400 552 -400 522 -407.5 c 128
 492 -415 492 -415 463 -418.5 c 128
 434 -422 434 -422 409 -420 c 257
 338 -415 338 -415 289.5 -392.5 c 128
 241 -370 241 -370 210.5 -335.5 c 128
 180 -301 180 -301 165.5 -256.5 c 128
 151 -212 151 -212 147.5 -162.5 c 128
 144 -113 144 -113 149 -61.5 c 128
 154 -10 154 -10 163 38 c 257
 361 1158 l 257
EndSplineSet
EndChar
StartChar: parenright
Encoding: 405 41 405
GlifName: parenright
Width: 900
VWidth: 0
Flags: W
LayerCount: 2
Fore
SplineSet
736 38 m 257
 723 -37 723 -37 710 -100.5 c 128
 697 -164 697 -164 678.5 -215 c 128
 660 -266 660 -266 633 -305 c 128
 606 -344 606 -344 565.5 -370 c 128
 525 -396 525 -396 467 -409 c 128
 409 -422 409 -422 328 -420 c 257
 303 -420 303 -420 275.5 -416 c 128
 248 -412 248 -412 221 -405 c 128
 194 -398 194 -398 169 -388 c 128
 144 -378 144 -378 126 -365 c 257
 245 -245 l 257
 266 -244 266 -244 289.5 -243.5 c 128
 313 -243 313 -243 335.5 -227 c 128
 358 -211 358 -211 378 -170 c 128
 398 -129 398 -129 413 -46 c 257
 638 1227 l 257
 650 1292 650 1292 641.5 1331 c 128
 633 1370 633 1370 614.5 1391.5 c 128
 596 1413 596 1413 573 1420.5 c 128
 550 1428 550 1428 533 1431 c 257
 463 1545 l 257
 486 1558 486 1558 514 1568.5 c 128
 542 1579 542 1579 572 1586 c 128
 602 1593 602 1593 631 1596.5 c 128
 660 1600 660 1600 685 1600 c 257
 760 1600 760 1600 809.5 1580.5 c 128
 859 1561 859 1561 889.5 1527.5 c 128
 920 1494 920 1494 934 1450 c 128
 948 1406 948 1406 950.5 1356.5 c 128
 953 1307 953 1307 947.5 1256 c 128
 942 1205 942 1205 934 1158 c 257
 736 38 l 257
EndSplineSet
EndChar
StartChar: asterisk
Encoding: 137 42 137
GlifName: asterisk
Width: 1100
VWidth: 0
Flags: W
LayerCount: 2
Fore
SplineSet
904 926 m 257
 974 805 l 257
 780 654 l 257
 694 800 l 257
 672 990 l 257
 589 800 l 257
 462 656 l 257
 285 781 l 257
 437 950 l 257
 614 1041 l 257
 404 1041 l 257
 262 1090 l 257
 344 1309 l 257
 520 1259 l 257
 655 1120 l 257
 622 1315 l 257
 645 1446 l 257
 879 1470 l 257
 850 1309 l 257
 739 1117 l 257
 909 1247 l 257
 1062 1294 l 257
 1118 1083 l 257
 972 1037 l 257
 749 1037 l 257
 904 926 l 257
EndSplineSet
EndChar
StartChar: plus
Encoding: 425 43 425
GlifName: plus
Width: 1200
VWidth: 0
Flags: W
LayerCount: 2
Fore
SplineSet
207 700 m 257
 567 700 l 257
 643 1130 l 257
 853 1130 l 257
 777 700 l 257
 1137 700 l 257
 1102 500 l 257
 742 500 l 257
 671 100 l 257
 461 100 l 257
 532 500 l 257
 172 500 l 257
 207 700 l 257
EndSplineSet
EndChar
StartChar: hyphen
Encoding: 309 45 309
GlifName: hyphen
Width: 900
VWidth: 0
Flags: W
LayerCount: 2
Fore
SplineSet
234 624 m 257
 861 624 l 257
 821 400 l 257
 194 400 l 257
 234 624 l 257
EndSplineSet
EndChar
StartChar: five
Encoding: 270 53 270
GlifName: five
Width: 1300
VWidth: 0
Flags: W
LayerCount: 2
Fore
SplineSet
675 1046 m 257
 700 1052 700 1052 729 1055.5 c 128
 758 1059 758 1059 793 1059 c 257
 891 1059 891 1059 971.5 1028 c 128
 1052 997 1052 997 1106.5 940 c 128
 1161 883 1161 883 1186.5 803 c 128
 1212 723 1212 723 1200 626 c 257
 1187 524 1187 524 1138 438 c 128
 1089 352 1089 352 1012.5 282.5 c 128
 936 213 936 213 836 160 c 128
 736 107 736 107 623 71.5 c 128
 510 36 510 36 387 18 c 128
 264 0 264 0 142 0 c 257
 181 226 l 257
 257 227 257 227 337.5 240 c 128
 418 253 418 253 494.5 276 c 128
 571 299 571 299 639.5 331.5 c 128
 708 364 708 364 760 405.5 c 128
 812 447 812 447 843.5 497.5 c 128
 875 548 875 548 879 606 c 257
 882 649 882 649 874 686 c 128
 866 723 866 723 847 751.5 c 128
 828 780 828 780 797.5 798 c 128
 767 816 767 816 725 822 c 257
 687 827 687 827 657 823.5 c 128
 627 820 627 820 601 810.5 c 128
 575 801 575 801 551 787.5 c 128
 527 774 527 774 500 759 c 257
 288 759 l 257
 419 1500 l 257
 1272 1500 l 257
 1237 1300 l 257
 720 1300 l 257
 675 1046 l 257
EndSplineSet
EndChar
StartChar: six
Encoding: 481 54 481
GlifName: six
Width: 1300
VWidth: 0
Flags: W
LayerCount: 2
Fore
SplineSet
1218 1280 m 257
 1207 1287 1207 1287 1193 1291 c 128
 1179 1295 1179 1295 1165 1296.5 c 128
 1151 1298 1151 1298 1137 1298.5 c 128
 1123 1299 1123 1299 1111 1300 c 257
 1055 1304 1055 1304 998 1289.5 c 128
 941 1275 941 1275 886.5 1244.5 c 128
 832 1214 832 1214 781.5 1168.5 c 128
 731 1123 731 1123 688.5 1066.5 c 128
 646 1010 646 1010 613.5 942.5 c 128
 581 875 581 875 562 800 c 257
 752 945 l 257
 780 950 780 950 806 952 c 128
 832 954 832 954 855 956 c 257
 943 962 943 962 1021.5 938.5 c 128
 1100 915 1100 915 1158 861.5 c 128
 1216 808 1216 808 1246.5 724 c 128
 1277 640 1277 640 1268 525 c 257
 1259 414 1259 414 1205.5 313 c 128
 1152 212 1152 212 1066 136.5 c 128
 980 61 980 61 869 18.5 c 128
 758 -24 758 -24 634 -17 c 257
 526 -11 526 -11 451 23 c 128
 376 57 376 57 326.5 109.5 c 128
 277 162 277 162 249.5 228.5 c 128
 222 295 222 295 210.5 364.5 c 128
 199 434 199 434 200 502 c 128
 201 570 201 570 207 627 c 257
 220 746 220 746 262.5 860.5 c 128
 305 975 305 975 371 1076 c 128
 437 1177 437 1177 524 1261.5 c 128
 611 1346 611 1346 712 1405.5 c 128
 813 1465 813 1465 926 1494.5 c 128
 1039 1524 1039 1524 1158 1517 c 257
 1176 1515 1176 1515 1209 1513.5 c 128
 1242 1512 1242 1512 1291 1498 c 257
 1218 1280 l 257
806 756 m 257
 770 761 770 761 732 751.5 c 128
 694 742 694 742 657.5 721 c 128
 621 700 621 700 587 669 c 128
 553 638 553 638 526 601 c 257
 521 575 521 575 517.5 553.5 c 128
 514 532 514 532 512 512.5 c 128
 510 493 510 493 510 474 c 128
 510 455 510 455 514 434 c 257
 521 396 521 396 533.5 356 c 128
 546 316 546 316 565.5 283 c 128
 585 250 585 250 612 227 c 128
 639 204 639 204 675 200 c 257
 730 194 730 194 777.5 221.5 c 128
 825 249 825 249 860 296 c 128
 895 343 895 343 916.5 401.5 c 128
 938 460 938 460 942 516 c 257
 949 619 949 619 912.5 682 c 128
 876 745 876 745 806 756 c 257
EndSplineSet
EndChar
StartChar: nine
Encoding: 361 57 361
GlifName: nine
Width: 1300
VWidth: 0
Flags: W
LayerCount: 2
Fore
SplineSet
322 199 m 257
 441 199 441 199 549 240 c 128
 657 281 657 281 742.5 350 c 128
 828 419 828 419 884 510 c 128
 940 601 940 601 955 700 c 257
 750 548 l 257
 734 546 734 546 717 544.5 c 128
 700 543 700 543 683 544 c 257
 585 547 585 547 504 580.5 c 128
 423 614 423 614 367 674.5 c 128
 311 735 311 735 282.5 821.5 c 128
 254 908 254 908 261 1017 c 257
 268 1129 268 1129 319.5 1224.5 c 128
 371 1320 371 1320 454 1388 c 128
 537 1456 537 1456 645.5 1491 c 128
 754 1526 754 1526 877 1517 c 257
 982 1509 982 1509 1056.5 1474.5 c 128
 1131 1440 1131 1440 1180.5 1387.5 c 128
 1230 1335 1230 1335 1258 1269 c 128
 1286 1203 1286 1203 1298 1134 c 128
 1310 1065 1310 1065 1310 997.5 c 128
 1310 930 1310 930 1304 873 c 257
 1291 755 1291 755 1252 645.5 c 128
 1213 536 1213 536 1151 439.5 c 128
 1089 343 1089 343 1004.5 262.5 c 128
 920 182 920 182 816 122 c 128
 712 62 712 62 589 26 c 128
 466 -10 466 -10 327 -17 c 257
 322 199 l 257
731 761 m 257
 767 755 767 755 807 768 c 128
 847 781 847 781 883.5 807.5 c 128
 920 834 920 834 951 870 c 128
 982 906 982 906 1002 945 c 257
 1015 1009 1015 1009 1008.5 1071 c 128
 1002 1133 1002 1133 981 1182 c 128
 960 1231 960 1231 925 1263 c 128
 890 1295 890 1295 846 1300 c 257
 795 1306 795 1306 747 1285.5 c 128
 699 1265 699 1265 662 1227.5 c 128
 625 1190 625 1190 602.5 1139.5 c 128
 580 1089 580 1089 581 1034 c 257
 582 981 582 981 589 934.5 c 128
 596 888 596 888 612.5 852 c 128
 629 816 629 816 658 792 c 128
 687 768 687 768 731 761 c 257
EndSplineSet
EndChar
StartChar: colon
Encoding: 202 58 202
GlifName: colon
Width: 500
VWidth: 0
Flags: W
LayerCount: 2
Fore
SplineSet
95 171 m 257
 98 209 98 209 118 244.5 c 128
 138 280 138 280 168.5 306 c 128
 199 332 199 332 236.5 346 c 128
 274 360 274 360 311 356 c 257
 387 348 387 348 428 298 c 128
 469 248 469 248 464 171 c 257
 462 132 462 132 442 97 c 128
 422 62 422 62 391.5 35.5 c 128
 361 9 361 9 323 -5.5 c 128
 285 -20 285 -20 248 -17 c 257
 209 -14 209 -14 179 1.5 c 128
 149 17 149 17 129.5 42.5 c 128
 110 68 110 68 101 101 c 128
 92 134 92 134 95 171 c 257
190 714 m 257
 193 752 193 752 213 787.5 c 128
 233 823 233 823 263.5 849 c 128
 294 875 294 875 331.5 889 c 128
 369 903 369 903 406 899 c 257
 482 891 482 891 523 841 c 128
 564 791 564 791 559 714 c 257
 557 675 557 675 537 640 c 128
 517 605 517 605 486.5 578.5 c 128
 456 552 456 552 418 537.5 c 128
 380 523 380 523 343 526 c 257
 304 529 304 529 274 544.5 c 128
 244 560 244 560 224.5 585.5 c 128
 205 611 205 611 196 644 c 128
 187 677 187 677 190 714 c 257
EndSplineSet
EndChar
StartChar: semicolon
Encoding: 469 59 469
GlifName: semicolon
Width: 500
VWidth: 0
Flags: W
LayerCount: 2
Fore
SplineSet
190 714 m 257
 193 752 193 752 213 787.5 c 128
 233 823 233 823 263.5 849 c 128
 294 875 294 875 331.5 889 c 128
 369 903 369 903 406 899 c 257
 482 891 482 891 523 841 c 128
 564 791 564 791 559 714 c 257
 557 675 557 675 537 640 c 128
 517 605 517 605 486.5 578.5 c 128
 456 552 456 552 418 537.5 c 128
 380 523 380 523 343 526 c 257
 304 529 304 529 274 544.5 c 128
 244 560 244 560 224.5 585.5 c 128
 205 611 205 611 196 644 c 128
 187 677 187 677 190 714 c 257
84 169 m 257
 85 208 85 208 103.5 244.5 c 128
 122 281 122 281 153 307.5 c 128
 184 334 184 334 224.5 348 c 128
 265 362 265 362 311 356 c 257
 355 351 355 351 385.5 332.5 c 128
 416 314 416 314 435 286 c 128
 454 258 454 258 462 222.5 c 128
 470 187 470 187 469 148 c 257
 467 98 467 98 442 34.5 c 128
 417 -29 417 -29 376 -92.5 c 128
 335 -156 335 -156 281.5 -212.5 c 128
 228 -269 228 -269 168 -303 c 257
 26 -238 l 257
 92 -180 92 -180 122 -123.5 c 128
 152 -67 152 -67 164 0 c 257
 128 26 128 26 105 64.5 c 128
 82 103 82 103 84 169 c 257
EndSplineSet
EndChar
StartChar: less
Encoding: 335 60 335
GlifName: less
Width: 1300
VWidth: 0
Flags: W
LayerCount: 2
Fore
SplineSet
1362 1277 m 257
 1314 1009 l 257
 585 654 l 257
 1190 302 l 257
 1142 34 l 257
 226 545 l 257
 265 770 l 257
 1362 1277 l 257
EndSplineSet
EndChar
StartChar: equal
Encoding: 249 61 249
GlifName: equal
Width: 1000
VWidth: 0
Flags: W
LayerCount: 2
Fore
SplineSet
240 800 m 257
 1040 800 l 257
 1001 581 l 257
 201 581 l 257
 240 800 l 257
169 400 m 257
 969 400 l 257
 930 181 l 257
 130 181 l 257
 169 400 l 257
EndSplineSet
EndChar
StartChar: greater
Encoding: 294 62 294
GlifName: greater
Width: 1300
VWidth: 0
Flags: W
LayerCount: 2
Fore
SplineSet
1271 770 m 257
 1232 545 l 257
 134 34 l 257
 182 302 l 257
 911 654 l 257
 306 1009 l 257
 354 1278 l 257
 1271 770 l 257
EndSplineSet
EndChar
StartChar: at
Encoding: 140 64 140
GlifName: at
Width: 2000
VWidth: 0
Flags: W
LayerCount: 2
Fore
SplineSet
1251 885 m 257
 1231 888 1231 888 1214 890 c 128
 1197 892 1197 892 1190 893 c 257
 1113 896 1113 896 1057.5 867 c 128
 1002 838 1002 838 964.5 786.5 c 128
 927 735 927 735 905.5 666 c 128
 884 597 884 597 874 519 c 257
 866 458 866 458 867.5 404.5 c 128
 869 351 869 351 879 309.5 c 128
 889 268 889 268 907 241.5 c 128
 925 215 925 215 952 209 c 257
 985 201 985 201 1016 209 c 128
 1047 217 1047 217 1073.5 234.5 c 128
 1100 252 1100 252 1121 277 c 128
 1142 302 1142 302 1156 329 c 257
 1251 885 l 257
1463 301 m 257
 1459 274 1459 274 1454 250.5 c 128
 1449 227 1449 227 1448 208 c 128
 1447 189 1447 189 1454 176.5 c 128
 1461 164 1461 164 1481 159 c 257
 1495 156 1495 156 1517 181.5 c 128
 1539 207 1539 207 1562.5 255.5 c 128
 1586 304 1586 304 1608.5 372.5 c 128
 1631 441 1631 441 1647.5 523.5 c 128
 1664 606 1664 606 1671.5 698.5 c 128
 1679 791 1679 791 1672 888 c 257
 1663 1012 1663 1012 1624.5 1090 c 128
 1586 1168 1586 1168 1527.5 1213 c 128
 1469 1258 1469 1258 1396 1276.5 c 128
 1323 1295 1323 1295 1246 1300 c 257
 1137 1307 1137 1307 1043.5 1282 c 128
 950 1257 950 1257 872 1207.5 c 128
 794 1158 794 1158 732 1086 c 128
 670 1014 670 1014 625 927.5 c 128
 580 841 580 841 552.5 742 c 128
 525 643 525 643 516 539 c 257
 502 377 502 377 514.5 250 c 128
 527 123 527 123 576.5 31 c 128
 626 -61 626 -61 718.5 -116 c 128
 811 -171 811 -171 957 -189 c 257
 1007 -195 1007 -195 1053.5 -190 c 128
 1100 -185 1100 -185 1140.5 -174 c 128
 1181 -163 1181 -163 1213.5 -148.5 c 128
 1246 -134 1246 -134 1268 -120 c 257
 1337 -321 l 257
 1289 -344 1289 -344 1240.5 -363.5 c 128
 1192 -383 1192 -383 1142 -396 c 128
 1092 -409 1092 -409 1039 -415.5 c 128
 986 -422 986 -422 930 -420 c 257
 545 -405 545 -405 365.5 -168 c 128
 186 69 186 69 221 527 c 257
 231 661 231 661 271 789 c 128
 311 917 311 917 377.5 1030.5 c 128
 444 1144 444 1144 535 1237.5 c 128
 626 1331 626 1331 739 1396.5 c 128
 852 1462 852 1462 984.5 1494.5 c 128
 1117 1527 1117 1527 1266 1517 c 257
 1416 1507 1416 1507 1533 1455.5 c 128
 1650 1404 1650 1404 1733.5 1320.5 c 128
 1817 1237 1817 1237 1866.5 1124.5 c 128
 1916 1012 1916 1012 1932 880 c 128
 1948 748 1948 748 1929.5 600.5 c 128
 1911 453 1911 453 1858 299 c 257
 1831 219 1831 219 1786.5 160 c 128
 1742 101 1742 101 1687.5 61.5 c 128
 1633 22 1633 22 1571.5 2.5 c 128
 1510 -17 1510 -17 1447 -17 c 257
 1406 -17 1406 -17 1363.5 -9 c 128
 1321 -1 1321 -1 1282 19 c 128
 1243 39 1243 39 1211.5 74 c 128
 1180 109 1180 109 1162 162 c 257
 1020 -19 l 257
 1009 -21 1009 -21 991 -25.5 c 128
 973 -30 973 -30 936 -25 c 257
 823 -10 823 -10 758.5 41 c 128
 694 92 694 92 663 167.5 c 128
 632 243 632 243 626.5 336.5 c 128
 621 430 621 430 626 530 c 257
 630 603 630 603 646.5 674.5 c 128
 663 746 663 746 695 811.5 c 128
 727 877 727 877 774.5 933 c 128
 822 989 822 989 887 1029.5 c 128
 952 1070 952 1070 1036 1093.5 c 128
 1120 1117 1120 1117 1224 1117 c 257
 1285 1116 1285 1116 1347 1108 c 257
 1401 1101 1401 1101 1464 1086 c 128
 1527 1071 1527 1071 1585 1043 c 257
 1463 301 l 257
EndSplineSet
EndChar
StartChar: A
Encoding: 1 65 1
GlifName: A_
Width: 1300
VWidth: 0
Flags: W
LayerCount: 2
Fore
SplineSet
20 0 m 257
 644 1284 l 257
 716 1494 l 257
 1071 1525 l 257
 1282 0 l 257
 955 0 l 257
 914 427 l 257
 522 427 l 257
 334 0 l 257
 20 0 l 257
882 1361 m 257
 764 990 l 257
 619 646 l 257
 893 646 l 257
 869 990 l 257
 882 1361 l 257
EndSplineSet
EndChar
StartChar: D
Encoding: 15 68 15
GlifName: D_
Width: 1300
VWidth: 0
Flags: W
LayerCount: 2
Fore
SplineSet
375 1493 m 257
 424 1498 424 1498 477.5 1501 c 128
 531 1504 531 1504 582 1506 c 128
 633 1508 633 1508 678.5 1509 c 128
 724 1510 724 1510 757 1510 c 257
 910 1510 910 1510 1038 1471.5 c 128
 1166 1433 1166 1433 1253.5 1348.5 c 128
 1341 1264 1341 1264 1380.5 1130.5 c 128
 1420 997 1420 997 1397 807 c 257
 1379 659 1379 659 1335.5 541.5 c 128
 1292 424 1292 424 1227.5 334.5 c 128
 1163 245 1163 245 1080.5 181.5 c 128
 998 118 998 118 902.5 77.5 c 128
 807 37 807 37 700.5 18.5 c 128
 594 0 594 0 483 0 c 257
 146 0 l 257
 368 1262 l 257
 375 1493 l 257
680 1127 m 257
 522 230 l 257
 624 232 624 232 701 256.5 c 128
 778 281 778 281 833.5 322 c 128
 889 363 889 363 927 417 c 128
 965 471 965 471 990.5 531 c 128
 1016 591 1016 591 1031 654.5 c 128
 1046 718 1046 718 1056 778 c 257
 1075 892 1075 892 1069.5 986 c 128
 1064 1080 1064 1080 1024.5 1147.5 c 128
 985 1215 985 1215 908.5 1252 c 128
 832 1289 832 1289 710 1289 c 257
 705 1289 705 1289 699.5 1289 c 128
 694 1289 694 1289 688 1288 c 257
 680 1127 l 257
EndSplineSet
EndChar
StartChar: F
Encoding: 28 70 28
GlifName: F_
Width: 1100
VWidth: 0
Flags: W
LayerCount: 2
Fore
SplineSet
470 0 m 257
 134 0 l 257
 356 1263 l 257
 363 1500 l 257
 1350 1500 l 257
 1283 1272 l 257
 679 1272 l 257
 669 1134 l 257
 631 916 l 257
 1144 916 l 257
 1106 703 l 257
 593 703 l 257
 470 0 l 257
EndSplineSet
EndChar
StartChar: H
Encoding: 33 72 33
GlifName: H_
Width: 1400
VWidth: 0
Flags: W
LayerCount: 2
Fore
SplineSet
904 0 m 257
 1025 688 l 257
 579 688 l 257
 458 0 l 257
 126 0 l 257
 348 1263 l 257
 358 1494 l 257
 727 1526 l 257
 619 916 l 257
 1065 916 l 257
 1167 1496 l 257
 1504 1527 l 257
 1235 0 l 257
 904 0 l 257
EndSplineSet
EndChar
StartChar: K
Encoding: 42 75 42
GlifName: K_
Width: 1200
VWidth: 0
Flags: W
LayerCount: 2
Fore
SplineSet
136 0 m 257
 358 1263 l 257
 366 1494 l 257
 740 1525 l 257
 654 1035 l 257
 1127 1500 l 257
 1495 1500 l 257
 890 900 l 257
 603 802 l 257
 848 716 l 257
 1252 0 l 257
 872 0 l 257
 567 540 l 257
 472 0 l 257
 136 0 l 257
EndSplineSet
EndChar
StartChar: L
Encoding: 44 76 44
GlifName: L_
Width: 1100
VWidth: 0
Flags: W
LayerCount: 2
Fore
SplineSet
503 228 m 257
 1122 228 l 257
 1055 0 l 257
 112 0 l 257
 175 232 l 257
 357 1263 l 257
 364 1494 l 257
 739 1525 l 257
 534 360 l 257
 503 228 l 257
EndSplineSet
EndChar
StartChar: P
Encoding: 65 80 65
GlifName: P_
Width: 1200
VWidth: 0
Flags: W
LayerCount: 2
Fore
SplineSet
470 0 m 257
 134 0 l 257
 356 1262 l 257
 356 1478 l 257
 402 1485 402 1485 457 1491.5 c 128
 512 1498 512 1498 567 1502 c 128
 622 1506 622 1506 672.5 1508.5 c 128
 723 1511 723 1511 762 1511 c 257
 835 1511 835 1511 906.5 1502 c 128
 978 1493 978 1493 1042 1473 c 128
 1106 1453 1106 1453 1159.5 1420 c 128
 1213 1387 1213 1387 1250.5 1340 c 128
 1288 1293 1288 1293 1306 1230 c 128
 1324 1167 1324 1167 1317 1086 c 257
 1305 948 1305 948 1245 855 c 128
 1185 762 1185 762 1087 704.5 c 128
 989 647 989 647 858 621.5 c 128
 727 596 727 596 574 593 c 257
 470 0 l 257
669 1130 m 257
 611 804 l 257
 693 806 693 806 759.5 822 c 128
 826 838 826 838 874 870.5 c 128
 922 903 922 903 950 954.5 c 128
 978 1006 978 1006 983 1078 c 257
 987 1139 987 1139 967.5 1182.5 c 128
 948 1226 948 1226 915.5 1253 c 128
 883 1280 883 1280 844 1292.5 c 128
 805 1305 805 1305 769 1305 c 257
 752 1305 752 1305 729 1304 c 128
 706 1303 706 1303 683 1300 c 257
 669 1130 l 257
EndSplineSet
EndChar
StartChar: V
Encoding: 92 86 92
GlifName: V_
Width: 1300
VWidth: 0
Flags: W
LayerCount: 2
Fore
SplineSet
1545 1500 m 257
 906 204 l 257
 837 -25 l 257
 472 5 l 257
 258 1492 l 257
 576 1526 l 257
 683 700 l 257
 699 260 l 257
 846 700 l 257
 1235 1500 l 257
 1545 1500 l 257
EndSplineSet
EndChar
StartChar: W
Encoding: 93 87 93
GlifName: W_
Width: 1900
VWidth: 0
Flags: W
LayerCount: 2
Fore
SplineSet
1066 500 m 257
 1104 970 l 257
 940 500 l 257
 730 0 l 257
 398 0 l 257
 290 1492 l 257
 613 1526 l 257
 661 860 l 257
 657 379 l 257
 661 379 l 257
 788 865 l 257
 1058 1500 l 257
 1322 1500 l 257
 1368 864 l 257
 1363 369 l 257
 1367 369 l 257
 1494 862 l 257
 1766 1500 l 257
 2075 1500 l 257
 1438 0 l 257
 1103 0 l 257
 1066 500 l 257
EndSplineSet
EndChar
StartChar: Y
Encoding: 96 89 96
GlifName: Y_
Width: 1200
VWidth: 0
Flags: W
LayerCount: 2
Fore
SplineSet
711 1143 m 257
 753 773 l 257
 876 1143 l 257
 1121 1500 l 257
 1451 1500 l 257
 868 650 l 257
 754 0 l 257
 418 0 l 257
 532 650 l 257
 252 1492 l 257
 586 1525 l 257
 711 1143 l 257
EndSplineSet
EndChar
StartChar: Z
Encoding: 99 90 99
GlifName: Z_
Width: 1200
VWidth: 0
Flags: W
LayerCount: 2
Fore
SplineSet
1160 228 m 257
 1147 0 l 257
 39 0 l 257
 20 86 l 257
 840 1187 l 257
 1039 1310 l 257
 822 1272 l 257
 319 1272 l 257
 332 1500 l 257
 1350 1500 l 257
 1381 1441 l 257
 549 314 l 257
 332 190 l 257
 553 228 l 257
 1160 228 l 257
EndSplineSet
EndChar
StartChar: bracketright
Encoding: 171 93 171
GlifName: bracketright
Width: 1000
VWidth: 0
Flags: W
LayerCount: 2
Fore
SplineSet
697 -167 m 257
 682 -399 l 257
 -4 -399 l 257
 34 -180 l 257
 383 -180 l 257
 394 -32 l 257
 603 1153 l 257
 644 1301 l 257
 295 1301 l 257
 333 1519 l 257
 1020 1519 l 257
 953 1287 l 257
 697 -167 l 257
EndSplineSet
EndChar
StartChar: underscore
Encoding: 548 95 548
GlifName: underscore
Width: 1100
VWidth: 0
Flags: W
LayerCount: 2
Fore
SplineSet
-35 -200 m 257
 1064 -200 l 257
 1019 -455 l 257
 -80 -455 l 257
 -35 -200 l 257
EndSplineSet
EndChar
StartChar: d
Encoding: 214 100 214
GlifName: d
Width: 1200
VWidth: 0
Flags: W
LayerCount: 2
Fore
SplineSet
904 900 m 257
 835 900 l 257
 761 900 761 900 703.5 868 c 128
 646 836 646 836 605.5 782.5 c 128
 565 729 565 729 540.5 659.5 c 128
 516 590 516 590 509 515 c 257
 494 366 494 366 519 288.5 c 128
 544 211 544 211 614 200 c 257
 650 195 650 195 679 203 c 128
 708 211 708 211 731 228 c 128
 754 245 754 245 771.5 268 c 128
 789 291 789 291 801 316 c 257
 904 900 l 257
746 0 m 257
 774 162 l 257
 619 -10 l 257
 611 -12 611 -12 603.5 -13.5 c 128
 596 -15 596 -15 586.5 -16.5 c 128
 577 -18 577 -18 563.5 -18.5 c 128
 550 -19 550 -19 529 -17 c 257
 439 -11 439 -11 370.5 29.5 c 128
 302 70 302 70 258.5 140 c 128
 215 210 215 210 199.5 308 c 128
 184 406 184 406 200 528 c 257
 215 645 215 645 266 749 c 128
 317 853 317 853 401.5 931 c 128
 486 1009 486 1009 603 1054.5 c 128
 720 1100 720 1100 869 1100 c 257
 939 1100 l 257
 1033 1632 l 257
 1341 1600 l 257
 1095 209 l 257
 1081 0 l 257
 746 0 l 257
EndSplineSet
EndChar
StartChar: f
Encoding: 261 102 261
GlifName: f
Width: 800
VWidth: 0
Flags: W
LayerCount: 2
Fore
SplineSet
319 876 m 257
 179 876 l 257
 218 1100 l 257
 358 1100 l 257
 383 1242 l 257
 402 1339 402 1339 435.5 1412 c 128
 469 1485 469 1485 521 1533 c 128
 573 1581 573 1581 646 1602 c 128
 719 1623 719 1623 817 1617 c 257
 869 1614 869 1614 914.5 1601.5 c 128
 960 1589 960 1589 997 1572.5 c 128
 1034 1556 1034 1556 1063.5 1537 c 128
 1093 1518 1093 1518 1114 1501 c 257
 950 1341 l 257
 921 1361 921 1361 887 1374.5 c 128
 853 1388 853 1388 809 1393 c 257
 783 1396 783 1396 762 1389.5 c 128
 741 1383 741 1383 725.5 1364 c 128
 710 1345 710 1345 698.5 1313 c 128
 687 1281 687 1281 679 1233 c 257
 655 1100 l 257
 939 1100 l 257
 873 876 l 257
 630 876 l 257
 476 0 l 257
 456 -112 456 -112 428 -195.5 c 128
 400 -279 400 -279 352.5 -333 c 128
 305 -387 305 -387 231.5 -411 c 128
 158 -435 158 -435 46 -428 c 257
 9 -426 9 -426 -23 -419.5 c 128
 -55 -413 -55 -413 -80.5 -405.5 c 128
 -106 -398 -106 -398 -124 -390 c 128
 -142 -382 -142 -382 -152 -376 c 257
 -62 -179 l 257
 -61 -179 -61 -179 -60.5 -179.5 c 128
 -60 -180 -60 -180 -59 -180 c 257
 -40 -188 -40 -188 -16.5 -196 c 128
 7 -204 7 -204 33 -202 c 257
 61 -199 61 -199 82 -184 c 128
 103 -169 103 -169 118 -142.5 c 128
 133 -116 133 -116 144 -80 c 128
 155 -44 155 -44 165 0 c 257
 319 876 l 257
EndSplineSet
EndChar
StartChar: g
Encoding: 289 103 289
GlifName: g
Width: 1200
VWidth: 0
Flags: W
LayerCount: 2
Fore
SplineSet
745 16 m 257
 710 2 710 2 660.5 -9.5 c 128
 611 -21 611 -21 553 -17 c 257
 452 -11 452 -11 379 34 c 128
 306 79 306 79 260.5 153 c 128
 215 227 215 227 197.5 327.5 c 128
 180 428 180 428 191 545 c 257
 202 663 202 663 245.5 767 c 128
 289 871 289 871 365 948.5 c 128
 441 1026 441 1026 548.5 1071.5 c 128
 656 1117 656 1117 795 1117 c 257
 813 1117 813 1117 825 1116.5 c 128
 837 1116 837 1116 847 1114 c 257
 910 958 l 257
 940 1126 l 257
 1245 1093 l 257
 1045 -41 l 257
 1025 -153 1025 -153 974.5 -244.5 c 128
 924 -336 924 -336 847.5 -399 c 128
 771 -462 771 -462 670 -493.5 c 128
 569 -525 569 -525 447 -517 c 257
 381 -513 381 -513 328 -499.5 c 128
 275 -486 275 -486 232 -465 c 128
 189 -444 189 -444 155.5 -417 c 128
 122 -390 122 -390 96 -359 c 257
 270 -192 l 257
 283 -206 283 -206 306 -222.5 c 128
 329 -239 329 -239 358 -254 c 128
 387 -269 387 -269 420.5 -280 c 128
 454 -291 454 -291 488 -293 c 257
 530 -296 530 -296 571.5 -279 c 128
 613 -262 613 -262 647.5 -227.5 c 128
 682 -193 682 -193 706.5 -142.5 c 128
 731 -92 731 -92 738 -27 c 257
 745 16 l 257
886 820 m 257
 863 852 863 852 830 876 c 128
 797 900 797 900 752 900 c 257
 686 900 686 900 641.5 868 c 128
 597 836 597 836 568 784.5 c 128
 539 733 539 733 523.5 667 c 128
 508 601 508 601 501 534 c 257
 486 386 486 386 510.5 298.5 c 128
 535 211 535 211 606 200 c 257
 665 191 665 191 709.5 216.5 c 128
 754 242 754 242 792 287 c 257
 886 820 l 257
EndSplineSet
EndChar
StartChar: j
Encoding: 325 106 325
GlifName: j
Width: 600
VWidth: 0
Flags: W
LayerCount: 2
Fore
SplineSet
-108 -268 m 257
 -107 -268 -107 -268 -106.5 -268.5 c 128
 -106 -269 -106 -269 -105 -269 c 257
 -86 -277 -86 -277 -62.5 -284 c 128
 -39 -291 -39 -291 -13 -291 c 257
 17 -291 17 -291 39 -277 c 128
 61 -263 61 -263 76.5 -237.5 c 128
 92 -212 92 -212 102.5 -176 c 128
 113 -140 113 -140 121 -97 c 257
 323 1049 l 257
 636 1081 l 257
 430 -89 l 257
 410 -201 410 -201 382 -284.5 c 128
 354 -368 354 -368 306.5 -422 c 128
 259 -476 259 -476 185.5 -500 c 128
 112 -524 112 -524 0 -517 c 257
 -37 -515 -37 -515 -69 -508.5 c 128
 -101 -502 -101 -502 -126.5 -494.5 c 128
 -152 -487 -152 -487 -170 -479 c 128
 -188 -471 -188 -471 -198 -465 c 257
 -108 -268 l 257
397 1500 m 257
 715 1500 l 257
 674 1269 l 257
 356 1269 l 257
 397 1500 l 257
EndSplineSet
EndChar
StartChar: l
Encoding: 328 108 328
GlifName: l
Width: 700
VWidth: 0
Flags: W
LayerCount: 2
Fore
SplineSet
388 1379 m 257
 406 1600 l 257
 744 1631 l 257
 528 403 l 257
 522 371 522 371 520.5 339 c 128
 519 307 519 307 524 280 c 128
 529 253 529 253 543.5 234 c 128
 558 215 558 215 584 209 c 257
 597 206 597 206 612 208 c 128
 627 210 627 210 641.5 214.5 c 128
 656 219 656 219 667.5 224 c 128
 679 229 679 229 687 232 c 257
 709 35 l 257
 666 9 666 9 615.5 -6.5 c 128
 565 -22 565 -22 491 -17 c 257
 390 -11 390 -11 329 24 c 128
 268 59 268 59 238 116 c 128
 208 173 208 173 205 248.5 c 128
 202 324 202 324 217 411 c 257
 388 1379 l 257
EndSplineSet
EndChar
StartChar: n
Encoding: 357 110 357
GlifName: n
Width: 1200
VWidth: 0
Flags: W
LayerCount: 2
Fore
SplineSet
653 1126 m 257
 620 937 l 257
 736 1088 l 257
 770 1099 770 1099 805 1107 c 128
 840 1115 840 1115 875 1117 c 257
 929 1121 929 1121 967.5 1117.5 c 128
 1006 1114 1006 1114 1036 1102.5 c 128
 1066 1091 1066 1091 1090 1071.5 c 128
 1114 1052 1114 1052 1139 1024 c 257
 1166 993 1166 993 1176 953.5 c 128
 1186 914 1186 914 1186.5 873.5 c 128
 1187 833 1187 833 1181 794.5 c 128
 1175 756 1175 756 1170 727 c 257
 1042 0 l 257
 729 0 l 257
 862 757 l 257
 873 821 873 821 849.5 855 c 128
 826 889 826 889 787 900 c 257
 771 904 771 904 748.5 901.5 c 128
 726 899 726 899 700 888.5 c 128
 674 878 674 878 647.5 860 c 128
 621 842 621 842 598 816 c 257
 455 0 l 257
 142 0 l 257
 334 1093 l 257
 653 1126 l 257
EndSplineSet
EndChar
StartChar: w
Encoding: 557 119 557
GlifName: w
Width: 1500
VWidth: 0
Flags: W
LayerCount: 2
Fore
SplineSet
1095 800 m 257
 1076 272 l 257
 1230 800 l 257
 1352 1094 l 257
 1653 1124 l 257
 1144 0 l 257
 893 0 l 257
 870 300 l 257
 895 820 l 257
 730 300 l 257
 610 0 l 257
 359 0 l 257
 250 1093 l 257
 552 1126 l 257
 569 800 l 257
 541 270 l 257
 705 800 l 257
 831 1100 l 257
 1078 1100 l 257
 1095 800 l 257
EndSplineSet
EndChar
StartChar: y
Encoding: 582 121 582
GlifName: y
Width: 1100
VWidth: 0
Flags: W
LayerCount: 2
Fore
SplineSet
588 670 m 257
 582 190 l 257
 744 670 l 257
 980 1095 l 257
 1297 1124 l 257
 692 8 l 257
 653 -64 653 -64 619.5 -127.5 c 128
 586 -191 586 -191 552.5 -245.5 c 128
 519 -300 519 -300 484.5 -343.5 c 128
 450 -387 450 -387 409.5 -417 c 128
 369 -447 369 -447 320 -463.5 c 128
 271 -480 271 -480 210 -480 c 257
 177 -480 177 -480 139.5 -470 c 128
 102 -460 102 -460 68 -444 c 128
 34 -428 34 -428 8.5 -409.5 c 128
 -17 -391 -17 -391 -26 -374 c 257
 127 -194 l 257
 142 -207 142 -207 154 -214.5 c 128
 166 -222 166 -222 176.5 -226 c 128
 187 -230 187 -230 197.5 -231.5 c 128
 208 -233 208 -233 222 -234 c 257
 272 -239 272 -239 313 -193.5 c 128
 354 -148 354 -148 404 -47 c 257
 188 1093 l 257
 503 1121 l 257
 588 670 l 257
EndSplineSet
EndChar
StartChar: braceleft
Encoding: 168 123 168
GlifName: braceleft
Width: 1298
VWidth: 0
Flags: W
LayerCount: 2
Fore
SplineSet
1225 1260 m 257
 1194 1280 1194 1280 1153 1292.5 c 128
 1112 1305 1112 1305 1077 1305 c 257
 1047 1303 1047 1303 1026.5 1288.5 c 128
 1006 1274 1006 1274 992 1248 c 128
 978 1222 978 1222 968.5 1184.5 c 128
 959 1147 959 1147 950 1099 c 257
 909 864 l 257
 895 787 895 787 871 733 c 128
 847 679 847 679 817 642 c 128
 787 605 787 605 753.5 583 c 128
 720 561 720 561 689 550 c 257
 713 530 713 530 736 495 c 128
 759 460 759 460 775 416.5 c 128
 791 373 791 373 798 326.5 c 128
 805 280 805 280 798 238 c 257
 756 -2 l 257
 748 -50 748 -50 744 -84.5 c 128
 740 -119 740 -119 744.5 -143 c 128
 749 -167 749 -167 764.5 -182.5 c 128
 780 -198 780 -198 810 -208 c 257
 826 -213 826 -213 847 -210.5 c 128
 868 -208 868 -208 890 -201 c 128
 912 -194 912 -194 933.5 -183.5 c 128
 955 -173 955 -173 974 -163 c 257
 1037 -348 l 257
 1002 -363 1002 -363 969 -378 c 128
 936 -393 936 -393 900 -403.5 c 128
 864 -414 864 -414 822.5 -419 c 128
 781 -424 781 -424 729 -420 c 257
 628 -413 628 -413 563 -379.5 c 128
 498 -346 498 -346 463 -291.5 c 128
 428 -237 428 -237 421 -163.5 c 128
 414 -90 414 -90 429 -2 c 257
 471 238 l 257
 487 326 487 326 480.5 379 c 128
 474 432 474 432 430 442 c 257
 296 462 l 257
 327 640 l 257
 469 660 l 257
 517 671 517 671 541.5 723.5 c 128
 566 776 566 776 582 864 c 257
 623 1099 l 257
 642 1211 642 1211 674 1293 c 128
 706 1375 706 1375 757.5 1426.5 c 128
 809 1478 809 1478 885.5 1500.5 c 128
 962 1523 962 1523 1071 1517 c 257
 1123 1514 1123 1514 1162.5 1508.5 c 128
 1202 1503 1202 1503 1234.5 1494 c 128
 1267 1485 1267 1485 1295 1473 c 128
 1323 1461 1323 1461 1353 1445 c 257
 1225 1260 l 257
EndSplineSet
EndChar
StartChar: asciitilde
Encoding: 136 126 136
GlifName: asciitilde
Width: 1500
VWidth: 0
Flags: W
LayerCount: 2
Fore
SplineSet
204 441 m 257
 220 519 220 519 257 594.5 c 128
 294 670 294 670 354 727.5 c 128
 414 785 414 785 496.5 816 c 128
 579 847 579 847 687 835 c 257
 741 829 741 829 780.5 818.5 c 128
 820 808 820 808 850 795 c 128
 880 782 880 782 903 768 c 128
 926 754 926 754 948 741 c 128
 970 728 970 728 993 718 c 128
 1016 708 1016 708 1046 703 c 257
 1115 692 1115 692 1161.5 719 c 128
 1208 746 1208 746 1231 818 c 257
 1503 802 l 257
 1488 720 1488 720 1452.5 641 c 128
 1417 562 1417 562 1358.5 503.5 c 128
 1300 445 1300 445 1217.5 415 c 128
 1135 385 1135 385 1028 400 c 257
 953 411 953 411 900.5 432.5 c 128
 848 454 848 454 808.5 475.5 c 128
 769 497 769 497 736.5 514 c 128
 704 531 704 531 670 532 c 257
 643 533 643 533 618.5 530 c 128
 594 527 594 527 572.5 516.5 c 128
 551 506 551 506 533 485 c 128
 515 464 515 464 502 430 c 257
 204 441 l 257
EndSplineSet
EndChar
StartChar: exclamdown
Encoding: 258 161 258
GlifName: exclamdown
Width: 700
VWidth: 0
Flags: W
LayerCount: 2
Fore
SplineSet
130 -403 m 257
 316 653 l 257
 622 688 l 257
 430 -403 l 257
 130 -403 l 257
657 960 m 257
 655 930 655 930 639 901.5 c 128
 623 873 623 873 598.5 852 c 128
 574 831 574 831 544 820 c 128
 514 809 514 809 484 812 c 257
 424 819 424 819 391 859 c 128
 358 899 358 899 362 960 c 257
 364 991 364 991 380 1019 c 128
 396 1047 396 1047 420.5 1068 c 128
 445 1089 445 1089 475 1101 c 128
 505 1113 505 1113 535 1111 c 257
 566 1109 566 1109 590 1096 c 128
 614 1083 614 1083 629.5 1063 c 128
 645 1043 645 1043 652 1016.5 c 128
 659 990 659 990 657 960 c 257
EndSplineSet
EndChar
StartChar: cent
Encoding: 182 162 182
GlifName: cent
Width: 1000
VWidth: 0
Flags: W
LayerCount: 2
Fore
SplineSet
466 563 m 257
 463 516 463 516 462 472 c 128
 461 428 461 428 465.5 389 c 128
 470 350 470 350 481 316.5 c 128
 492 283 492 283 513 258 c 257
 620 869 l 257
 587 848 587 848 560 816 c 128
 533 784 533 784 513 743.5 c 128
 493 703 493 703 481 657 c 128
 469 611 469 611 466 563 c 257
931 814 m 257
 912 836 912 836 892.5 850.5 c 128
 873 865 873 865 853 875 c 257
 738 217 l 257
 776 231 776 231 812 249.5 c 128
 848 268 848 268 872 288 c 257
 950 93 l 257
 899 57 899 57 834 28.5 c 128
 769 0 769 0 697 -12 c 257
 666 -190 l 257
 386 -190 l 257
 422 14 l 257
 336 44 336 44 280 98.5 c 128
 224 153 224 153 193 226 c 128
 162 299 162 299 153 387.5 c 128
 144 476 144 476 152 575 c 257
 159 666 159 666 194 753.5 c 128
 229 841 229 841 288.5 913 c 128
 348 985 348 985 430.5 1036 c 128
 513 1087 513 1087 615 1107 c 257
 649 1302 l 257
 936 1340 l 257
 894 1101 l 257
 959 1086 959 1086 1011 1053.5 c 128
 1063 1021 1063 1021 1108 961 c 257
 931 814 l 257
EndSplineSet
EndChar
StartChar: guillemotleft
Encoding: 296 171 296
GlifName: guillemotleft
Width: 1400
VWidth: 0
Flags: W
LayerCount: 2
Fore
SplineSet
877 1106 m 257
 926 880 l 257
 542 583 l 257
 460 550 l 257
 530 517 l 257
 812 224 l 257
 676 -13 l 257
 207 476 l 257
 233 620 l 257
 877 1106 l 257
1377 1106 m 257
 1426 880 l 257
 1042 583 l 257
 960 550 l 257
 1030 517 l 257
 1312 224 l 257
 1176 -13 l 257
 707 476 l 257
 733 620 l 257
 1377 1106 l 257
EndSplineSet
EndChar
StartChar: logicalnot
Encoding: 341 172 341
GlifName: logicalnot
Width: 1700
VWidth: 0
Flags: W
LayerCount: 2
Fore
SplineSet
1605 827 m 257
 1544 586 l 257
 1486 258 l 257
 1154 258 l 257
 1189 459 l 257
 1226 600 l 257
 276 600 l 257
 316 827 l 257
 1605 827 l 257
EndSplineSet
EndChar
StartChar: registered
Encoding: 454 174 454
GlifName: registered
Width: 1100
VWidth: 0
Flags: W
LayerCount: 2
Fore
SplineSet
816 1517 m 257
 912 1511 912 1511 986.5 1475 c 128
 1061 1439 1061 1439 1110.5 1377.5 c 128
 1160 1316 1160 1316 1184 1232.5 c 128
 1208 1149 1208 1149 1203 1047 c 257
 1198 948 1198 948 1147.5 859 c 128
 1097 770 1097 770 1018.5 704.5 c 128
 940 639 940 639 843.5 604 c 128
 747 569 747 569 650 577 c 257
 548 586 548 586 472.5 623 c 128
 397 660 397 660 348 720.5 c 128
 299 781 299 781 278 864 c 128
 257 947 257 947 263 1047 c 257
 269 1146 269 1146 317.5 1234 c 128
 366 1322 366 1322 442.5 1387 c 128
 519 1452 519 1452 615.5 1487.5 c 128
 712 1523 712 1523 816 1517 c 257
794 1395 m 257
 717 1400 717 1400 645 1373.5 c 128
 573 1347 573 1347 517 1299 c 128
 461 1251 461 1251 425 1185 c 128
 389 1119 389 1119 384 1046 c 257
 379 972 379 972 395 910.5 c 128
 411 849 411 849 447 804 c 128
 483 759 483 759 539 732 c 128
 595 705 595 705 670 698 c 257
 742 692 742 692 813.5 718 c 128
 885 744 885 744 943 793 c 128
 1001 842 1001 842 1039 907.5 c 128
 1077 973 1077 973 1081 1046 c 257
 1084 1122 1084 1122 1066.5 1184 c 128
 1049 1246 1049 1246 1012 1291.5 c 128
 975 1337 975 1337 920 1363.5 c 128
 865 1390 865 1390 794 1395 c 257
722 1174 m 257
 704 1065 l 257
 724 1065 l 257
 746 1065 746 1065 764 1071 c 128
 782 1077 782 1077 794.5 1088.5 c 128
 807 1100 807 1100 814.5 1116 c 128
 822 1132 822 1132 823 1153 c 257
 824 1176 824 1176 818 1191.5 c 128
 812 1207 812 1207 801.5 1216 c 128
 791 1225 791 1225 778.5 1228.5 c 128
 766 1232 766 1232 754 1232 c 257
 748 1232 748 1232 744 1232 c 128
 740 1232 740 1232 737 1232 c 128
 734 1232 734 1232 732 1232 c 128
 730 1232 730 1232 727 1231 c 257
 722 1174 l 257
705 987 m 257
 703 991 703 991 698.5 992 c 128
 694 993 694 993 691 993 c 257
 659 800 l 257
 551 800 l 257
 622 1218 l 257
 622 1291 l 257
 637 1292 637 1292 654.5 1294 c 128
 672 1296 672 1296 690.5 1297 c 128
 709 1298 709 1298 726.5 1299 c 128
 744 1300 744 1300 758 1300 c 257
 798 1300 798 1300 830.5 1291 c 128
 863 1282 863 1282 886 1264.5 c 128
 909 1247 909 1247 920.5 1220 c 128
 932 1193 932 1193 929 1158 c 257
 928 1133 928 1133 920.5 1113 c 128
 913 1093 913 1093 901.5 1077.5 c 128
 890 1062 890 1062 875 1050 c 128
 860 1038 860 1038 843 1029 c 128
 826 1020 826 1020 808 1014 c 128
 790 1008 790 1008 772 1004 c 257
 815 993 l 257
 921 800 l 257
 804 800 l 257
 705 987 l 257
EndSplineSet
EndChar
StartChar: degree
Encoding: 219 176 219
GlifName: degree
Width: 600
VWidth: 0
Flags: W
LayerCount: 2
Fore
SplineSet
566 1517 m 257
 625 1511 625 1511 673 1489 c 128
 721 1467 721 1467 754.5 1432 c 128
 788 1397 788 1397 804 1350.5 c 128
 820 1304 820 1304 814 1247 c 257
 808 1192 808 1192 777 1140 c 128
 746 1088 746 1088 698 1049 c 128
 650 1010 650 1010 591 989.5 c 128
 532 969 532 969 471 977 c 257
 342 994 342 994 279.5 1065.5 c 128
 217 1137 217 1137 222 1247 c 257
 224 1304 224 1304 255 1355.5 c 128
 286 1407 286 1407 335 1445.5 c 128
 384 1484 384 1484 444.5 1504 c 128
 505 1524 505 1524 566 1517 c 257
540 1349 m 257
 516 1352 516 1352 492.5 1344 c 128
 469 1336 469 1336 450 1321.5 c 128
 431 1307 431 1307 419.5 1287.5 c 128
 408 1268 408 1268 407 1246 c 257
 405 1203 405 1203 428.5 1176 c 128
 452 1149 452 1149 503 1142 c 257
 526 1139 526 1139 548.5 1147 c 128
 571 1155 571 1155 589.5 1170 c 128
 608 1185 608 1185 620 1205 c 128
 632 1225 632 1225 634 1246 c 257
 639 1290 639 1290 612 1317 c 128
 585 1344 585 1344 540 1349 c 257
EndSplineSet
EndChar
StartChar: periodcentered
Encoding: 413 183 413
GlifName: periodcentered
Width: 500
VWidth: 0
Flags: W
LayerCount: 2
Fore
SplineSet
95 671 m 257
 98 709 98 709 118 744.5 c 128
 138 780 138 780 168.5 806 c 128
 199 832 199 832 236.5 846 c 128
 274 860 274 860 311 856 c 257
 387 848 387 848 428 798 c 128
 469 748 469 748 464 671 c 257
 462 632 462 632 442 597 c 128
 422 562 422 562 391.5 535.5 c 128
 361 509 361 509 323 494.5 c 128
 285 480 285 480 248 483 c 257
 209 486 209 486 179 501.5 c 128
 149 517 149 517 129.5 542.5 c 128
 110 568 110 568 101 601 c 128
 92 634 92 634 95 671 c 257
EndSplineSet
EndChar
StartChar: cedilla
Encoding: 181 184 181
GlifName: cedilla
Width: 1100
VWidth: 0
Flags: W
LayerCount: 2
Fore
SplineSet
561 0 m 257
 583 -20 583 -20 599 -46 c 257
 613 -69 613 -69 623 -100 c 128
 633 -131 633 -131 629 -171 c 257
 623 -228 623 -228 592 -274 c 128
 561 -320 561 -320 514.5 -351 c 128
 468 -382 468 -382 412 -397 c 128
 356 -412 356 -412 300 -407 c 257
 241 -402 241 -402 185.5 -383.5 c 128
 130 -365 130 -365 87 -344 c 257
 36 -319 36 -319 -8 -290 c 257
 134 -131 l 257
 163 -149 163 -149 192 -163 c 257
 216 -175 216 -175 243.5 -186 c 128
 271 -197 271 -197 293 -200 c 257
 324 -205 324 -205 347 -191 c 128
 370 -177 370 -177 367 -147 c 257
 365 -126 365 -126 356 -102.5 c 128
 347 -79 347 -79 336.5 -58 c 128
 326 -37 326 -37 315.5 -21.5 c 128
 305 -6 305 -6 299 0 c 257
 561 0 l 257
EndSplineSet
EndChar
StartChar: ordmasculine
Encoding: 394 186 394
GlifName: ordmasculine
Width: 800
VWidth: 0
Flags: W
LayerCount: 2
Fore
SplineSet
211 800 m 257
 671 800 l 257
 644 650 l 257
 184 650 l 257
 211 800 l 257
461 922 m 257
 402 927 402 927 359 949 c 128
 316 971 316 971 289.5 1007.5 c 128
 263 1044 263 1044 252.5 1094.5 c 128
 242 1145 242 1145 248 1207 c 257
 253 1269 253 1269 279.5 1322.5 c 128
 306 1376 306 1376 348 1415 c 128
 390 1454 390 1454 444.5 1474 c 128
 499 1494 499 1494 561 1489 c 257
 620 1484 620 1484 663 1462.5 c 128
 706 1441 706 1441 733 1404.5 c 128
 760 1368 760 1368 770.5 1318.5 c 128
 781 1269 781 1269 775 1207 c 257
 772 1166 772 1166 758.5 1128 c 128
 745 1090 745 1090 723.5 1057 c 128
 702 1024 702 1024 674 997.5 c 128
 646 971 646 971 612 953 c 128
 578 935 578 935 540 927 c 128
 502 919 502 919 461 922 c 257
617 1195 m 257
 620 1230 620 1230 620 1261.5 c 128
 620 1293 620 1293 612 1318 c 128
 604 1343 604 1343 587 1359 c 128
 570 1375 570 1375 540 1379 c 257
 514 1383 514 1383 491 1369.5 c 128
 468 1356 468 1356 450 1332.5 c 128
 432 1309 432 1309 420 1278.5 c 128
 408 1248 408 1248 406 1216 c 257
 403 1181 403 1181 403.5 1149 c 128
 404 1117 404 1117 412 1092.5 c 128
 420 1068 420 1068 436.5 1052 c 128
 453 1036 453 1036 482 1032 c 257
 509 1029 509 1029 532.5 1042.5 c 128
 556 1056 556 1056 573.5 1079.5 c 128
 591 1103 591 1103 602.5 1133.5 c 128
 614 1164 614 1164 617 1195 c 257
EndSplineSet
EndChar
StartChar: threequarters
Encoding: 524 190 524
GlifName: threequarters
Width: 1500
VWidth: 0
Flags: W
LayerCount: 2
Fore
SplineSet
474 0 m 257
 289 0 l 257
 1064 1500 l 257
 1240 1500 l 257
 474 0 l 257
239 1191 m 257
 264 1207 264 1207 302.5 1230.5 c 128
 341 1254 341 1254 382.5 1283 c 128
 424 1312 424 1312 461.5 1344 c 128
 499 1376 499 1376 522 1409 c 257
 385 1372 l 257
 220 1372 l 257
 248 1472 l 257
 662 1472 l 257
 647 1385 l 257
 626 1355 626 1355 591 1316 c 128
 556 1277 556 1277 514 1248 c 257
 428 1206 l 257
 473 1208 473 1208 511.5 1194.5 c 128
 550 1181 550 1181 577 1155 c 128
 604 1129 604 1129 617.5 1091.5 c 128
 631 1054 631 1054 627 1008 c 257
 620 931 620 931 572.5 877 c 128
 525 823 525 823 452 788.5 c 128
 379 754 379 754 287.5 738 c 128
 196 722 196 722 100 722 c 257
 118 822 l 257
 182 822 182 822 243.5 835 c 128
 305 848 305 848 353 871.5 c 128
 401 895 401 895 431 928.5 c 128
 461 962 461 962 462 1003 c 257
 463 1032 463 1032 452 1052 c 128
 441 1072 441 1072 422.5 1084 c 128
 404 1096 404 1096 379 1101.5 c 128
 354 1107 354 1107 327 1107 c 257
 319 1107 319 1107 305 1106.5 c 128
 291 1106 291 1106 275 1105 c 128
 259 1104 259 1104 245 1103 c 128
 231 1102 231 1102 224 1102 c 257
 239 1191 l 257
1424 188 m 257
 1335 188 l 257
 1309 38 l 257
 1155 38 l 257
 1181 188 l 257
 886 188 l 257
 904 288 l 257
 1242 800 l 257
 1392 784 l 257
 1164 419 l 257
 1054 288 l 257
 1199 288 l 257
 1225 437 l 257
 1377 424 l 257
 1353 288 l 257
 1453 288 l 257
 1424 188 l 257
EndSplineSet
EndChar
StartChar: Agrave
Encoding: 6 192 6
GlifName: A_grave
Width: 1300
VWidth: 0
Flags: W
LayerCount: 2
Fore
SplineSet
20 0 m 257
 644 1284 l 257
 716 1494 l 257
 1071 1525 l 257
 1282 0 l 257
 955 0 l 257
 914 427 l 257
 522 427 l 257
 334 0 l 257
 20 0 l 257
882 1361 m 257
 764 990 l 257
 619 646 l 257
 893 646 l 257
 869 990 l 257
 882 1361 l 257
1018 1600 m 257
 760 1600 l 257
 547 1891 l 257
 900 1925 l 257
 1018 1600 l 257
EndSplineSet
EndChar
StartChar: Atilde
Encoding: 9 195 9
GlifName: A_tilde
Width: 1300
VWidth: 0
Flags: W
LayerCount: 2
Fore
SplineSet
20 0 m 257
 644 1284 l 257
 716 1494 l 257
 1071 1525 l 257
 1282 0 l 257
 955 0 l 257
 914 427 l 257
 522 427 l 257
 334 0 l 257
 20 0 l 257
882 1361 m 257
 764 990 l 257
 619 646 l 257
 893 646 l 257
 869 990 l 257
 882 1361 l 257
523 1627 m 257
 530 1669 530 1669 552.5 1717.5 c 128
 575 1766 575 1766 612 1805 c 128
 649 1844 649 1844 700.5 1867.5 c 128
 752 1891 752 1891 819 1884 c 257
 868 1879 868 1879 899.5 1864.5 c 128
 931 1850 931 1850 955.5 1835 c 128
 980 1820 980 1820 1002.5 1810 c 128
 1025 1800 1025 1800 1055 1804 c 257
 1097 1809 1097 1809 1118 1833 c 128
 1139 1857 1139 1857 1152 1892 c 257
 1317 1882 l 257
 1306 1828 1306 1828 1283 1779 c 128
 1260 1730 1260 1730 1224 1693.5 c 128
 1188 1657 1188 1657 1138.5 1637 c 128
 1089 1617 1089 1617 1026 1620 c 257
 981 1622 981 1622 950 1636.5 c 128
 919 1651 919 1651 894.5 1666.5 c 128
 870 1682 870 1682 846 1693 c 128
 822 1704 822 1704 791 1700 c 257
 756 1695 756 1695 736.5 1672.5 c 128
 717 1650 717 1650 704 1620 c 257
 523 1627 l 257
EndSplineSet
EndChar
StartChar: Aring
Encoding: 8 197 8
GlifName: A_ring
Width: 1300
VWidth: 0
Flags: W
LayerCount: 2
Fore
SplineSet
20 0 m 257
 644 1284 l 257
 716 1494 l 257
 1071 1525 l 257
 1282 0 l 257
 955 0 l 257
 914 427 l 257
 522 427 l 257
 334 0 l 257
 20 0 l 257
882 1361 m 257
 764 990 l 257
 619 646 l 257
 893 646 l 257
 869 990 l 257
 882 1361 l 257
979 1927 m 257
 1041 1920 1041 1920 1092 1897 c 128
 1143 1874 1143 1874 1178 1837 c 128
 1213 1800 1213 1800 1230 1750.5 c 128
 1247 1701 1247 1701 1241 1641 c 257
 1235 1582 1235 1582 1202 1527 c 128
 1169 1472 1169 1472 1118.5 1431 c 128
 1068 1390 1068 1390 1005.5 1368 c 128
 943 1346 943 1346 878 1355 c 257
 741 1373 741 1373 675 1448 c 128
 609 1523 609 1523 614 1641 c 257
 616 1701 616 1701 649 1756 c 128
 682 1811 682 1811 734 1851.5 c 128
 786 1892 786 1892 850 1913 c 128
 914 1934 914 1934 979 1927 c 257
948 1737 m 257
 926 1739 926 1739 904 1732 c 128
 882 1725 882 1725 864.5 1711.5 c 128
 847 1698 847 1698 836 1679.5 c 128
 825 1661 825 1661 824 1640 c 257
 823 1599 823 1599 845 1574 c 128
 867 1549 867 1549 915 1542 c 257
 936 1539 936 1539 957 1546.5 c 128
 978 1554 978 1554 995.5 1568 c 128
 1013 1582 1013 1582 1024 1601 c 128
 1035 1620 1035 1620 1037 1640 c 257
 1041 1682 1041 1682 1016.5 1707 c 128
 992 1732 992 1732 948 1737 c 257
EndSplineSet
EndChar
StartChar: Ccedilla
Encoding: 13 199 13
GlifName: C_cedilla
Width: 1300
VWidth: 0
Flags: W
LayerCount: 2
Fore
SplineSet
1177 133 m 257
 1067 42 1067 42 948 6.5 c 128
 829 -29 829 -29 695 -17 c 257
 544 -4 544 -4 439.5 58 c 128
 335 120 335 120 272.5 222 c 128
 210 324 210 324 189 463 c 128
 168 602 168 602 184 769 c 257
 194 871 194 871 224 967.5 c 128
 254 1064 254 1064 303.5 1148.5 c 128
 353 1233 353 1233 421 1303.5 c 128
 489 1374 489 1374 575 1423 c 128
 661 1472 661 1472 764 1497 c 128
 867 1522 867 1522 986 1517 c 257
 1050 1514 1050 1514 1110.5 1502 c 128
 1171 1490 1171 1490 1225 1469 c 128
 1279 1448 1279 1448 1325 1417 c 128
 1371 1386 1371 1386 1407 1344 c 257
 1229 1170 l 257
 1190 1201 1190 1201 1156 1222 c 128
 1122 1243 1122 1243 1090.5 1255.5 c 128
 1059 1268 1059 1268 1027 1273.5 c 128
 995 1279 995 1279 960 1280 c 257
 866 1282 866 1282 789 1242.5 c 128
 712 1203 712 1203 655.5 1133.5 c 128
 599 1064 599 1064 564 971 c 128
 529 878 529 878 520 772 c 257
 514 710 514 710 513.5 647 c 128
 513 584 513 584 520.5 524.5 c 128
 528 465 528 465 544.5 412 c 128
 561 359 561 359 589.5 318.5 c 128
 618 278 618 278 660 252 c 128
 702 226 702 226 760 221 c 257
 829 215 829 215 912 239 c 128
 995 263 995 263 1092 328 c 257
 1177 133 l 257
865 0 m 257
 887 -20 887 -20 903 -46 c 257
 917 -69 917 -69 927 -100 c 128
 937 -131 937 -131 933 -171 c 257
 927 -228 927 -228 896 -274 c 128
 865 -320 865 -320 818.5 -351 c 128
 772 -382 772 -382 716 -397 c 128
 660 -412 660 -412 604 -407 c 257
 545 -402 545 -402 489.5 -383.5 c 128
 434 -365 434 -365 391 -344 c 257
 340 -319 340 -319 296 -290 c 257
 438 -131 l 257
 467 -149 467 -149 496 -163 c 257
 520 -175 520 -175 547.5 -186 c 128
 575 -197 575 -197 597 -200 c 257
 628 -205 628 -205 651 -191 c 128
 674 -177 674 -177 671 -147 c 257
 669 -126 669 -126 660 -102.5 c 128
 651 -79 651 -79 640.5 -58 c 128
 630 -37 630 -37 619.5 -21.5 c 128
 609 -6 609 -6 603 0 c 257
 865 0 l 257
EndSplineSet
EndChar
StartChar: Edieresis
Encoding: 20 203 20
GlifName: E_dieresis
Width: 1200
VWidth: 0
Flags: W
LayerCount: 2
Fore
SplineSet
1127 228 m 257
 1060 0 l 257
 118 0 l 257
 175 231 l 257
 357 1263 l 257
 364 1500 l 257
 1314 1500 l 257
 1274 1272 l 257
 680 1272 l 257
 670 1134 l 257
 632 916 l 257
 1145 916 l 257
 1107 703 l 257
 594 703 l 257
 534 360 l 257
 503 228 l 257
 1127 228 l 257
490 1634 m 257
 766 1634 l 257
 813 1900 l 257
 537 1900 l 257
 490 1634 l 257
890 1634 m 257
 1166 1634 l 257
 1213 1900 l 257
 937 1900 l 257
 890 1634 l 257
EndSplineSet
EndChar
StartChar: Igrave
Encoding: 39 204 39
GlifName: I_grave
Width: 600
VWidth: 0
Flags: W
LayerCount: 2
Fore
SplineSet
126 0 m 257
 348 1263 l 257
 356 1494 l 257
 731 1525 l 257
 463 0 l 257
 126 0 l 257
686 1600 m 257
 428 1600 l 257
 215 1891 l 257
 568 1925 l 257
 686 1600 l 257
EndSplineSet
EndChar
StartChar: Iacute
Encoding: 35 205 35
GlifName: I_acute
Width: 600
VWidth: 0
Flags: W
LayerCount: 2
Fore
SplineSet
126 0 m 257
 348 1263 l 257
 356 1494 l 257
 731 1525 l 257
 463 0 l 257
 126 0 l 257
643 1896 m 257
 1030 1928 l 257
 680 1600 l 257
 431 1600 l 257
 643 1896 l 257
EndSplineSet
EndChar
StartChar: Icircumflex
Encoding: 36 206 36
GlifName: I_circumflex
Width: 600
VWidth: 0
Flags: W
LayerCount: 2
Fore
SplineSet
126 0 m 257
 348 1263 l 257
 356 1494 l 257
 731 1525 l 257
 463 0 l 257
 126 0 l 257
887 1620 m 257
 672 1620 l 257
 620 1723 l 257
 612 1850 l 257
 560 1723 l 257
 461 1620 l 257
 231 1620 l 257
 452 1895 l 257
 753 1924 l 257
 887 1620 l 257
EndSplineSet
EndChar
StartChar: Idieresis
Encoding: 37 207 37
GlifName: I_dieresis
Width: 600
VWidth: 0
Flags: W
LayerCount: 2
Fore
SplineSet
126 0 m 257
 348 1263 l 257
 356 1494 l 257
 731 1525 l 257
 463 0 l 257
 126 0 l 257
237 1634 m 257
 513 1634 l 257
 560 1900 l 257
 284 1900 l 257
 237 1634 l 257
637 1634 m 257
 913 1634 l 257
 960 1900 l 257
 684 1900 l 257
 637 1634 l 257
EndSplineSet
EndChar
StartChar: Eth
Encoding: 26 208 26
GlifName: E_th
Width: 1300
VWidth: 0
Flags: W
LayerCount: 2
Fore
SplineSet
171 888 m 257
 301 888 l 257
 367 1263 l 257
 374 1493 l 257
 423 1498 423 1498 476.5 1501 c 128
 530 1504 530 1504 581 1506 c 128
 632 1508 632 1508 677.5 1509 c 128
 723 1510 723 1510 756 1510 c 257
 924 1510 924 1510 1052 1471.5 c 128
 1180 1433 1180 1433 1263 1348.5 c 128
 1346 1264 1346 1264 1381 1130.5 c 128
 1416 997 1416 997 1398 807 c 257
 1384 655 1384 655 1342.5 536.5 c 128
 1301 418 1301 418 1237.5 328 c 128
 1174 238 1174 238 1091.5 175.5 c 128
 1009 113 1009 113 912 74 c 128
 815 35 815 35 706 17.5 c 128
 597 0 597 0 482 0 c 257
 145 0 l 257
 262 665 l 257
 132 665 l 257
 171 888 l 257
709 1289 m 257
 704 1289 704 1289 698.5 1289 c 128
 693 1289 693 1289 687 1288 c 257
 679 1127 l 257
 637 888 l 257
 817 888 l 257
 778 665 l 257
 598 665 l 257
 521 230 l 257
 636 234 636 234 718.5 262 c 128
 801 290 801 290 858.5 334 c 128
 916 378 916 378 952 433.5 c 128
 988 489 988 489 1009 548.5 c 128
 1030 608 1030 608 1039.5 667 c 128
 1049 726 1049 726 1055 778 c 257
 1068 892 1068 892 1063 986 c 128
 1058 1080 1058 1080 1021.5 1147.5 c 128
 985 1215 985 1215 910.5 1252 c 128
 836 1289 836 1289 709 1289 c 257
EndSplineSet
EndChar
StartChar: Ntilde
Encoding: 51 209 51
GlifName: N_tilde
Width: 1500
VWidth: 0
Flags: W
LayerCount: 2
Fore
SplineSet
1577 1527 m 257
 1308 0 l 257
 1007 0 l 257
 712 700 l 257
 624 1038 l 257
 617 1037 l 257
 594 691 l 257
 473 0 l 257
 146 0 l 257
 368 1263 l 257
 376 1494 l 257
 722 1524 l 257
 1021 810 l 257
 1107 449 l 257
 1113 450 l 257
 1129 816 l 257
 1249 1493 l 257
 1577 1527 l 257
688 1627 m 257
 695 1669 695 1669 717.5 1717.5 c 128
 740 1766 740 1766 777 1805 c 128
 814 1844 814 1844 865.5 1867.5 c 128
 917 1891 917 1891 984 1884 c 257
 1033 1879 1033 1879 1064.5 1864.5 c 128
 1096 1850 1096 1850 1120.5 1835 c 128
 1145 1820 1145 1820 1167.5 1810 c 128
 1190 1800 1190 1800 1220 1804 c 257
 1262 1809 1262 1809 1283 1833 c 128
 1304 1857 1304 1857 1317 1892 c 257
 1482 1882 l 257
 1471 1828 1471 1828 1448 1779 c 128
 1425 1730 1425 1730 1389 1693.5 c 128
 1353 1657 1353 1657 1303.5 1637 c 128
 1254 1617 1254 1617 1191 1620 c 257
 1146 1622 1146 1622 1115 1636.5 c 128
 1084 1651 1084 1651 1059.5 1666.5 c 128
 1035 1682 1035 1682 1011 1693 c 128
 987 1704 987 1704 956 1700 c 257
 921 1695 921 1695 901.5 1672.5 c 128
 882 1650 882 1650 869 1620 c 257
 688 1627 l 257
EndSplineSet
EndChar
StartChar: Oacute
Encoding: 55 211 55
GlifName: O_acute
Width: 1600
VWidth: 0
Flags: W
LayerCount: 2
Fore
SplineSet
777 -17 m 257
 624 -11 624 -11 509 46.5 c 128
 394 104 394 104 321 204 c 128
 248 304 248 304 219 442.5 c 128
 190 581 190 581 209 750 c 257
 221 861 221 861 257 963 c 128
 293 1065 293 1065 349 1153 c 128
 405 1241 405 1241 479 1311.5 c 128
 553 1382 553 1382 642 1430.5 c 128
 731 1479 731 1479 833 1502 c 128
 935 1525 935 1525 1047 1517 c 257
 1206 1506 1206 1506 1321 1449.5 c 128
 1436 1393 1436 1393 1507 1295 c 128
 1578 1197 1578 1197 1605 1059.5 c 128
 1632 922 1632 922 1614 750 c 257
 1596 581 1596 581 1527.5 437.5 c 128
 1459 294 1459 294 1349.5 190.5 c 128
 1240 87 1240 87 1094.5 31.5 c 128
 949 -24 949 -24 777 -17 c 257
1275 721 m 257
 1284 830 1284 830 1280 925.5 c 128
 1276 1021 1276 1021 1247 1094.5 c 128
 1218 1168 1218 1168 1158.5 1214 c 128
 1099 1260 1099 1260 997 1269 c 257
 903 1277 903 1277 825 1238 c 128
 747 1199 747 1199 689.5 1129.5 c 128
 632 1060 632 1060 596 969 c 128
 560 878 560 878 549 783 c 257
 537 677 537 677 541 582 c 128
 545 487 545 487 574.5 413.5 c 128
 604 340 604 340 664 292 c 128
 724 244 724 244 825 231 c 257
 887 223 887 223 942.5 239 c 128
 998 255 998 255 1046.5 288 c 128
 1095 321 1095 321 1134.5 369.5 c 128
 1174 418 1174 418 1203.5 475 c 128
 1233 532 1233 532 1251.5 595 c 128
 1270 658 1270 658 1275 721 c 257
1145 1896 m 257
 1532 1928 l 257
 1182 1600 l 257
 933 1600 l 257
 1145 1896 l 257
EndSplineSet
EndChar
StartChar: Udieresis
Encoding: 88 220 88
GlifName: U_dieresis
Width: 1400
VWidth: 0
Flags: W
LayerCount: 2
Fore
SplineSet
1499 1500 m 257
 1329 534 l 257
 1307 390 1307 390 1247.5 282 c 128
 1188 174 1188 174 1100 103.5 c 128
 1012 33 1012 33 901 2 c 128
 790 -29 790 -29 664 -17 c 257
 531 -5 531 -5 437.5 43 c 128
 344 91 344 91 289.5 169 c 128
 235 247 235 247 219.5 351.5 c 128
 204 456 204 456 228 582 c 257
 348 1263 l 257
 356 1494 l 257
 727 1526 l 257
 557 564 l 257
 540 492 540 492 544.5 432.5 c 128
 549 373 549 373 570 328 c 128
 591 283 591 283 628 255.5 c 128
 665 228 665 228 714 221 c 257
 768 213 768 213 815 230.5 c 128
 862 248 862 248 898.5 286.5 c 128
 935 325 935 325 959.5 383.5 c 128
 984 442 984 442 994 516 c 257
 1168 1500 l 257
 1499 1500 l 257
633 1634 m 257
 909 1634 l 257
 956 1900 l 257
 680 1900 l 257
 633 1634 l 257
1033 1634 m 257
 1309 1634 l 257
 1356 1900 l 257
 1080 1900 l 257
 1033 1634 l 257
EndSplineSet
EndChar
StartChar: atilde
Encoding: 141 227 141
GlifName: atilde
Width: 1100
VWidth: 0
Flags: W
LayerCount: 2
Fore
SplineSet
839 885 m 257
 819 888 819 888 802 890 c 128
 785 892 785 892 778 893 c 257
 703 893 703 893 645.5 862 c 128
 588 831 588 831 547 779 c 128
 506 727 506 727 481.5 657.5 c 128
 457 588 457 588 449 510 c 257
 443 449 443 449 445.5 394.5 c 128
 448 340 448 340 459 298.5 c 128
 470 257 470 257 490.5 233 c 128
 511 209 511 209 540 209 c 257
 574 209 574 209 604.5 220.5 c 128
 635 232 635 232 661.5 250 c 128
 688 268 688 268 708.5 289 c 128
 729 310 729 310 744 329 c 257
 839 885 l 257
483 -16 m 257
 406 -15 406 -15 349 8.5 c 128
 292 32 292 32 251.5 72 c 128
 211 112 211 112 186.5 165.5 c 128
 162 219 162 219 150.5 280.5 c 128
 139 342 139 342 138.5 409 c 128
 138 476 138 476 147 542 c 257
 156 614 156 614 180 685 c 128
 204 756 204 756 243.5 820 c 128
 283 884 283 884 337.5 938.5 c 128
 392 993 392 993 462.5 1032.5 c 128
 533 1072 533 1072 620.5 1094.5 c 128
 708 1117 708 1117 812 1117 c 257
 873 1116 873 1116 935 1108 c 257
 989 1101 989 1101 1052 1086 c 128
 1115 1071 1115 1071 1173 1043 c 257
 1030 209 l 257
 1016 0 l 257
 694 0 l 257
 722 162 l 257
 567 -10 l 257
 556 -12 556 -12 538 -14.5 c 128
 520 -17 520 -17 483 -16 c 257
373 1247 m 257
 380 1289 380 1289 402.5 1337.5 c 128
 425 1386 425 1386 462 1425 c 128
 499 1464 499 1464 550.5 1487.5 c 128
 602 1511 602 1511 669 1504 c 257
 718 1499 718 1499 749.5 1484.5 c 128
 781 1470 781 1470 805.5 1455 c 128
 830 1440 830 1440 852.5 1430 c 128
 875 1420 875 1420 905 1424 c 257
 947 1429 947 1429 968 1453 c 128
 989 1477 989 1477 1002 1512 c 257
 1167 1502 l 257
 1156 1448 1156 1448 1133 1399 c 128
 1110 1350 1110 1350 1074 1313.5 c 128
 1038 1277 1038 1277 988.5 1257 c 128
 939 1237 939 1237 876 1240 c 257
 831 1242 831 1242 800 1256.5 c 128
 769 1271 769 1271 744.5 1286.5 c 128
 720 1302 720 1302 696 1313 c 128
 672 1324 672 1324 641 1320 c 257
 606 1315 606 1315 586.5 1292.5 c 128
 567 1270 567 1270 554 1240 c 257
 373 1247 l 257
EndSplineSet
EndChar
StartChar: ae
Encoding: 107 230 107
GlifName: ae
Width: 1700
VWidth: 0
Flags: W
LayerCount: 2
Fore
SplineSet
1314 1116 m 257
 1409 1111 1409 1111 1478.5 1084 c 128
 1548 1057 1548 1057 1595 1012.5 c 128
 1642 968 1642 968 1666.5 908.5 c 128
 1691 849 1691 849 1695.5 778.5 c 128
 1700 708 1700 708 1685.5 628.5 c 128
 1671 549 1671 549 1639 466 c 257
 985 466 l 257
 987 355 987 355 1040.5 284.5 c 128
 1094 214 1094 214 1201 200 c 257
 1235 195 1235 195 1268 201.5 c 128
 1301 208 1301 208 1333.5 221.5 c 128
 1366 235 1366 235 1397.5 253.5 c 128
 1429 272 1429 272 1460 292 c 257
 1589 157 l 257
 1544 108 1544 108 1496.5 73 c 128
 1449 38 1449 38 1394.5 17 c 128
 1340 -4 1340 -4 1277 -12.5 c 128
 1214 -21 1214 -21 1139 -17 c 257
 1103 -15 1103 -15 1064 -7.5 c 128
 1025 0 1025 0 988.5 12.5 c 128
 952 25 952 25 919 41 c 128
 886 57 886 57 862 75 c 257
 825 200 l 257
 788 100 l 257
 762 77 762 77 725 54.5 c 128
 688 32 688 32 643 14.5 c 128
 598 -3 598 -3 546.5 -12 c 128
 495 -21 495 -21 441 -17 c 257
 355 -11 355 -11 289.5 14.5 c 128
 224 40 224 40 181 85.5 c 128
 138 131 138 131 119 198.5 c 128
 100 266 100 266 107 358 c 257
 114 455 114 455 162 526 c 128
 210 597 210 597 280 642.5 c 128
 350 688 350 688 434 709 c 128
 518 730 518 730 599 726 c 257
 642 724 642 724 677 721.5 c 128
 712 719 712 719 740 714 c 257
 746 754 746 754 747 787.5 c 128
 748 821 748 821 739.5 845 c 128
 731 869 731 869 711.5 883.5 c 128
 692 898 692 898 657 900 c 257
 598 904 598 904 542.5 894.5 c 128
 487 885 487 885 442 872 c 257
 390 857 390 857 344 837 c 257
 273 1021 l 257
 335 1051 335 1051 405 1073 c 257
 465 1092 465 1092 542.5 1106.5 c 128
 620 1121 620 1121 704 1117 c 257
 819 1112 819 1112 888.5 1087 c 128
 958 1062 958 1062 999 1019 c 257
 1031 1040 1031 1040 1066.5 1059 c 128
 1102 1078 1102 1078 1141.5 1091.5 c 128
 1181 1105 1181 1105 1224 1112 c 128
 1267 1119 1267 1119 1314 1116 c 257
706 516 m 257
 683 519 683 519 656.5 521 c 128
 630 523 630 523 600 523 c 257
 553 523 553 523 513.5 513.5 c 128
 474 504 474 504 444.5 484 c 128
 415 464 415 464 397.5 433 c 128
 380 402 380 402 378 359 c 257
 374 290 374 290 403 247.5 c 128
 432 205 432 205 486 198 c 257
 524 193 524 193 556 207 c 128
 588 221 588 221 613 239 c 257
 641 260 641 260 666 289 c 257
 706 516 l 257
1145 671 m 257
 1428 671 l 257
 1431 711 1431 711 1428.5 750 c 128
 1426 789 1426 789 1411.5 820.5 c 128
 1397 852 1397 852 1368 874 c 128
 1339 896 1339 896 1291 903 c 257
 1249 909 1249 909 1214 897.5 c 128
 1179 886 1179 886 1151.5 864.5 c 128
 1124 843 1124 843 1105 814 c 128
 1086 785 1086 785 1078 756 c 257
 969 653 l 257
 1145 671 l 257
EndSplineSet
EndChar
StartChar: ccedilla
Encoding: 180 231 180
GlifName: ccedilla
Width: 1042
VWidth: 0
Flags: W
LayerCount: 2
Fore
SplineSet
924 814 m 257
 901 841 901 841 877 857 c 128
 853 873 853 873 829 882 c 128
 805 891 805 891 780 894.5 c 128
 755 898 755 898 731 900 c 257
 674 904 674 904 625.5 876.5 c 128
 577 849 577 849 541.5 802 c 128
 506 755 506 755 484.5 692.5 c 128
 463 630 463 630 459 563 c 257
 455 496 455 496 456 434 c 128
 457 372 457 372 472 323 c 128
 487 274 487 274 521.5 241.5 c 128
 556 209 556 209 618 200 c 257
 644 196 644 196 678 203 c 128
 712 210 712 210 746 223 c 128
 780 236 780 236 811.5 253.5 c 128
 843 271 843 271 865 288 c 257
 943 93 l 257
 907 67 907 67 863.5 45 c 128
 820 23 820 23 771.5 8 c 128
 723 -7 723 -7 671 -14.5 c 128
 619 -22 619 -22 567 -17 c 257
 434 -6 434 -6 348 44 c 128
 262 94 262 94 214 173 c 128
 166 252 166 252 151 355 c 128
 136 458 136 458 145 575 c 257
 153 684 153 684 201 785.5 c 128
 249 887 249 887 330 964 c 128
 411 1041 411 1041 522.5 1083.5 c 128
 634 1126 634 1126 771 1117 c 257
 825 1113 825 1113 871.5 1104 c 128
 918 1095 918 1095 958.5 1077.5 c 128
 999 1060 999 1060 1034.5 1031.5 c 128
 1070 1003 1070 1003 1101 961 c 257
 924 814 l 257
701 0 m 257
 723 -20 723 -20 739 -46 c 257
 753 -69 753 -69 763 -100 c 128
 773 -131 773 -131 769 -171 c 257
 763 -228 763 -228 732 -274 c 128
 701 -320 701 -320 654.5 -351 c 128
 608 -382 608 -382 552 -397 c 128
 496 -412 496 -412 440 -407 c 257
 381 -402 381 -402 325.5 -383.5 c 128
 270 -365 270 -365 227 -344 c 257
 176 -319 176 -319 132 -290 c 257
 274 -131 l 257
 303 -149 303 -149 332 -163 c 257
 356 -175 356 -175 383.5 -186 c 128
 411 -197 411 -197 433 -200 c 257
 464 -205 464 -205 487 -191 c 128
 510 -177 510 -177 507 -147 c 257
 505 -126 505 -126 496 -102.5 c 128
 487 -79 487 -79 476.5 -58 c 128
 466 -37 466 -37 455.5 -21.5 c 128
 445 -6 445 -6 439 0 c 257
 701 0 l 257
EndSplineSet
EndChar
StartChar: ecircumflex
Encoding: 233 234 233
GlifName: ecircumflex
Width: 1100
VWidth: 0
Flags: W
LayerCount: 2
Fore
SplineSet
1000 137 m 257
 962 100 962 100 919 70.5 c 128
 876 41 876 41 824 20.5 c 128
 772 0 772 0 710 -9.5 c 128
 648 -19 648 -19 573 -16 c 257
 433 -10 433 -10 342.5 39 c 128
 252 88 252 88 201.5 165.5 c 128
 151 243 151 243 136.5 342 c 128
 122 441 122 441 134 547 c 257
 142 614 142 614 163.5 684.5 c 128
 185 755 185 755 221 820 c 128
 257 885 257 885 308 941.5 c 128
 359 998 359 998 424.5 1039 c 128
 490 1080 490 1080 571 1101 c 128
 652 1122 652 1122 749 1116 c 257
 863 1109 863 1109 940.5 1065.5 c 128
 1018 1022 1018 1022 1061.5 955 c 128
 1105 888 1105 888 1116.5 804 c 128
 1128 720 1128 720 1110 632 c 257
 1103 600 1103 600 1090.5 570 c 128
 1078 540 1078 540 1065 517 c 257
 1050 490 1050 490 1034 466 c 257
 419 466 l 257
 412 404 412 404 425.5 354.5 c 128
 439 305 439 305 468.5 270.5 c 128
 498 236 498 236 540 218 c 128
 582 200 582 200 631 200 c 257
 674 200 674 200 709 209 c 128
 744 218 744 218 771.5 231.5 c 128
 799 245 799 245 820 260 c 128
 841 275 841 275 857 287 c 257
 1000 137 l 257
853 672 m 257
 871 713 871 713 869.5 753 c 128
 868 793 868 793 851 824.5 c 128
 834 856 834 856 801.5 876.5 c 128
 769 897 769 897 725 900 c 257
 678 903 678 903 643 891.5 c 128
 608 880 608 880 582 859 c 128
 556 838 556 838 538 811 c 128
 520 784 520 784 507 756 c 257
 398 653 l 257
 574 671 l 257
 853 672 l 257
1078 1220 m 257
 863 1220 l 257
 811 1323 l 257
 803 1450 l 257
 751 1323 l 257
 652 1220 l 257
 422 1220 l 257
 643 1495 l 257
 944 1524 l 257
 1078 1220 l 257
EndSplineSet
EndChar
StartChar: iacute
Encoding: 312 237 312
GlifName: iacute
Width: 600
VWidth: 0
Flags: W
LayerCount: 2
Fore
SplineSet
442 0 m 257
 136 0 l 257
 320 1049 l 257
 632 1081 l 257
 442 0 l 257
601 1533 m 257
 988 1565 l 257
 638 1237 l 257
 389 1237 l 257
 601 1533 l 257
EndSplineSet
EndChar
StartChar: icircumflex
Encoding: 314 238 314
GlifName: icircumflex
Width: 600
VWidth: 0
Flags: W
LayerCount: 2
Fore
SplineSet
442 0 m 257
 136 0 l 257
 320 1049 l 257
 632 1081 l 257
 442 0 l 257
855 1257 m 257
 640 1257 l 257
 588 1360 l 257
 580 1487 l 257
 528 1360 l 257
 429 1257 l 257
 199 1257 l 257
 420 1532 l 257
 721 1561 l 257
 855 1257 l 257
EndSplineSet
EndChar
StartChar: eth
Encoding: 256 240 256
GlifName: eth
Width: 1300
VWidth: 0
Flags: W
LayerCount: 2
Fore
SplineSet
554 1154 m 257
 785 1320 l 257
 637 1296 l 257
 597 1310 597 1310 560 1310 c 257
 533 1310 533 1310 507.5 1307.5 c 128
 482 1305 482 1305 459 1300 c 257
 459 1508 l 257
 492 1511 492 1511 514.5 1513 c 128
 537 1515 537 1515 552.5 1516 c 128
 568 1517 568 1517 578.5 1517 c 128
 589 1517 589 1517 598 1517 c 257
 698 1517 698 1517 782 1495 c 128
 866 1473 866 1473 934 1433 c 257
 1106 1561 l 257
 1216 1395 l 257
 1004 1239 l 257
 1119 1239 l 257
 1148 1174 1148 1174 1171 1100 c 128
 1194 1026 1194 1026 1207 946 c 128
 1220 866 1220 866 1222.5 781.5 c 128
 1225 697 1225 697 1214 612 c 257
 1205 546 1205 546 1184 471 c 128
 1163 396 1163 396 1127.5 322.5 c 128
 1092 249 1092 249 1041.5 182.5 c 128
 991 116 991 116 924.5 68 c 128
 858 20 858 20 773.5 -4 c 128
 689 -28 689 -28 586 -17 c 257
 469 -4 469 -4 389 36 c 128
 309 76 309 76 262.5 139.5 c 128
 216 203 216 203 200.5 287 c 128
 185 371 185 371 195 472 c 257
 206 585 206 585 244.5 674 c 128
 283 763 283 763 350 823.5 c 128
 417 884 417 884 512 913 c 128
 607 942 607 942 732 936 c 257
 780 934 780 934 827 928 c 128
 874 922 874 922 919 904 c 257
 920 929 920 929 916.5 958.5 c 128
 913 988 913 988 904.5 1018 c 128
 896 1048 896 1048 882 1076 c 128
 868 1104 868 1104 850 1126 c 257
 669 993 l 257
 554 1154 l 257
903 596 m 257
 889 616 889 616 871 634.5 c 128
 853 653 853 653 829.5 668 c 128
 806 683 806 683 775.5 694.5 c 128
 745 706 745 706 706 712 c 257
 657 719 657 719 618.5 703 c 128
 580 687 580 687 551.5 652 c 128
 523 617 523 617 504.5 566.5 c 128
 486 516 486 516 479 455 c 257
 474 413 474 413 478.5 371.5 c 128
 483 330 483 330 499.5 295.5 c 128
 516 261 516 261 546.5 237 c 128
 577 213 577 213 624 208 c 257
 664 203 664 203 701 220 c 128
 738 237 738 237 769 268 c 128
 800 299 800 299 823.5 340 c 128
 847 381 847 381 860 426 c 257
 877 469 877 469 886 510 c 128
 895 551 895 551 903 596 c 257
EndSplineSet
EndChar
StartChar: oslash
Encoding: 395 248 395
GlifName: oslash
Width: 1200
VWidth: 0
Flags: W
LayerCount: 2
Fore
SplineSet
308 -100 m 257
 58 -100 l 257
 1089 1209 l 257
 1329 1209 l 257
 308 -100 l 257
620 20 m 257
 501 30 501 30 415 73.5 c 128
 329 117 329 117 276 190 c 128
 223 263 223 263 202.5 364 c 128
 182 465 182 465 193 590 c 257
 204 713 204 713 257 820 c 128
 310 927 310 927 393.5 1005 c 128
 477 1083 477 1083 586.5 1123.5 c 128
 696 1164 696 1164 819 1154 c 257
 938 1144 938 1144 1024 1100.5 c 128
 1110 1057 1110 1057 1163.5 984.5 c 128
 1217 912 1217 912 1238 812.5 c 128
 1259 713 1259 713 1248 590 c 257
 1241 508 1241 508 1214 431.5 c 128
 1187 355 1187 355 1144.5 289.5 c 128
 1102 224 1102 224 1045.5 171 c 128
 989 118 989 118 921.5 82 c 128
 854 46 854 46 778 29.5 c 128
 702 13 702 13 620 20 c 257
931 565 m 257
 938 635 938 635 937.5 698.5 c 128
 937 762 937 762 921.5 811.5 c 128
 906 861 906 861 872 893.5 c 128
 838 926 838 926 777 934 c 257
 726 941 726 941 679.5 914.5 c 128
 633 888 633 888 597 840.5 c 128
 561 793 561 793 537.5 732 c 128
 514 671 514 671 509 608 c 257
 503 537 503 537 504.5 473.5 c 128
 506 410 506 410 521.5 360.5 c 128
 537 311 537 311 570.5 279 c 128
 604 247 604 247 661 240 c 257
 716 233 716 233 762.5 260 c 128
 809 287 809 287 844.5 334 c 128
 880 381 880 381 902.5 442 c 128
 925 503 925 503 931 565 c 257
EndSplineSet
EndChar
StartChar: OE
Encoding: 54 338 54
GlifName: O_E_
Width: 2000
VWidth: 0
Flags: W
LayerCount: 2
Fore
SplineSet
916 0 m 257
 938 70 l 257
 797 -17 l 257
 641 -17 641 -17 524 39.5 c 128
 407 96 407 96 332.5 197.5 c 128
 258 299 258 299 227 440 c 128
 196 581 196 581 212 750 c 257
 228 917 228 917 294 1061.5 c 128
 360 1206 360 1206 470 1311 c 128
 580 1416 580 1416 730.5 1472 c 128
 881 1528 881 1528 1066 1517 c 257
 1178 1430 l 257
 1180 1500 l 257
 2068 1500 l 257
 2028 1272 l 257
 1434 1272 l 257
 1424 1134 l 257
 1386 916 l 257
 1899 916 l 257
 1861 703 l 257
 1348 703 l 257
 1288 360 l 257
 1258 228 l 257
 1881 228 l 257
 1814 0 l 257
 916 0 l 257
828 221 m 257
 840 220 840 220 860.5 220.5 c 128
 881 221 881 221 903.5 223 c 128
 926 225 926 225 947 228 c 128
 968 231 968 231 981 234 c 257
 1162 1261 l 257
 1152 1265 1152 1265 1132 1268 c 128
 1112 1271 1112 1271 1088.5 1273 c 128
 1065 1275 1065 1275 1042.5 1276.5 c 128
 1020 1278 1020 1278 1004 1279 c 257
 904 1287 904 1287 825 1246.5 c 128
 746 1206 746 1206 689.5 1134.5 c 128
 633 1063 633 1063 598.5 971 c 128
 564 879 564 879 554 783 c 257
 542 677 542 677 546.5 579.5 c 128
 551 482 551 482 580 405.5 c 128
 609 329 609 329 669 280 c 128
 729 231 729 231 828 221 c 257
EndSplineSet
EndChar
StartChar: oe
Encoding: 377 339 377
GlifName: oe
Width: 1900
VWidth: 0
Flags: W
LayerCount: 2
Fore
SplineSet
923 571 m 257
 930 635 930 635 928 692 c 128
 926 749 926 749 910 793 c 128
 894 837 894 837 861.5 864.5 c 128
 829 892 829 892 775 897 c 257
 720 902 720 902 673.5 878.5 c 128
 627 855 627 855 591.5 810.5 c 128
 556 766 556 766 532 704.5 c 128
 508 643 508 643 498 571 c 257
 488 501 488 501 489.5 437.5 c 128
 491 374 491 374 508 324.5 c 128
 525 275 525 275 560 242.5 c 128
 595 210 595 210 652 203 c 257
 709 195 709 195 755 221.5 c 128
 801 248 801 248 835.5 298.5 c 128
 870 349 870 349 892 419.5 c 128
 914 490 914 490 923 571 c 257
923 82 m 257
 895 59 895 59 866 42.5 c 128
 837 26 837 26 803 14.5 c 128
 769 3 769 3 729 -4.5 c 128
 689 -12 689 -12 638 -16 c 257
 545 -24 545 -24 458.5 10 c 128
 372 44 372 44 309 117 c 128
 246 190 246 190 214 300 c 128
 182 410 182 410 198 553 c 257
 211 675 211 675 265.5 782 c 128
 320 889 320 889 404.5 966.5 c 128
 489 1044 489 1044 600 1085 c 128
 711 1126 711 1126 837 1116 c 257
 877 1113 877 1113 911.5 1105.5 c 128
 946 1098 946 1098 976 1087 c 128
 1006 1076 1006 1076 1034 1060.5 c 128
 1062 1045 1062 1045 1089 1026 c 257
 1144 905 l 257
 1244 1025 l 257
 1269 1043 1269 1043 1296 1060.5 c 128
 1323 1078 1323 1078 1353.5 1091 c 128
 1384 1104 1384 1104 1419 1111 c 128
 1454 1118 1454 1118 1497 1116 c 257
 1724 1106 1724 1106 1816.5 984 c 128
 1909 862 1909 862 1873 632 c 257
 1868 605 1868 605 1857 561 c 128
 1846 517 1846 517 1832 466 c 257
 1168 466 l 257
 1168 415 1168 415 1182.5 370 c 128
 1197 325 1197 325 1224.5 290 c 128
 1252 255 1252 255 1292 231.5 c 128
 1332 208 1332 208 1384 200 c 257
 1419 195 1419 195 1452.5 199.5 c 128
 1486 204 1486 204 1518 217 c 128
 1550 230 1550 230 1581 249 c 128
 1612 268 1612 268 1643 292 c 257
 1772 157 l 257
 1728 114 1728 114 1680.5 79 c 128
 1633 44 1633 44 1578.5 20.5 c 128
 1524 -3 1524 -3 1461 -13.5 c 128
 1398 -24 1398 -24 1322 -17 c 257
 1279 -13 1279 -13 1240 -2.5 c 128
 1201 8 1201 8 1168.5 22.5 c 128
 1136 37 1136 37 1112.5 53 c 128
 1089 69 1089 69 1078 83 c 257
 1020 203 l 257
 923 82 l 257
1328 671 m 257
 1611 671 l 257
 1613 712 1613 712 1609.5 750.5 c 128
 1606 789 1606 789 1592 820.5 c 128
 1578 852 1578 852 1549.5 874 c 128
 1521 896 1521 896 1474 903 c 257
 1432 909 1432 909 1398 898 c 128
 1364 887 1364 887 1337.5 865 c 128
 1311 843 1311 843 1292 814 c 128
 1273 785 1273 785 1261 756 c 257
 1152 653 l 257
 1328 671 l 257
EndSplineSet
EndChar
StartChar: scaron
Encoding: 465 353 465
GlifName: scaron
Width: 900
VWidth: 0
Flags: W
LayerCount: 2
Fore
SplineSet
834 822 m 257
 765 860 765 860 711 876 c 128
 657 892 657 892 617 900 c 257
 587 906 587 906 562.5 902 c 128
 538 898 538 898 520 886.5 c 128
 502 875 502 875 493 858.5 c 128
 484 842 484 842 486 822 c 257
 489 787 489 787 521 762 c 128
 553 737 553 737 599.5 713 c 128
 646 689 646 689 699 662 c 128
 752 635 752 635 798 596 c 128
 844 557 844 557 874.5 501 c 128
 905 445 905 445 907 364 c 257
 908 298 908 298 887 242.5 c 128
 866 187 866 187 828.5 142.5 c 128
 791 98 791 98 740.5 65 c 128
 690 32 690 32 631.5 11.5 c 128
 573 -9 573 -9 510 -16.5 c 128
 447 -24 447 -24 386 -17 c 257
 348 -13 348 -13 299.5 -3 c 128
 251 7 251 7 201 22 c 128
 151 37 151 37 105 55.5 c 128
 59 74 59 74 28 96 c 257
 162 286 l 257
 228 249 228 249 295.5 225.5 c 128
 363 202 363 202 435 200 c 257
 468 199 468 199 499 206.5 c 128
 530 214 530 214 553.5 231 c 128
 577 248 577 248 591 274 c 128
 605 300 605 300 604 336 c 257
 603 372 603 372 584 399.5 c 128
 565 427 565 427 535 450.5 c 128
 505 474 505 474 467.5 495 c 128
 430 516 430 516 391 538 c 128
 352 560 352 560 315.5 585.5 c 128
 279 611 279 611 251 643.5 c 128
 223 676 223 676 207.5 717.5 c 128
 192 759 192 759 196 813 c 257
 202 900 202 900 241 961 c 128
 280 1022 280 1022 343 1059 c 128
 406 1096 406 1096 487.5 1110 c 128
 569 1124 569 1124 658 1117 c 257
 702 1113 702 1113 745 1103.5 c 128
 788 1094 788 1094 827 1080.5 c 128
 866 1067 866 1067 900 1051.5 c 128
 934 1036 934 1036 959 1021 c 257
 834 822 l 257
825 1215 m 257
 534 1244 l 257
 409 1519 l 257
 639 1519 l 257
 698 1426 l 257
 712 1299 l 257
 768 1426 l 257
 860 1519 l 257
 1065 1519 l 257
 825 1215 l 257
EndSplineSet
EndChar
StartChar: Ydieresis
Encoding: 98 376 98
GlifName: Y_dieresis
Width: 1200
VWidth: 0
Flags: W
LayerCount: 2
Fore
SplineSet
711 1143 m 257
 753 773 l 257
 876 1143 l 257
 1121 1500 l 257
 1451 1500 l 257
 868 650 l 257
 754 0 l 257
 418 0 l 257
 532 650 l 257
 252 1492 l 257
 586 1525 l 257
 711 1143 l 257
531 1634 m 257
 807 1634 l 257
 854 1900 l 257
 578 1900 l 257
 531 1634 l 257
931 1634 m 257
 1207 1634 l 257
 1254 1900 l 257
 978 1900 l 257
 931 1634 l 257
EndSplineSet
EndChar
StartChar: florin
Encoding: 279 402 279
GlifName: florin
Width: 1400
VWidth: 0
Flags: W
LayerCount: 2
Fore
SplineSet
1400 1263 m 257
 1381 1275 1381 1275 1367 1284 c 128
 1353 1293 1353 1293 1340.5 1298 c 128
 1328 1303 1328 1303 1315.5 1303.5 c 128
 1303 1304 1303 1304 1287 1300 c 257
 1261 1293 1261 1293 1236 1266 c 128
 1211 1239 1211 1239 1181 1185.5 c 128
 1151 1132 1151 1132 1113.5 1049 c 128
 1076 966 1076 966 1026 846 c 257
 1302 846 l 257
 1208 631 l 257
 1012 631 l 257
 961 725 l 257
 626 -85 l 257
 592 -168 592 -168 558.5 -235.5 c 128
 525 -303 525 -303 477.5 -349 c 128
 430 -395 430 -395 361.5 -417 c 128
 293 -439 293 -439 190 -431 c 257
 140 -427 140 -427 100 -421.5 c 128
 60 -416 60 -416 26.5 -407.5 c 128
 -7 -399 -7 -399 -37 -388 c 128
 -67 -377 -67 -377 -96 -362 c 257
 66 -157 l 257
 103 -180 103 -180 135 -190.5 c 128
 167 -201 167 -201 193 -196 c 257
 212 -192 212 -192 229 -175 c 128
 246 -158 246 -158 260.5 -135 c 128
 275 -112 275 -112 286.5 -87 c 128
 298 -62 298 -62 307 -42 c 257
 594 628 l 257
 371 628 l 257
 467 846 l 257
 617 846 l 257
 660 777 l 257
 720 918 720 918 767.5 1029 c 128
 815 1140 815 1140 858.5 1223.5 c 128
 902 1307 902 1307 943.5 1365 c 128
 985 1423 985 1423 1033.5 1458 c 128
 1082 1493 1082 1493 1139.5 1507 c 128
 1197 1521 1197 1521 1272 1517 c 257
 1323 1514 1323 1514 1359 1508.5 c 128
 1395 1503 1395 1503 1423 1494 c 128
 1451 1485 1451 1485 1475.5 1473.5 c 128
 1500 1462 1500 1462 1529 1447 c 257
 1400 1263 l 257
EndSplineSet
EndChar
StartChar: circumflex
Encoding: 194 710 194
GlifName: circumflex
Width: 1100
VWidth: 0
Flags: W
LayerCount: 2
Fore
SplineSet
1030 1220 m 257
 815 1220 l 257
 763 1323 l 257
 755 1450 l 257
 703 1323 l 257
 604 1220 l 257
 374 1220 l 257
 595 1495 l 257
 896 1524 l 257
 1030 1220 l 257
EndSplineSet
EndChar
StartChar: ogonek
Encoding: 378 731 378
GlifName: ogonek
Width: 1100
VWidth: 0
Flags: W
LayerCount: 2
Fore
SplineSet
600 0 m 257
 594 -6 594 -6 583.5 -21.5 c 128
 573 -37 573 -37 562.5 -58 c 128
 552 -79 552 -79 543 -102.5 c 128
 534 -126 534 -126 532 -147 c 257
 529 -177 529 -177 552 -191 c 128
 575 -205 575 -205 606 -200 c 257
 628 -197 628 -197 655 -186 c 128
 682 -175 682 -175 707 -163 c 257
 735 -149 735 -149 765 -131 c 257
 907 -290 l 257
 861 -319 861 -319 811 -344 c 257
 767 -365 767 -365 712.5 -383.5 c 128
 658 -402 658 -402 599 -407 c 257
 543 -412 543 -412 487 -397 c 128
 431 -382 431 -382 384.5 -351 c 128
 338 -320 338 -320 307 -274 c 128
 276 -228 276 -228 270 -171 c 257
 266 -131 266 -131 276 -100 c 128
 286 -69 286 -69 300 -46 c 257
 316 -20 316 -20 338 0 c 257
 600 0 l 257
EndSplineSet
EndChar
StartChar: Beta
Encoding: 11 914 11
GlifName: B_eta
Width: 1300
VWidth: 0
Flags: W
LayerCount: 2
Fore
SplineSet
671 1130 m 257
 630 900 l 257
 659 900 l 257
 715 900 715 900 767.5 910.5 c 128
 820 921 820 921 862 947.5 c 128
 904 974 904 974 931.5 1018 c 128
 959 1062 959 1062 965 1128 c 257
 970 1178 970 1178 952.5 1212 c 128
 935 1246 935 1246 904 1266.5 c 128
 873 1287 873 1287 832.5 1296 c 128
 792 1305 792 1305 751 1305 c 257
 737 1305 737 1305 718.5 1304 c 128
 700 1303 700 1303 685 1301 c 257
 671 1130 l 257
136 0 m 257
 358 1262 l 257
 365 1481 l 257
 408 1487 408 1487 457.5 1492 c 128
 507 1497 507 1497 556 1500.5 c 128
 605 1504 605 1504 649 1506 c 128
 693 1508 693 1508 726 1509 c 257
 838 1512 838 1512 941 1495 c 128
 1044 1478 1044 1478 1121.5 1435.5 c 128
 1199 1393 1199 1393 1241 1322.5 c 128
 1283 1252 1283 1252 1273 1148 c 257
 1267 1084 1267 1084 1242.5 1032.5 c 128
 1218 981 1218 981 1182 941.5 c 128
 1146 902 1146 902 1101 873 c 128
 1056 844 1056 844 1008 826 c 257
 1061 806 1061 806 1108.5 773.5 c 128
 1156 741 1156 741 1190 697 c 128
 1224 653 1224 653 1240.5 597.5 c 128
 1257 542 1257 542 1248 475 c 257
 1231 342 1231 342 1169.5 251.5 c 128
 1108 161 1108 161 1017.5 105 c 128
 927 49 927 49 815.5 24.5 c 128
 704 0 704 0 586 0 c 257
 136 0 l 257
512 228 m 257
 569 228 l 257
 656 228 656 228 719.5 240 c 128
 783 252 783 252 826 279.5 c 128
 869 307 869 307 893.5 352.5 c 128
 918 398 918 398 926 465 c 257
 933 527 933 527 917.5 570.5 c 128
 902 614 902 614 869 641 c 128
 836 668 836 668 789.5 680.5 c 128
 743 693 743 693 689 693 c 257
 594 693 l 257
 512 228 l 257
EndSplineSet
EndChar
StartChar: Zeta
Encoding: 100 918 100
GlifName: Z_eta
Width: 1200
VWidth: 0
Flags: W
LayerCount: 2
Fore
SplineSet
1160 228 m 257
 1147 0 l 257
 39 0 l 257
 20 86 l 257
 840 1187 l 257
 1039 1310 l 257
 822 1272 l 257
 319 1272 l 257
 332 1500 l 257
 1350 1500 l 257
 1381 1441 l 257
 549 314 l 257
 332 190 l 257
 553 228 l 257
 1160 228 l 257
EndSplineSet
EndChar
StartChar: Theta
Encoding: 80 920 80
GlifName: T_heta
Width: 1600
VWidth: 0
Flags: W
LayerCount: 2
Fore
SplineSet
698 900 m 257
 1238 900 l 257
 1176 662 l 257
 636 662 l 257
 698 900 l 257
797 21 m 257
 644 27 644 27 529 84.5 c 128
 414 142 414 142 341 242 c 128
 268 342 268 342 239 480.5 c 128
 210 619 210 619 229 788 c 257
 241 899 241 899 277 1001 c 128
 313 1103 313 1103 369 1191 c 128
 425 1279 425 1279 499 1349.5 c 128
 573 1420 573 1420 662 1468.5 c 128
 751 1517 751 1517 853 1540 c 128
 955 1563 955 1563 1067 1555 c 257
 1226 1544 1226 1544 1341 1487.5 c 128
 1456 1431 1456 1431 1527 1333 c 128
 1598 1235 1598 1235 1625 1097.5 c 128
 1652 960 1652 960 1634 788 c 257
 1616 619 1616 619 1547.5 475.5 c 128
 1479 332 1479 332 1369.5 228.5 c 128
 1260 125 1260 125 1114.5 69.5 c 128
 969 14 969 14 797 21 c 257
1295 759 m 257
 1304 868 1304 868 1300 963.5 c 128
 1296 1059 1296 1059 1267 1132.5 c 128
 1238 1206 1238 1206 1178.5 1252 c 128
 1119 1298 1119 1298 1017 1307 c 257
 923 1315 923 1315 845 1276 c 128
 767 1237 767 1237 709.5 1167.5 c 128
 652 1098 652 1098 616 1007 c 128
 580 916 580 916 569 821 c 257
 557 715 557 715 561 620 c 128
 565 525 565 525 594.5 451.5 c 128
 624 378 624 378 684 330 c 128
 744 282 744 282 845 269 c 257
 907 261 907 261 962.5 277 c 128
 1018 293 1018 293 1066.5 326 c 128
 1115 359 1115 359 1154.5 407.5 c 128
 1194 456 1194 456 1223.5 513 c 128
 1253 570 1253 570 1271.5 633 c 128
 1290 696 1290 696 1295 759 c 257
EndSplineSet
EndChar
StartChar: Lambda
Encoding: 45 923 45
GlifName: L_ambda
Width: 1300
VWidth: 0
Flags: W
LayerCount: 2
Fore
SplineSet
-4 1 m 257
 618 1267 l 257
 698 1500 l 257
 1063 1526 l 257
 1290 0 l 257
 961 0 l 257
 857 801 l 257
 840 1241 l 257
 694 801 l 257
 305 1 l 257
 -4 1 l 257
EndSplineSet
EndChar
StartChar: Tau
Encoding: 78 932 78
GlifName: T_au
Width: 1200
VWidth: 0
Flags: W
LayerCount: 2
Fore
SplineSet
424 0 m 257
 648 1272 l 257
 254 1272 l 257
 294 1500 l 257
 1414 1500 l 257
 1374 1272 l 257
 984 1272 l 257
 760 0 l 257
 424 0 l 257
EndSplineSet
EndChar
StartChar: Psi
Encoding: 67 936 67
GlifName: P_si
Width: 1400
VWidth: 0
Flags: W
LayerCount: 2
Fore
SplineSet
1116 1527 m 257
 963 662 l 257
 996 669 996 669 1025 682.5 c 128
 1054 696 1054 696 1077.5 718 c 128
 1101 740 1101 740 1118 772 c 128
 1135 804 1135 804 1143 849 c 257
 1258 1500 l 257
 1591 1500 l 257
 1479 867 l 257
 1449 729 1449 729 1397 645.5 c 128
 1345 562 1345 562 1274 515 c 128
 1203 468 1203 468 1114 449 c 128
 1025 430 1025 430 921 422 c 257
 847 1 l 257
 515 1 l 257
 589 422 l 257
 509 438 509 438 434.5 475 c 128
 360 512 360 512 304 572.5 c 128
 248 633 248 633 217.5 718 c 128
 187 803 187 803 195 914 c 257
 256 1263 l 257
 264 1494 l 257
 637 1526 l 257
 525 896 l 257
 517 847 517 847 522 810.5 c 128
 527 774 527 774 542 747 c 128
 557 720 557 720 580.5 702 c 128
 604 684 604 684 633 673 c 257
 778 1493 l 257
 1116 1527 l 257
EndSplineSet
EndChar
StartChar: delta
Encoding: 220 948 220
GlifName: delta
Width: 1200
VWidth: 0
Flags: W
LayerCount: 2
Fore
SplineSet
612 183 m 257
 655 179 655 179 698 201.5 c 128
 741 224 741 224 777.5 269 c 128
 814 314 814 314 840 379.5 c 128
 866 445 866 445 875 528 c 257
 881 582 881 582 878 638 c 128
 875 694 875 694 859 740.5 c 128
 843 787 843 787 812.5 819 c 128
 782 851 782 851 734 859 c 257
 686 866 686 866 640.5 845.5 c 128
 595 825 595 825 559 781.5 c 128
 523 738 523 738 499 673.5 c 128
 475 609 475 609 469 528 c 257
 464 457 464 457 468.5 395.5 c 128
 473 334 473 334 490 288 c 128
 507 242 507 242 537 214.5 c 128
 567 187 567 187 612 183 c 257
1263 1500 m 257
 1169 1300 l 257
 756 1300 l 257
 724 1300 724 1300 701.5 1289.5 c 128
 679 1279 679 1279 674 1253 c 257
 671 1236 671 1236 696 1221 c 128
 721 1206 721 1206 759 1189 c 128
 797 1172 797 1172 842 1152 c 128
 887 1132 887 1132 925 1107 c 257
 1003 1055 1003 1055 1059.5 996.5 c 128
 1116 938 1116 938 1150.5 867.5 c 128
 1185 797 1185 797 1198.5 713.5 c 128
 1212 630 1212 630 1203 528 c 257
 1196 446 1196 446 1167.5 371.5 c 128
 1139 297 1139 297 1094 234.5 c 128
 1049 172 1049 172 990.5 122 c 128
 932 72 932 72 865 38.5 c 128
 798 5 798 5 725.5 -9.5 c 128
 653 -24 653 -24 581 -17 c 257
 461 -5 461 -5 376 44.5 c 128
 291 94 291 94 238 169.5 c 128
 185 245 185 245 164.5 340.5 c 128
 144 436 144 436 153 540 c 257
 159 607 159 607 182 678 c 128
 205 749 205 749 251.5 813.5 c 128
 298 878 298 878 370 931 c 128
 442 984 442 984 547 1015 c 257
 728 1015 l 257
 553 1092 553 1092 471.5 1160 c 128
 390 1228 390 1228 394 1286 c 257
 399 1362 399 1362 438.5 1405 c 128
 478 1448 478 1448 538.5 1469 c 128
 599 1490 599 1490 674.5 1495 c 128
 750 1500 750 1500 828 1500 c 257
 1263 1500 l 257
EndSplineSet
EndChar
StartChar: epsilon
Encoding: 248 949 248
GlifName: epsilon
Width: 1000
VWidth: 0
Flags: W
LayerCount: 2
Fore
SplineSet
845 665 m 257
 781 466 l 257
 512 466 l 257
 489 466 489 466 469 455.5 c 128
 449 445 449 445 432.5 426.5 c 128
 416 408 416 408 404.5 382.5 c 128
 393 357 393 357 388 328 c 257
 383 300 383 300 391 274 c 128
 399 248 399 248 417 228 c 128
 435 208 435 208 463 196 c 128
 491 184 491 184 527 184 c 257
 569 184 569 184 615 197 c 128
 661 210 661 210 699 226 c 257
 744 244 744 244 787 268 c 257
 902 131 l 257
 858 93 858 93 794 61 c 257
 739 34 739 34 655 10.5 c 128
 571 -13 571 -13 454 -17 c 257
 377 -20 377 -20 306.5 1 c 128
 236 22 236 22 183.5 66 c 128
 131 110 131 110 101 176 c 128
 71 242 71 242 76 329 c 257
 78 365 78 365 91 397 c 128
 104 429 104 429 124.5 458.5 c 128
 145 488 145 488 172 513.5 c 128
 199 539 199 539 229 562 c 257
 184 607 184 607 168.5 663.5 c 128
 153 720 153 720 157 792 c 257
 161 884 161 884 206.5 947.5 c 128
 252 1011 252 1011 321.5 1050 c 128
 391 1089 391 1089 478 1105 c 128
 565 1121 565 1121 653 1117 c 257
 713 1114 713 1114 771.5 1102.5 c 128
 830 1091 830 1091 877 1077 c 257
 932 1061 932 1061 981 1042 c 257
 883 894 l 257
 848 900 848 900 810 905 c 257
 778 910 778 910 737.5 913.5 c 128
 697 917 697 917 656 917 c 257
 617 917 617 917 584 904 c 128
 551 891 551 891 526.5 871 c 128
 502 851 502 851 486.5 825.5 c 128
 471 800 471 800 467 775 c 257
 463 752 463 752 468 732 c 128
 473 712 473 712 484 697 c 128
 495 682 495 682 511 673.5 c 128
 527 665 527 665 547 665 c 257
 845 665 l 257
EndSplineSet
EndChar
StartChar: zeta
Encoding: 590 950 590
GlifName: zeta
Width: 1000
VWidth: 0
Flags: W
LayerCount: 2
Fore
SplineSet
954 1500 m 257
 930 1308 l 257
 874 1261 874 1261 809.5 1203.5 c 128
 745 1146 745 1146 681 1081 c 128
 617 1016 617 1016 557.5 946 c 128
 498 876 498 876 452.5 804 c 128
 407 732 407 732 380 659.5 c 128
 353 587 353 587 353 519 c 257
 353 428 353 428 398 357 c 128
 443 286 443 286 541 223 c 257
 583 196 583 196 627.5 171.5 c 128
 672 147 672 147 715 121 c 128
 758 95 758 95 796.5 66.5 c 128
 835 38 835 38 864 4 c 128
 893 -30 893 -30 910 -71 c 128
 927 -112 927 -112 927 -162 c 257
 927 -212 927 -212 899.5 -261.5 c 128
 872 -311 872 -311 825 -356.5 c 128
 778 -402 778 -402 713.5 -443 c 128
 649 -484 649 -484 576 -517 c 257
 442 -324 l 257
 473 -308 473 -308 501 -290.5 c 128
 529 -273 529 -273 550 -254.5 c 128
 571 -236 571 -236 583.5 -217.5 c 128
 596 -199 596 -199 596 -180 c 257
 596 -138 596 -138 568.5 -105.5 c 128
 541 -73 541 -73 502.5 -47.5 c 128
 464 -22 464 -22 422.5 -2.5 c 128
 381 17 381 17 353 33 c 257
 204 118 204 118 127 229.5 c 128
 50 341 50 341 50 496 c 257
 50 568 50 568 67 638.5 c 128
 84 709 84 709 112.5 776 c 128
 141 843 141 843 177.5 905 c 128
 214 967 214 967 253.5 1021.5 c 128
 293 1076 293 1076 332 1122 c 128
 371 1168 371 1168 404 1202 c 257
 620 1318 l 257
 379 1300 l 257
 107 1300 l 257
 134 1500 l 257
 954 1500 l 257
EndSplineSet
EndChar
StartChar: theta
Encoding: 517 952 517
GlifName: theta
Width: 1200
VWidth: 0
Flags: W
LayerCount: 2
Fore
SplineSet
596 -17 m 257
 496 -8 496 -8 426 27.5 c 128
 356 63 356 63 309.5 118.5 c 128
 263 174 263 174 237 246 c 128
 211 318 211 318 200.5 399.5 c 128
 190 481 190 481 192 569.5 c 128
 194 658 194 658 202 746 c 257
 210 833 210 833 235.5 927 c 128
 261 1021 261 1021 302 1111 c 128
 343 1201 343 1201 399.5 1280 c 128
 456 1359 456 1359 527 1416 c 128
 598 1473 598 1473 683 1501 c 128
 768 1529 768 1529 866 1517 c 257
 965 1505 965 1505 1035 1467 c 128
 1105 1429 1105 1429 1151 1372.5 c 128
 1197 1316 1197 1316 1222.5 1243.5 c 128
 1248 1171 1248 1171 1258 1089.5 c 128
 1268 1008 1268 1008 1266.5 920.5 c 128
 1265 833 1265 833 1257 746 c 257
 1249 659 1249 659 1225 566.5 c 128
 1201 474 1201 474 1161 386.5 c 128
 1121 299 1121 299 1065.5 221.5 c 128
 1010 144 1010 144 939.5 88 c 128
 869 32 869 32 783 3 c 128
 697 -26 697 -26 596 -17 c 257
976 845 m 257
 983 918 983 918 980 993 c 128
 977 1068 977 1068 959.5 1130 c 128
 942 1192 942 1192 909.5 1235.5 c 128
 877 1279 877 1279 826 1290 c 257
 791 1297 791 1297 756.5 1281.5 c 128
 722 1266 722 1266 690 1233.5 c 128
 658 1201 658 1201 630 1156 c 128
 602 1111 602 1111 579.5 1059 c 128
 557 1007 557 1007 541 951.5 c 128
 525 896 525 896 518 845 c 257
 976 845 l 257
484 651 m 257
 478 578 478 578 481 503 c 128
 484 428 484 428 501.5 366 c 128
 519 304 519 304 551.5 261 c 128
 584 218 584 218 636 210 c 257
 683 202 683 202 730.5 235 c 128
 778 268 778 268 819.5 329 c 128
 861 390 861 390 892.5 473.5 c 128
 924 557 924 557 939 651 c 257
 484 651 l 257
EndSplineSet
EndChar
StartChar: mugreek
Encoding: 355 956 355
GlifName: mugreek
Width: 1200
VWidth: 0
Flags: W
LayerCount: 2
Fore
SplineSet
704 27 m 257
 655 -9 655 -9 606 -19 c 128
 557 -29 557 -29 512 -22.5 c 128
 467 -16 467 -16 426.5 2 c 128
 386 20 386 20 353 40 c 257
 381 -166 l 257
 322 -500 l 257
 24 -500 l 257
 305 1093 l 257
 609 1125 l 257
 471 345 l 257
 466 318 466 318 473.5 289.5 c 128
 481 261 481 261 497 238 c 128
 513 215 513 215 536.5 199.5 c 128
 560 184 560 184 587 183 c 257
 629 181 629 181 669 194.5 c 128
 709 208 709 208 744 251 c 257
 892 1093 l 257
 1196 1125 l 257
 998 0 l 257
 700 0 l 257
 704 27 l 257
EndSplineSet
EndChar
StartChar: sigma1
Encoding: 479 962 479
GlifName: sigma1
Width: 1000
VWidth: 0
Flags: W
LayerCount: 2
Fore
SplineSet
1030 900 m 257
 960 700 l 257
 900 705 900 705 839.5 704 c 128
 779 703 779 703 723.5 694 c 128
 668 685 668 685 619 667 c 128
 570 649 570 649 533.5 620 c 128
 497 591 497 591 475 550 c 128
 453 509 453 509 451 454 c 257
 450 425 450 425 454.5 395 c 128
 459 365 459 365 480 332 c 128
 501 299 501 299 544 260.5 c 128
 587 222 587 222 664 176 c 257
 717 143 717 143 760 111 c 128
 803 79 803 79 833 40 c 128
 863 1 863 1 880 -48 c 128
 897 -97 897 -97 898 -162 c 257
 899 -214 899 -214 868.5 -264.5 c 128
 838 -315 838 -315 782.5 -361.5 c 128
 727 -408 727 -408 651 -447.5 c 128
 575 -487 575 -487 484 -517 c 257
 383 -324 l 257
 475 -292 475 -292 524 -255 c 128
 573 -218 573 -218 576 -180 c 257
 579 -140 579 -140 559 -109.5 c 128
 539 -79 539 -79 508 -54 c 128
 477 -29 477 -29 440 -8 c 128
 403 13 403 13 372 33 c 257
 328 61 328 61 284.5 102 c 128
 241 143 241 143 207.5 195 c 128
 174 247 174 247 155.5 310 c 128
 137 373 137 373 142 445 c 257
 146 504 146 504 160.5 559.5 c 128
 175 615 175 615 205.5 664 c 128
 236 713 236 713 285.5 754.5 c 128
 335 796 335 796 409.5 827 c 128
 484 858 484 858 587 877 c 128
 690 896 690 896 828 900 c 257
 1030 900 l 257
EndSplineSet
EndChar
StartChar: sigma
Encoding: 478 963 478
GlifName: sigma
Width: 1300
VWidth: 0
Flags: W
LayerCount: 2
Fore
SplineSet
151 551 m 257
 161 664 161 664 201 766.5 c 128
 241 869 241 869 316 947 c 128
 391 1025 391 1025 505 1071 c 128
 619 1117 619 1117 777 1117 c 257
 1398 1117 l 257
 1363 917 l 257
 1190 917 l 257
 1052 939 l 257
 1204 800 l 257
 1211 766 1211 766 1214.5 737.5 c 128
 1218 709 1218 709 1218 680.5 c 128
 1218 652 1218 652 1214.5 621 c 128
 1211 590 1211 590 1206 551 c 257
 1186 404 1186 404 1131.5 294.5 c 128
 1077 185 1077 185 995 113 c 128
 913 41 913 41 807 8 c 128
 701 -25 701 -25 578 -17 c 257
 444 -9 444 -9 357 40.5 c 128
 270 90 270 90 221 167.5 c 128
 172 245 172 245 156.5 344 c 128
 141 443 141 443 151 551 c 257
445 551 m 257
 444 485 444 485 448 422.5 c 128
 452 360 452 360 469.5 309.5 c 128
 487 259 487 259 520.5 225.5 c 128
 554 192 554 192 613 183 c 257
 671 174 671 174 723 204 c 128
 775 234 775 234 815.5 287 c 128
 856 340 856 340 881 410 c 128
 906 480 906 480 911 551 c 257
 915 618 915 618 911 680 c 128
 907 742 907 742 889 791.5 c 128
 871 841 871 841 836 874.5 c 128
 801 908 801 908 742 917 c 257
 678 927 678 927 624 895.5 c 128
 570 864 570 864 530.5 809.5 c 128
 491 755 491 755 468.5 686 c 128
 446 617 446 617 445 551 c 257
EndSplineSet
EndChar
StartChar: upsilon
Encoding: 553 965 553
GlifName: upsilon
Width: 1200
VWidth: 0
Flags: W
LayerCount: 2
Fore
SplineSet
552 501 m 257
 546 476 546 476 540.5 444 c 128
 535 412 535 412 533.5 378.5 c 128
 532 345 532 345 536 312 c 128
 540 279 540 279 553 252 c 128
 566 225 566 225 590.5 206.5 c 128
 615 188 615 188 655 183 c 257
 708 176 708 176 744 202.5 c 128
 780 229 780 229 804.5 275.5 c 128
 829 322 829 322 843.5 381.5 c 128
 858 441 858 441 869 501 c 257
 907 720 l 257
 914 771 914 771 901 811.5 c 128
 888 852 888 852 865 880.5 c 128
 842 909 842 909 814.5 924 c 128
 787 939 787 939 765 939 c 257
 796 1117 l 257
 869 1117 869 1117 934 1106 c 128
 999 1095 999 1095 1051.5 1068 c 128
 1104 1041 1104 1041 1142 996 c 128
 1180 951 1180 951 1198.5 882 c 128
 1217 813 1217 813 1214 718.5 c 128
 1211 624 1211 624 1181 499 c 257
 1168 446 1168 446 1153 384.5 c 128
 1138 323 1138 323 1113.5 262 c 128
 1089 201 1089 201 1051 145.5 c 128
 1013 90 1013 90 955 50 c 128
 897 10 897 10 815 -9 c 128
 733 -28 733 -28 620 -17 c 257
 507 -6 507 -6 433 25 c 128
 359 56 359 56 314.5 99 c 128
 270 142 270 142 250 194 c 128
 230 246 230 246 225.5 299.5 c 128
 221 353 221 353 227 405 c 128
 233 457 233 457 240 499 c 257
 298 825 l 257
 305 863 305 863 306.5 885.5 c 128
 308 908 308 908 295 908 c 257
 289 908 289 908 283.5 903.5 c 128
 278 899 278 899 273.5 887 c 128
 269 875 269 875 264.5 854 c 128
 260 833 260 833 254 800 c 257
 24 800 l 257
 37 951 37 951 119.5 1034 c 128
 202 1117 202 1117 349 1117 c 257
 421 1117 421 1117 470.5 1093.5 c 128
 520 1070 520 1070 551 1029.5 c 128
 582 989 582 989 595.5 936 c 128
 609 883 609 883 609 825 c 257
 552 501 l 257
EndSplineSet
EndChar
StartChar: phi
Encoding: 417 966 417
GlifName: phi
Width: 1500
VWidth: 0
Flags: W
LayerCount: 2
Fore
SplineSet
1078 1126 m 257
 1057 1005 l 257
 1103 999 1103 999 1150 979 c 128
 1197 959 1197 959 1240.5 927 c 128
 1284 895 1284 895 1321.5 851.5 c 128
 1359 808 1359 808 1385 754.5 c 128
 1411 701 1411 701 1423 637.5 c 128
 1435 574 1435 574 1428 503 c 257
 1417 389 1417 389 1367 301 c 128
 1317 213 1317 213 1241.5 150 c 128
 1166 87 1166 87 1072.5 50 c 128
 979 13 979 13 880 2 c 257
 791 -500 l 257
 473 -500 l 257
 562 2 l 257
 490 15 490 15 420.5 56 c 128
 351 97 351 97 298 162 c 128
 245 227 245 227 215.5 313 c 128
 186 399 186 399 193 503 c 257
 200 606 200 606 246 693 c 128
 292 780 292 780 365.5 845.5 c 128
 439 911 439 911 535 952 c 128
 631 993 631 993 739 1005 c 257
 754 1093 l 257
 1078 1126 l 257
1150 503 m 257
 1159 556 1159 556 1152 601 c 128
 1145 646 1145 646 1125.5 681.5 c 128
 1106 717 1106 717 1078 742.5 c 128
 1050 768 1050 768 1017 782 c 257
 919 223 l 257
 956 238 956 238 993.5 264 c 128
 1031 290 1031 290 1062.5 325.5 c 128
 1094 361 1094 361 1117.5 405.5 c 128
 1141 450 1141 450 1150 503 c 257
469 503 m 257
 460 450 460 450 467.5 405.5 c 128
 475 361 475 361 494 326 c 128
 513 291 513 291 541 265 c 128
 569 239 569 239 601 224 c 257
 699 781 l 257
 661 766 661 766 624 740.5 c 128
 587 715 587 715 555.5 680 c 128
 524 645 524 645 501 600.5 c 128
 478 556 478 556 469 503 c 257
EndSplineSet
EndChar
StartChar: omega
Encoding: 380 969 380
GlifName: omega
Width: 1600
VWidth: 0
Flags: W
LayerCount: 2
Fore
SplineSet
1043 744 m 257
 997 487 l 257
 987 428 987 428 986 375.5 c 128
 985 323 985 323 994.5 282.5 c 128
 1004 242 1004 242 1025 215.5 c 128
 1046 189 1046 189 1081 183 c 257
 1118 176 1118 176 1147.5 202.5 c 128
 1177 229 1177 229 1201 278 c 128
 1225 327 1225 327 1242.5 393 c 128
 1260 459 1260 459 1273 531 c 257
 1294 649 1294 649 1285.5 728 c 128
 1277 807 1277 807 1254 853.5 c 128
 1231 900 1231 900 1201.5 919.5 c 128
 1172 939 1172 939 1150 939 c 257
 1181 1117 l 257
 1275 1117 1275 1117 1353.5 1072.5 c 128
 1432 1028 1432 1028 1486.5 951.5 c 128
 1541 875 1541 875 1567 774 c 128
 1593 673 1593 673 1582 559 c 257
 1576 504 1576 504 1566 438 c 128
 1556 372 1556 372 1534 306 c 128
 1512 240 1512 240 1475.5 179 c 128
 1439 118 1439 118 1381.5 72.5 c 128
 1324 27 1324 27 1241.5 2 c 128
 1159 -23 1159 -23 1046 -17 c 257
 946 -12 946 -12 882 8 c 128
 818 28 818 28 776 66 c 257
 749 48 749 48 717.5 31 c 128
 686 14 686 14 649 2 c 128
 612 -10 612 -10 570 -16 c 128
 528 -22 528 -22 479 -17 c 257
 376 -8 376 -8 309.5 24.5 c 128
 243 57 243 57 204.5 104.5 c 128
 166 152 166 152 150 210 c 128
 134 268 134 268 131.5 329 c 128
 129 390 129 390 135 449.5 c 128
 141 509 141 509 146 559 c 257
 158 681 158 681 210 786.5 c 128
 262 892 262 892 342 968 c 128
 422 1044 422 1044 525 1084.5 c 128
 628 1125 628 1125 742 1117 c 257
 711 939 l 257
 690 939 690 939 653.5 919.5 c 128
 617 900 617 900 577.5 853.5 c 128
 538 807 538 807 501.5 728 c 128
 465 649 465 649 444 531 c 257
 431 459 431 459 426 397.5 c 128
 421 336 421 336 427.5 290.5 c 128
 434 245 434 245 454.5 217 c 128
 475 189 475 189 514 183 c 257
 546 178 546 178 576 203 c 128
 606 228 606 228 631 271.5 c 128
 656 315 656 315 675 371.5 c 128
 694 428 694 428 704 487 c 257
 756 778 l 257
 1043 744 l 257
EndSplineSet
EndChar
StartChar: theta1
Encoding: 518 977 518
GlifName: theta1
Width: 1300
VWidth: 0
Flags: W
LayerCount: 2
Fore
SplineSet
422 529 m 257
 422 453 422 453 436 396 c 128
 450 339 450 339 476 300 c 128
 502 261 502 261 538.5 239 c 128
 575 217 575 217 620 210 c 257
 666 202 666 202 713.5 230 c 128
 761 258 761 258 802 312 c 128
 843 366 843 366 875 442 c 128
 907 518 907 518 923 606 c 257
 596 606 l 257
 522 604 522 604 452 616 c 128
 382 628 382 628 329.5 665.5 c 128
 277 703 277 703 248.5 771.5 c 128
 220 840 220 840 230 951 c 257
 235 1013 235 1013 259 1082 c 128
 283 1151 283 1151 323 1217 c 128
 363 1283 363 1283 418 1342 c 128
 473 1401 473 1401 540 1443 c 128
 607 1485 607 1485 685 1506 c 128
 763 1527 763 1527 850 1517 c 257
 937 1507 937 1507 1002 1475 c 128
 1067 1443 1067 1443 1113 1393.5 c 128
 1159 1344 1159 1344 1188 1279.5 c 128
 1217 1215 1217 1215 1233 1140.5 c 128
 1249 1066 1249 1066 1253.5 984.5 c 128
 1258 903 1258 903 1255 820 c 257
 1449 820 l 257
 1384 606 l 257
 1214 606 l 257
 1192 515 1192 515 1156.5 432 c 128
 1121 349 1121 349 1074 278 c 128
 1027 207 1027 207 970.5 150.5 c 128
 914 94 914 94 852 55 c 128
 790 16 790 16 723.5 -3 c 128
 657 -22 657 -22 590 -17 c 257
 501 -10 501 -10 429 23.5 c 128
 357 57 357 57 303 112 c 128
 249 167 249 167 215 240.5 c 128
 181 314 181 314 170 400 c 257
 422 529 l 257
810 1290 m 257
 775 1292 775 1292 738.5 1279.5 c 128
 702 1267 702 1267 667.5 1243 c 128
 633 1219 633 1219 602 1185.5 c 128
 571 1152 571 1152 548 1112.5 c 128
 525 1073 525 1073 511.5 1029.5 c 128
 498 986 498 986 497 943 c 257
 496 896 496 896 512.5 871 c 128
 529 846 529 846 559 834.5 c 128
 589 823 589 823 631.5 821.5 c 128
 674 820 674 820 727 820 c 257
 964 820 l 257
 973 870 973 870 974.5 923.5 c 128
 976 977 976 977 970 1028.5 c 128
 964 1080 964 1080 951 1126.5 c 128
 938 1173 938 1173 917.5 1208.5 c 128
 897 1244 897 1244 870 1265.5 c 128
 843 1287 843 1287 810 1290 c 257
EndSplineSet
EndChar
StartChar: Upsilon1
Encoding: 91 978 91
GlifName: U_psilon1
Width: 1300
VWidth: 0
Flags: W
LayerCount: 2
Fore
SplineSet
1402 1336 m 257
 1388 1334 1388 1334 1370 1324 c 257
 1355 1315 1355 1315 1335.5 1297 c 128
 1316 1279 1316 1279 1293 1245 c 257
 904 662 l 257
 788 0 l 257
 474 0 l 257
 590 662 l 257
 406 1245 l 257
 394 1283 394 1283 374.5 1299.5 c 128
 355 1316 355 1316 336 1321 c 257
 314 1326 314 1326 290 1320 c 257
 325 1516 l 257
 376 1516 376 1516 426.5 1513.5 c 128
 477 1511 477 1511 523 1493.5 c 128
 569 1476 569 1476 609 1437.5 c 128
 649 1399 649 1399 678 1328 c 257
 745 1157 l 257
 771 799 l 257
 926 1157 l 257
 1052 1328 l 257
 1100 1406 1100 1406 1147.5 1449 c 128
 1195 1492 1195 1492 1245.5 1511 c 128
 1296 1530 1296 1530 1351.5 1528.5 c 128
 1407 1527 1407 1527 1471 1516 c 257
 1402 1336 l 257
EndSplineSet
EndChar
StartChar: phi1
Encoding: 418 981 418
GlifName: phi1
Width: 1500
VWidth: 0
Flags: W
LayerCount: 2
Fore
SplineSet
651 780 m 257
 625 766 625 766 597 745 c 128
 569 724 569 724 545 693.5 c 128
 521 663 521 663 503.5 620 c 128
 486 577 486 577 483 519 c 257
 479 456 479 456 486 409 c 128
 493 362 493 362 509 327.5 c 128
 525 293 525 293 549 269.5 c 128
 573 246 573 246 603 230 c 257
 700 781 l 257
 719 840 719 840 751 878 c 128
 783 916 783 916 822.5 938 c 128
 862 960 862 960 907.5 969 c 128
 953 978 953 978 1001 979 c 257
 1091 980 1091 980 1170 944 c 128
 1249 908 1249 908 1306 843.5 c 128
 1363 779 1363 779 1393.5 690.5 c 128
 1424 602 1424 602 1418 499 c 257
 1411 387 1411 387 1371 302.5 c 128
 1331 218 1331 218 1262 158 c 128
 1193 98 1193 98 1097 61 c 128
 1001 24 1001 24 882 7 c 257
 792 -500 l 257
 474 -500 l 257
 564 7 l 257
 488 28 488 28 419 65 c 128
 350 102 350 102 299 161.5 c 128
 248 221 248 221 221 304 c 128
 194 387 194 387 203 499 c 257
 210 591 210 591 244 663.5 c 128
 278 736 278 736 327.5 791 c 128
 377 846 377 846 436.5 883.5 c 128
 496 921 496 921 553 943 c 257
 651 780 l 257
1154 519 m 257
 1160 583 1160 583 1149.5 633.5 c 128
 1139 684 1139 684 1121 718.5 c 128
 1103 753 1103 753 1082.5 771.5 c 128
 1062 790 1062 790 1048 790 c 257
 1038 790 1038 790 1031.5 785.5 c 128
 1025 781 1025 781 1021 775 c 128
 1017 769 1017 769 1015 762 c 128
 1013 755 1013 755 1012 750 c 257
 920 229 l 257
 965 242 965 242 1005.5 265 c 128
 1046 288 1046 288 1077 323.5 c 128
 1108 359 1108 359 1128 407.5 c 128
 1148 456 1148 456 1154 519 c 257
EndSplineSet
EndChar
StartChar: omega1
Encoding: 381 982 381
GlifName: omega1
Width: 1600
VWidth: 0
Flags: W
LayerCount: 2
Fore
SplineSet
1637 900 m 257
 1462 900 l 257
 1575 800 l 257
 1579 762 1579 762 1581 705 c 128
 1583 648 1583 648 1578.5 580.5 c 128
 1574 513 1574 513 1560.5 439.5 c 128
 1547 366 1547 366 1521 296.5 c 128
 1495 227 1495 227 1454 165.5 c 128
 1413 104 1413 104 1353.5 60 c 128
 1294 16 1294 16 1213.5 -5.5 c 128
 1133 -27 1133 -27 1028 -17 c 257
 978 -13 978 -13 940.5 -0.5 c 128
 903 12 903 12 874 28 c 128
 845 44 845 44 823 63 c 128
 801 82 801 82 782 100 c 257
 758 82 758 82 729 61.5 c 128
 700 41 700 41 665 23.5 c 128
 630 6 630 6 588.5 -5.5 c 128
 547 -17 547 -17 498 -17 c 257
 406 -17 406 -17 342 10 c 128
 278 37 278 37 237 81.5 c 128
 196 126 196 126 174.5 181.5 c 128
 153 237 153 237 145.5 294.5 c 128
 138 352 138 352 140.5 405.5 c 128
 143 459 143 459 150 499 c 257
 160 555 160 555 170.5 600 c 128
 181 645 181 645 191.5 681 c 128
 202 717 202 717 213.5 746.5 c 128
 225 776 225 776 238 800 c 257
 372 900 l 257
 195 900 l 257
 257 1100 l 257
 1700 1100 l 257
 1637 900 l 257
1040 724 m 257
 998 487 l 257
 988 428 988 428 985 377.5 c 128
 982 327 982 327 989 289 c 128
 996 251 996 251 1014 226.5 c 128
 1032 202 1032 202 1065 195 c 257
 1099 187 1099 187 1128.5 211 c 128
 1158 235 1158 235 1182 279.5 c 128
 1206 324 1206 324 1224.5 384.5 c 128
 1243 445 1243 445 1254.5 510 c 128
 1266 575 1266 575 1271.5 640 c 128
 1277 705 1277 705 1275.5 759 c 128
 1274 813 1274 813 1265 851 c 128
 1256 889 1256 889 1240 900 c 257
 607 900 l 257
 587 883 587 883 564 852 c 128
 541 821 541 821 520 772.5 c 128
 499 724 499 724 482 656.5 c 128
 465 589 465 589 458 501 c 257
 453 441 453 441 451.5 388.5 c 128
 450 336 450 336 457.5 295.5 c 128
 465 255 465 255 483 228.5 c 128
 501 202 501 202 535 195 c 257
 568 187 568 187 602.5 212.5 c 128
 637 238 637 238 667 304.5 c 128
 697 371 697 371 719.5 482 c 128
 742 593 742 593 752 758 c 257
 1040 724 l 257
EndSplineSet
EndChar
StartChar: hyphentwo
Encoding: 310 8208 310
GlifName: hyphentwo
Width: 900
VWidth: 0
Flags: W
LayerCount: 2
Fore
SplineSet
234 624 m 257
 861 624 l 257
 821 400 l 257
 194 400 l 257
 234 624 l 257
EndSplineSet
EndChar
StartChar: endash
Encoding: 247 8211 247
GlifName: endash
Width: 1100
VWidth: 0
Flags: W
LayerCount: 2
Fore
SplineSet
110 624 m 257
 1110 624 l 257
 1070 400 l 257
 70 400 l 257
 110 624 l 257
EndSplineSet
EndChar
StartChar: emdash
Encoding: 243 8212 243
GlifName: emdash
Width: 2100
VWidth: 0
Flags: W
LayerCount: 2
Fore
SplineSet
110 624 m 257
 2110 624 l 257
 2070 400 l 257
 70 400 l 257
 110 624 l 257
EndSplineSet
EndChar
StartChar: quoteright
Encoding: 444 8217 444
GlifName: quoteright
Width: 700
VWidth: 0
Flags: W
LayerCount: 2
Fore
SplineSet
163 1321 m 257
 164 1356 164 1356 178 1386.5 c 128
 192 1417 192 1417 216.5 1438.5 c 128
 241 1460 241 1460 274.5 1470.5 c 128
 308 1481 308 1481 348 1475 c 257
 377 1471 377 1471 402 1458.5 c 128
 427 1446 427 1446 445.5 1426 c 128
 464 1406 464 1406 474.5 1379.5 c 128
 485 1353 485 1353 485 1321 c 257
 485 1282 485 1282 470.5 1234 c 128
 456 1186 456 1186 425 1135 c 128
 394 1084 394 1084 346 1032 c 128
 298 980 298 980 230 934 c 257
 138 992 l 257
 152 1010 152 1010 167.5 1033 c 128
 183 1056 183 1056 197 1081.5 c 128
 211 1107 211 1107 222.5 1133 c 128
 234 1159 234 1159 242 1183 c 257
 224 1191 224 1191 209 1201.5 c 128
 194 1212 194 1212 183.5 1228 c 128
 173 1244 173 1244 167.5 1266.5 c 128
 162 1289 162 1289 163 1321 c 257
EndSplineSet
EndChar
StartChar: quotesinglbase
Encoding: 445 8218 445
GlifName: quotesinglbase
Width: 700
VWidth: 0
Flags: W
LayerCount: 2
Fore
SplineSet
163 121 m 257
 164 156 164 156 178 186.5 c 128
 192 217 192 217 216.5 238.5 c 128
 241 260 241 260 274.5 270.5 c 128
 308 281 308 281 348 275 c 257
 377 271 377 271 402 258.5 c 128
 427 246 427 246 445.5 226 c 128
 464 206 464 206 474.5 179.5 c 128
 485 153 485 153 485 121 c 257
 485 82 485 82 470.5 34 c 128
 456 -14 456 -14 425 -65 c 128
 394 -116 394 -116 346 -168 c 128
 298 -220 298 -220 230 -266 c 257
 138 -208 l 257
 152 -190 152 -190 167.5 -167 c 128
 183 -144 183 -144 197 -118.5 c 128
 211 -93 211 -93 222.5 -67 c 128
 234 -41 234 -41 242 -17 c 257
 224 -9 224 -9 209 1.5 c 128
 194 12 194 12 183.5 28 c 128
 173 44 173 44 167.5 66.5 c 128
 162 89 162 89 163 121 c 257
EndSplineSet
EndChar
StartChar: quotedblleft
Encoding: 441 8220 441
GlifName: quotedblleft
Width: 1000
VWidth: 0
Flags: W
LayerCount: 2
Fore
SplineSet
437 1079 m 257
 436 1044 436 1044 422 1013.5 c 128
 408 983 408 983 383.5 961.5 c 128
 359 940 359 940 325.5 929.5 c 128
 292 919 292 919 252 925 c 257
 223 929 223 929 198 941.5 c 128
 173 954 173 954 154.5 974 c 128
 136 994 136 994 125.5 1020.5 c 128
 115 1047 115 1047 115 1079 c 257
 115 1118 115 1118 129.5 1166 c 128
 144 1214 144 1214 175 1265 c 128
 206 1316 206 1316 254 1367.5 c 128
 302 1419 302 1419 370 1466 c 257
 462 1408 l 257
 448 1390 448 1390 432.5 1367 c 128
 417 1344 417 1344 403 1318.5 c 128
 389 1293 389 1293 377 1267 c 128
 365 1241 365 1241 358 1217 c 257
 376 1209 376 1209 391 1198.5 c 128
 406 1188 406 1188 416.5 1172 c 128
 427 1156 427 1156 432.5 1133 c 128
 438 1110 438 1110 437 1079 c 257
837 1079 m 257
 836 1044 836 1044 822 1013.5 c 128
 808 983 808 983 783.5 961.5 c 128
 759 940 759 940 725.5 929.5 c 128
 692 919 692 919 652 925 c 257
 623 929 623 929 598 941.5 c 128
 573 954 573 954 554.5 974 c 128
 536 994 536 994 525.5 1020.5 c 128
 515 1047 515 1047 515 1079 c 257
 515 1118 515 1118 529.5 1166 c 128
 544 1214 544 1214 575 1265 c 128
 606 1316 606 1316 654 1367.5 c 128
 702 1419 702 1419 770 1466 c 257
 862 1408 l 257
 848 1390 848 1390 832.5 1367 c 128
 817 1344 817 1344 803 1318.5 c 128
 789 1293 789 1293 777 1267 c 128
 765 1241 765 1241 758 1217 c 257
 776 1209 776 1209 791 1198.5 c 128
 806 1188 806 1188 816.5 1172 c 128
 827 1156 827 1156 832.5 1133 c 128
 838 1110 838 1110 837 1079 c 257
EndSplineSet
EndChar
StartChar: quotedblright
Encoding: 442 8221 442
GlifName: quotedblright
Width: 1000
VWidth: 0
Flags: W
LayerCount: 2
Fore
SplineSet
163 1321 m 257
 164 1356 164 1356 178 1386.5 c 128
 192 1417 192 1417 216.5 1438.5 c 128
 241 1460 241 1460 274.5 1470.5 c 128
 308 1481 308 1481 348 1475 c 257
 377 1471 377 1471 402 1458.5 c 128
 427 1446 427 1446 445.5 1426 c 128
 464 1406 464 1406 474.5 1379.5 c 128
 485 1353 485 1353 485 1321 c 257
 485 1282 485 1282 470.5 1234 c 128
 456 1186 456 1186 425 1135 c 128
 394 1084 394 1084 346 1032 c 128
 298 980 298 980 230 934 c 257
 138 992 l 257
 152 1010 152 1010 167.5 1033 c 128
 183 1056 183 1056 197 1081.5 c 128
 211 1107 211 1107 222.5 1133 c 128
 234 1159 234 1159 242 1183 c 257
 224 1191 224 1191 209 1201.5 c 128
 194 1212 194 1212 183.5 1228 c 128
 173 1244 173 1244 167.5 1266.5 c 128
 162 1289 162 1289 163 1321 c 257
563 1321 m 257
 564 1356 564 1356 578 1386.5 c 128
 592 1417 592 1417 616.5 1438.5 c 128
 641 1460 641 1460 674.5 1470.5 c 128
 708 1481 708 1481 748 1475 c 257
 777 1471 777 1471 802 1458.5 c 128
 827 1446 827 1446 845.5 1426 c 128
 864 1406 864 1406 874.5 1379.5 c 128
 885 1353 885 1353 885 1321 c 257
 885 1282 885 1282 870.5 1234 c 128
 856 1186 856 1186 825 1135 c 128
 794 1084 794 1084 746 1032 c 128
 698 980 698 980 630 934 c 257
 538 992 l 257
 552 1010 552 1010 567.5 1033 c 128
 583 1056 583 1056 597 1081.5 c 128
 611 1107 611 1107 622.5 1133 c 128
 634 1159 634 1159 642 1183 c 257
 624 1191 624 1191 609 1201.5 c 128
 594 1212 594 1212 583.5 1228 c 128
 573 1244 573 1244 567.5 1266.5 c 128
 562 1289 562 1289 563 1321 c 257
EndSplineSet
EndChar
StartChar: perthousand
Encoding: 416 8240 416
GlifName: perthousand
Width: 2600
VWidth: 0
Flags: W
LayerCount: 2
Fore
SplineSet
2065 -17 m 257
 1892 -1 1892 -1 1815 101.5 c 128
 1738 204 1738 204 1753 382 c 257
 1760 467 1760 467 1798 542.5 c 128
 1836 618 1836 618 1896 672 c 128
 1956 726 1956 726 2035 754 c 128
 2114 782 2114 782 2204 774 c 257
 2376 758 2376 758 2454 655.5 c 128
 2532 553 2532 553 2516 382 c 257
 2508 295 2508 295 2472 218.5 c 128
 2436 142 2436 142 2377 86.5 c 128
 2318 31 2318 31 2238.5 2.5 c 128
 2159 -26 2159 -26 2065 -17 c 257
2224 371 m 257
 2227 407 2227 407 2227.5 440.5 c 128
 2228 474 2228 474 2222 500 c 128
 2216 526 2216 526 2203 543.5 c 128
 2190 561 2190 561 2166 566 c 257
 2143 570 2143 570 2124 556.5 c 128
 2105 543 2105 543 2090 518 c 128
 2075 493 2075 493 2064.5 461 c 128
 2054 429 2054 429 2050 396 c 257
 2045 360 2045 360 2045 327 c 128
 2045 294 2045 294 2051 267.5 c 128
 2057 241 2057 241 2070.5 223.5 c 128
 2084 206 2084 206 2107 203 c 257
 2129 200 2129 200 2149 214 c 128
 2169 228 2169 228 2184.5 252.5 c 128
 2200 277 2200 277 2210.5 308 c 128
 2221 339 2221 339 2224 371 c 257
633 0 m 257
 310 0 l 257
 1393 1500 l 257
 1707 1500 l 257
 633 0 l 257
1348 -17 m 257
 1175 -1 1175 -1 1098 101.5 c 128
 1021 204 1021 204 1036 382 c 257
 1043 467 1043 467 1081 542.5 c 128
 1119 618 1119 618 1179 672 c 128
 1239 726 1239 726 1318 754 c 128
 1397 782 1397 782 1487 774 c 257
 1659 758 1659 758 1737 655.5 c 128
 1815 553 1815 553 1799 382 c 257
 1791 295 1791 295 1755 218.5 c 128
 1719 142 1719 142 1660 86.5 c 128
 1601 31 1601 31 1521.5 2.5 c 128
 1442 -26 1442 -26 1348 -17 c 257
1507 371 m 257
 1510 407 1510 407 1510.5 440.5 c 128
 1511 474 1511 474 1505 500 c 128
 1499 526 1499 526 1486 543.5 c 128
 1473 561 1473 561 1449 566 c 257
 1426 570 1426 570 1407 556.5 c 128
 1388 543 1388 543 1373 518 c 128
 1358 493 1358 493 1347.5 461 c 128
 1337 429 1337 429 1333 396 c 257
 1328 360 1328 360 1328 327 c 128
 1328 294 1328 294 1334 267.5 c 128
 1340 241 1340 241 1353.5 223.5 c 128
 1367 206 1367 206 1390 203 c 257
 1412 200 1412 200 1432 214 c 128
 1452 228 1452 228 1467.5 252.5 c 128
 1483 277 1483 277 1493.5 308 c 128
 1504 339 1504 339 1507 371 c 257
528 726 m 257
 355 742 355 742 278 844.5 c 128
 201 947 201 947 216 1125 c 257
 223 1210 223 1210 261 1285.5 c 128
 299 1361 299 1361 359 1415 c 128
 419 1469 419 1469 498 1497 c 128
 577 1525 577 1525 667 1517 c 257
 839 1501 839 1501 917 1398.5 c 128
 995 1296 995 1296 979 1125 c 257
 971 1038 971 1038 935 961.5 c 128
 899 885 899 885 840 829.5 c 128
 781 774 781 774 701.5 745.5 c 128
 622 717 622 717 528 726 c 257
687 1114 m 257
 690 1150 690 1150 690.5 1183.5 c 128
 691 1217 691 1217 685 1243 c 128
 679 1269 679 1269 666 1286.5 c 128
 653 1304 653 1304 629 1309 c 257
 606 1313 606 1313 587 1299.5 c 128
 568 1286 568 1286 553 1261 c 128
 538 1236 538 1236 527.5 1204 c 128
 517 1172 517 1172 513 1139 c 257
 508 1103 508 1103 508 1070 c 128
 508 1037 508 1037 514 1010.5 c 128
 520 984 520 984 533.5 966.5 c 128
 547 949 547 949 570 946 c 257
 592 943 592 943 612 957 c 128
 632 971 632 971 647.5 995.5 c 128
 663 1020 663 1020 673.5 1051 c 128
 684 1082 684 1082 687 1114 c 257
EndSplineSet
EndChar
StartChar: minute
Encoding: 353 8242 353
GlifName: minute
Width: 500
VWidth: 0
Flags: W
LayerCount: 2
Fore
SplineSet
596 1230 m 257
 375 885 l 257
 222 885 l 257
 347 1232 l 257
 398 1523 l 257
 642 1490 l 257
 596 1230 l 257
EndSplineSet
EndChar
StartChar: second
Encoding: 467 8243 467
GlifName: second
Width: 800
VWidth: 0
Flags: W
LayerCount: 2
Fore
SplineSet
596 1230 m 257
 375 885 l 257
 222 885 l 257
 347 1232 l 257
 398 1523 l 257
 642 1490 l 257
 596 1230 l 257
896 1230 m 257
 675 885 l 257
 522 885 l 257
 647 1232 l 257
 698 1523 l 257
 942 1490 l 257
 896 1230 l 257
EndSplineSet
EndChar
StartChar: tripleprime
Encoding: 533 8244 533
GlifName: tripleprime
Width: 1100
VWidth: 0
Flags: W
LayerCount: 2
Fore
SplineSet
596 1230 m 257
 375 885 l 257
 222 885 l 257
 347 1232 l 257
 398 1523 l 257
 642 1490 l 257
 596 1230 l 257
896 1230 m 257
 675 885 l 257
 522 885 l 257
 647 1232 l 257
 698 1523 l 257
 942 1490 l 257
 896 1230 l 257
1196 1230 m 257
 975 885 l 257
 822 885 l 257
 947 1232 l 257
 998 1523 l 257
 1242 1490 l 257
 1196 1230 l 257
EndSplineSet
EndChar
StartChar: primereversed
Encoding: 429 8245 429
GlifName: primereversed
Width: 500
VWidth: 0
Flags: W
LayerCount: 2
Fore
SplineSet
-142 1490 m 257
 102 1523 l 257
 153 1232 l 257
 278 885 l 257
 125 885 l 257
 -96 1230 l 257
 -142 1490 l 257
EndSplineSet
EndChar
StartChar: guilsinglright
Encoding: 299 8250 299
GlifName: guilsinglright
Width: 900
VWidth: 0
Flags: W
LayerCount: 2
Fore
SplineSet
886 619 m 257
 860 476 l 257
 218 -13 l 257
 166 224 l 257
 552 517 l 257
 631 550 l 257
 562 582 l 257
 284 880 l 257
 413 1106 l 257
 886 619 l 257
EndSplineSet
EndChar
StartChar: asterism
Encoding: 138 8258 138
GlifName: asterism
Width: 1100
VWidth: 0
Flags: W
LayerCount: 2
Fore
SplineSet
751 1063 m 257
 786 1002 l 257
 689 927 l 257
 646 1000 l 257
 635 1095 l 257
 593 1000 l 257
 530 928 l 257
 441 990 l 257
 517 1075 l 257
 606 1120 l 257
 501 1120 l 257
 430 1145 l 257
 471 1254 l 257
 559 1229 l 257
 626 1160 l 257
 610 1257 l 257
 621 1323 l 257
 738 1335 l 257
 724 1254 l 257
 668 1158 l 257
 753 1223 l 257
 830 1247 l 257
 858 1141 l 257
 785 1118 l 257
 673 1118 l 257
 751 1063 l 257
1051 463 m 257
 1086 402 l 257
 989 327 l 257
 946 400 l 257
 935 495 l 257
 893 400 l 257
 830 328 l 257
 741 390 l 257
 817 475 l 257
 906 520 l 257
 801 520 l 257
 730 545 l 257
 771 654 l 257
 859 629 l 257
 926 560 l 257
 910 657 l 257
 921 723 l 257
 1038 735 l 257
 1024 654 l 257
 968 558 l 257
 1053 623 l 257
 1130 647 l 257
 1158 541 l 257
 1085 518 l 257
 973 518 l 257
 1051 463 l 257
451 463 m 257
 486 402 l 257
 389 327 l 257
 346 400 l 257
 335 495 l 257
 293 400 l 257
 230 328 l 257
 141 390 l 257
 217 475 l 257
 306 520 l 257
 201 520 l 257
 130 545 l 257
 171 654 l 257
 259 629 l 257
 326 560 l 257
 310 657 l 257
 321 723 l 257
 438 735 l 257
 424 654 l 257
 368 558 l 257
 453 623 l 257
 530 647 l 257
 558 541 l 257
 485 518 l 257
 373 518 l 257
 451 463 l 257
EndSplineSet
EndChar
StartChar: zerosuperior
Encoding: 589 8304 589
GlifName: zerosuperior
Width: 800
VWidth: 0
Flags: W
LayerCount: 2
Fore
SplineSet
296 712 m 257
 227 717 227 717 183.5 753 c 128
 140 789 140 789 116.5 843 c 128
 93 897 93 897 87.5 963 c 128
 82 1029 82 1029 90 1095 c 257
 96 1140 96 1140 110 1187.5 c 128
 124 1235 124 1235 145.5 1279 c 128
 167 1323 167 1323 196 1361 c 128
 225 1399 225 1399 261 1426.5 c 128
 297 1454 297 1454 339.5 1468 c 128
 382 1482 382 1482 431 1478 c 257
 501 1471 501 1471 545.5 1435 c 128
 590 1399 590 1399 614 1345.5 c 128
 638 1292 638 1292 642.5 1226.5 c 128
 647 1161 647 1161 637 1095 c 257
 627 1027 627 1027 601 956.5 c 128
 575 886 575 886 532.5 829.5 c 128
 490 773 490 773 431 739.5 c 128
 372 706 372 706 296 712 c 257
261 1115 m 257
 256 1075 256 1075 251.5 1027.5 c 128
 247 980 247 980 250.5 938 c 128
 254 896 254 896 269.5 866.5 c 128
 285 837 285 837 321 833 c 257
 352 830 352 830 377 851 c 128
 402 872 402 872 420 907.5 c 128
 438 943 438 943 449.5 987.5 c 128
 461 1032 461 1032 466 1074 c 257
 471 1116 471 1116 475.5 1164 c 128
 480 1212 480 1212 476 1253.5 c 128
 472 1295 472 1295 456.5 1324 c 128
 441 1353 441 1353 406 1356 c 257
 374 1359 374 1359 349.5 1337 c 128
 325 1315 325 1315 307 1279.5 c 128
 289 1244 289 1244 277.5 1200 c 128
 266 1156 266 1156 261 1115 c 257
EndSplineSet
EndChar
StartChar: foursuperior
Encoding: 285 8308 285
GlifName: foursuperior
Width: 600
VWidth: 0
Flags: W
LayerCount: 2
Fore
SplineSet
595 870 m 257
 506 870 l 257
 480 720 l 257
 326 720 l 257
 352 870 l 257
 57 870 l 257
 75 970 l 257
 413 1482 l 257
 563 1466 l 257
 335 1101 l 257
 225 970 l 257
 370 970 l 257
 396 1119 l 257
 548 1106 l 257
 524 970 l 257
 624 970 l 257
 595 870 l 257
EndSplineSet
EndChar
StartChar: fivesuperior
Encoding: 275 8309 275
GlifName: fivesuperior
Width: 600
VWidth: 0
Flags: W
LayerCount: 2
Fore
SplineSet
337 1243 m 257
 362 1249 362 1249 396 1249 c 257
 445 1249 445 1249 485.5 1233.5 c 128
 526 1218 526 1218 553.5 1189.5 c 128
 581 1161 581 1161 593.5 1121 c 128
 606 1081 606 1081 600 1033 c 257
 591 956 591 956 541.5 898 c 128
 492 840 492 840 418 800 c 128
 344 760 344 760 253.5 740 c 128
 163 720 163 720 71 720 c 257
 90 833 l 257
 147 834 147 834 208 847.5 c 128
 269 861 269 861 319.5 885.5 c 128
 370 910 370 910 403 944.5 c 128
 436 979 436 979 439 1023 c 257
 442 1066 442 1066 423 1095.5 c 128
 404 1125 404 1125 362 1131 c 257
 343 1134 343 1134 328 1132 c 128
 313 1130 313 1130 300.5 1125 c 128
 288 1120 288 1120 275.5 1113 c 128
 263 1106 263 1106 250 1099 c 257
 144 1099 l 257
 209 1470 l 257
 636 1470 l 257
 618 1370 l 257
 360 1370 l 257
 337 1243 l 257
EndSplineSet
EndChar
StartChar: sixsuperior
Encoding: 484 8310 484
GlifName: sixsuperior
Width: 600
VWidth: 0
Flags: W
LayerCount: 2
Fore
SplineSet
609 1360 m 257
 598 1367 598 1367 583 1368 c 128
 568 1369 568 1369 556 1370 c 257
 514 1373 514 1373 471.5 1355.5 c 128
 429 1338 429 1338 391.5 1304.5 c 128
 354 1271 354 1271 324.5 1223.5 c 128
 295 1176 295 1176 281 1120 c 257
 376 1192 l 257
 390 1195 390 1195 403.5 1196 c 128
 417 1197 417 1197 428 1198 c 257
 472 1201 472 1201 511.5 1189 c 128
 551 1177 551 1177 579.5 1150.5 c 128
 608 1124 608 1124 623 1082 c 128
 638 1040 638 1040 634 982 c 257
 630 926 630 926 603 875.5 c 128
 576 825 576 825 533 787.5 c 128
 490 750 490 750 434.5 729 c 128
 379 708 379 708 317 711 c 257
 263 714 263 714 225.5 731 c 128
 188 748 188 748 163.5 774.5 c 128
 139 801 139 801 125 834 c 128
 111 867 111 867 105.5 902 c 128
 100 937 100 937 100.5 971 c 128
 101 1005 101 1005 104 1033 c 257
 114 1122 114 1122 156 1205 c 128
 198 1288 198 1288 262.5 1350.5 c 128
 327 1413 327 1413 408.5 1448.5 c 128
 490 1484 490 1484 579 1478 c 257
 588 1477 588 1477 604.5 1476.5 c 128
 621 1476 621 1476 646 1469 c 257
 609 1360 l 257
403 1098 m 257
 368 1103 368 1103 329.5 1080.5 c 128
 291 1058 291 1058 263 1020 c 257
 258 994 258 994 255.5 976 c 128
 253 958 253 958 257 937 c 257
 261 918 261 918 267 898 c 128
 273 878 273 878 283 861.5 c 128
 293 845 293 845 306.5 833.5 c 128
 320 822 320 822 338 820 c 257
 365 817 365 817 388.5 830.5 c 128
 412 844 412 844 430 867.5 c 128
 448 891 448 891 458.5 920.5 c 128
 469 950 469 950 471 978 c 257
 475 1029 475 1029 456.5 1061 c 128
 438 1093 438 1093 403 1098 c 257
EndSplineSet
EndChar
StartChar: sevensuperior
Encoding: 475 8311 475
GlifName: sevensuperior
Width: 600
VWidth: 0
Flags: W
LayerCount: 2
Fore
SplineSet
208 1470 m 257
 705 1470 l 257
 691 1389 l 257
 684 1351 684 1351 651.5 1307.5 c 128
 619 1264 619 1264 570 1208 c 257
 538 1170 538 1170 507 1132 c 128
 476 1094 476 1094 449.5 1055 c 128
 423 1016 423 1016 403.5 975.5 c 128
 384 935 384 935 374 893 c 257
 370 875 370 875 365 852.5 c 128
 360 830 360 830 355 807 c 128
 350 784 350 784 345.5 761.5 c 128
 341 739 341 739 338 720 c 257
 176 720 l 257
 179 736 179 736 184.5 763 c 128
 190 790 190 790 196.5 820 c 128
 203 850 203 850 210.5 879 c 128
 218 908 218 908 225 929 c 257
 258 1028 258 1028 315 1110.5 c 128
 372 1193 372 1193 438 1263 c 257
 463 1289 463 1289 480 1314 c 128
 497 1339 497 1339 506 1356 c 257
 188 1356 l 257
 208 1470 l 257
EndSplineSet
EndChar
StartChar: eightsuperior
Encoding: 238 8312 238
GlifName: eightsuperior
Width: 600
VWidth: 0
Flags: W
LayerCount: 2
Fore
SplineSet
441 1478 m 257
 542 1470 542 1470 594.5 1423.5 c 128
 647 1377 647 1377 640 1287 c 257
 638 1262 638 1262 625 1239 c 128
 612 1216 612 1216 592.5 1197 c 128
 573 1178 573 1178 549.5 1163.5 c 128
 526 1149 526 1149 502 1142 c 257
 523 1134 523 1134 546.5 1113.5 c 128
 570 1093 570 1093 588.5 1065 c 128
 607 1037 607 1037 617.5 1003 c 128
 628 969 628 969 624 933 c 257
 618 872 618 872 588 828.5 c 128
 558 785 558 785 513.5 757.5 c 128
 469 730 469 730 415.5 719 c 128
 362 708 362 708 309 711 c 257
 258 714 258 714 215 729 c 128
 172 744 172 744 142 772 c 128
 112 800 112 800 96.5 841.5 c 128
 81 883 81 883 86 940 c 257
 91 1012 91 1012 139.5 1063 c 128
 188 1114 188 1114 266 1144 c 257
 248 1159 248 1159 232 1174 c 128
 216 1189 216 1189 204.5 1206 c 128
 193 1223 193 1223 187 1242 c 128
 181 1261 181 1261 183 1282 c 257
 187 1334 187 1334 213 1372 c 128
 239 1410 239 1410 276 1434.5 c 128
 313 1459 313 1459 356.5 1470 c 128
 400 1481 400 1481 441 1478 c 257
468 931 m 257
 469 958 469 958 461 980 c 128
 453 1002 453 1002 438.5 1019.5 c 128
 424 1037 424 1037 405.5 1050.5 c 128
 387 1064 387 1064 366 1075 c 257
 341 1066 341 1066 318.5 1052.5 c 128
 296 1039 296 1039 278.5 1021 c 128
 261 1003 261 1003 250.5 980 c 128
 240 957 240 957 240 930 c 257
 239 881 239 881 264.5 853 c 128
 290 825 290 825 329 820 c 257
 352 817 352 817 376.5 823.5 c 128
 401 830 401 830 421 845 c 128
 441 860 441 860 454 882 c 128
 467 904 467 904 468 931 c 257
339 1298 m 257
 338 1281 338 1281 344.5 1266 c 128
 351 1251 351 1251 361 1239 c 128
 371 1227 371 1227 383 1217.5 c 128
 395 1208 395 1208 406 1202 c 257
 445 1221 445 1221 467 1243.5 c 128
 489 1266 489 1266 488 1296 c 257
 487 1332 487 1332 471.5 1348.5 c 128
 456 1365 456 1365 431 1370 c 257
 414 1373 414 1373 397.5 1368 c 128
 381 1363 381 1363 368 1352.5 c 128
 355 1342 355 1342 347 1327.5 c 128
 339 1313 339 1313 339 1298 c 257
EndSplineSet
EndChar
StartChar: ninesuperior
Encoding: 364 8313 364
GlifName: ninesuperior
Width: 600
VWidth: 0
Flags: W
LayerCount: 2
Fore
SplineSet
161 819 m 257
 221 819 221 819 275 839.5 c 128
 329 860 329 860 371.5 894.5 c 128
 414 929 414 929 442 974.5 c 128
 470 1020 470 1020 478 1070 c 257
 375 994 l 257
 367 993 367 993 358.5 992 c 128
 350 991 350 991 342 992 c 257
 293 993 293 993 252.5 1009.5 c 128
 212 1026 212 1026 183.5 1056.5 c 128
 155 1087 155 1087 141 1130.5 c 128
 127 1174 127 1174 131 1228 c 257
 135 1284 135 1284 160.5 1332 c 128
 186 1380 186 1380 227.5 1414 c 128
 269 1448 269 1448 323 1465 c 128
 377 1482 377 1482 439 1478 c 257
 492 1474 492 1474 529 1456.5 c 128
 566 1439 566 1439 591 1413 c 128
 616 1387 616 1387 629.5 1354 c 128
 643 1321 643 1321 649.5 1286.5 c 128
 656 1252 656 1252 655.5 1218.5 c 128
 655 1185 655 1185 652 1156 c 257
 642 1068 642 1068 603.5 989.5 c 128
 565 911 565 911 502 851 c 128
 439 791 439 791 353.5 754 c 128
 268 717 268 717 164 711 c 257
 161 819 l 257
366 1100 m 257
 384 1097 384 1097 403.5 1103.5 c 128
 423 1110 423 1110 441.5 1123.5 c 128
 460 1137 460 1137 475.5 1154.5 c 128
 491 1172 491 1172 501 1192 c 257
 507 1224 507 1224 504 1255 c 128
 501 1286 501 1286 490.5 1310.5 c 128
 480 1335 480 1335 462.5 1351 c 128
 445 1367 445 1367 423 1370 c 257
 398 1373 398 1373 374 1362.5 c 128
 350 1352 350 1352 331.5 1333.5 c 128
 313 1315 313 1315 302 1289.5 c 128
 291 1264 291 1264 291 1237 c 257
 291 1211 291 1211 294.5 1187.5 c 128
 298 1164 298 1164 306.5 1146 c 128
 315 1128 315 1128 329.5 1116 c 128
 344 1104 344 1104 366 1100 c 257
EndSplineSet
EndChar
StartChar: equalsuperior
Encoding: 251 8316 251
GlifName: equalsuperior
Width: 500
VWidth: 0
Flags: W
LayerCount: 2
Fore
SplineSet
120 1120 m 257
 520 1120 l 257
 501 1010 l 257
 101 1010 l 257
 120 1120 l 257
85 920 m 257
 485 920 l 257
 465 810 l 257
 65 810 l 257
 85 920 l 257
EndSplineSet
EndChar
StartChar: nineinferior
Encoding: 362 8329 362
GlifName: nineinferior
Width: 600
VWidth: 0
Flags: W
LayerCount: 2
Fore
SplineSet
161 -401 m 257
 221 -401 221 -401 275 -380.5 c 128
 329 -360 329 -360 371.5 -325.5 c 128
 414 -291 414 -291 442 -245.5 c 128
 470 -200 470 -200 478 -150 c 257
 375 -226 l 257
 367 -227 367 -227 358.5 -228 c 128
 350 -229 350 -229 342 -228 c 257
 293 -227 293 -227 252.5 -210.5 c 128
 212 -194 212 -194 183.5 -163.5 c 128
 155 -133 155 -133 141 -89.5 c 128
 127 -46 127 -46 131 8 c 257
 135 64 135 64 160.5 112 c 128
 186 160 186 160 227.5 194 c 128
 269 228 269 228 323 245 c 128
 377 262 377 262 439 258 c 257
 492 254 492 254 529 236.5 c 128
 566 219 566 219 591 193 c 128
 616 167 616 167 629.5 134 c 128
 643 101 643 101 649.5 66.5 c 128
 656 32 656 32 655.5 -2 c 128
 655 -36 655 -36 652 -64 c 257
 642 -152 642 -152 603.5 -230.5 c 128
 565 -309 565 -309 502 -369 c 128
 439 -429 439 -429 353.5 -466 c 128
 268 -503 268 -503 164 -509 c 257
 161 -401 l 257
366 -120 m 257
 384 -123 384 -123 403.5 -116.5 c 128
 423 -110 423 -110 441.5 -96.5 c 128
 460 -83 460 -83 475.5 -65.5 c 128
 491 -48 491 -48 501 -28 c 257
 507 4 507 4 504 35 c 128
 501 66 501 66 490.5 90.5 c 128
 480 115 480 115 462.5 131 c 128
 445 147 445 147 423 150 c 257
 398 153 398 153 374 142.5 c 128
 350 132 350 132 331.5 113.5 c 128
 313 95 313 95 302 69.5 c 128
 291 44 291 44 291 17 c 257
 291 -9 291 -9 294.5 -32.5 c 128
 298 -56 298 -56 306.5 -74 c 128
 315 -92 315 -92 329.5 -104 c 128
 344 -116 344 -116 366 -120 c 257
EndSplineSet
EndChar
StartChar: equalinferior
Encoding: 250 8332 250
GlifName: equalinferior
Width: 600
VWidth: 0
Flags: W
LayerCount: 2
Fore
SplineSet
120 -100 m 257
 520 -100 l 257
 501 -210 l 257
 101 -210 l 257
 120 -100 l 257
85 -300 m 257
 485 -300 l 257
 465 -410 l 257
 65 -410 l 257
 85 -300 l 257
EndSplineSet
EndChar
StartChar: parenleftinferior
Encoding: 403 8333 403
GlifName: parenleftinferior
Width: 400
VWidth: 0
Flags: W
LayerCount: 2
Fore
SplineSet
181 79 m 257
 191 132 191 132 202.5 174.5 c 128
 214 217 214 217 235.5 246.5 c 128
 257 276 257 276 292 290 c 128
 327 304 327 304 383 300 c 257
 408 298 408 298 430.5 292 c 128
 453 286 453 286 484 272 c 257
 429 215 l 257
 418 217 418 217 405 216.5 c 128
 392 216 392 216 379.5 206.5 c 128
 367 197 367 197 357 175 c 128
 347 153 347 153 341 113 c 257
 228 -523 l 257
 222 -552 222 -552 225 -570.5 c 128
 228 -589 228 -589 236 -600 c 128
 244 -611 244 -611 255 -616 c 128
 266 -621 266 -621 277 -623 c 257
 316 -683 l 257
 293 -696 293 -696 261.5 -704 c 128
 230 -712 230 -712 205 -710 c 257
 151 -706 151 -706 122.5 -683.5 c 128
 94 -661 94 -661 83 -628 c 128
 72 -595 72 -595 73.5 -556 c 128
 75 -517 75 -517 82 -481 c 257
 181 79 l 257
EndSplineSet
EndChar
StartChar: Ifraktur
Encoding: 38 8465 38
GlifName: I_fraktur
Width: 1100
VWidth: 0
Flags: W
LayerCount: 2
Fore
SplineSet
247 1400 m 257
 957 1400 l 257
 931 1216 l 257
 892 1193 892 1193 854 1158.5 c 128
 816 1124 816 1124 786 1084 c 128
 756 1044 756 1044 737.5 1003 c 128
 719 962 719 962 719 926 c 257
 719 882 719 882 739.5 833.5 c 128
 760 785 760 785 791.5 732.5 c 128
 823 680 823 680 859 623.5 c 128
 895 567 895 567 926.5 506.5 c 128
 958 446 958 446 978.5 382 c 128
 999 318 999 318 999 251 c 257
 999 177 999 177 965 126 c 128
 931 75 931 75 880 43 c 128
 829 11 829 11 770 -3 c 128
 711 -17 711 -17 661 -17 c 257
 610 -17 610 -17 558.5 -5 c 128
 507 7 507 7 461.5 25 c 128
 416 43 416 43 378.5 63.5 c 128
 341 84 341 84 317 102 c 257
 299 200 l 257
 149 66 l 257
 30 156 l 257
 259 353 l 257
 298 316 298 316 353 282 c 128
 408 248 408 248 466.5 221.5 c 128
 525 195 525 195 580.5 179.5 c 128
 636 164 636 164 677 164 c 257
 699 164 699 164 719 169 c 128
 739 174 739 174 754.5 184.5 c 128
 770 195 770 195 779.5 211.5 c 128
 789 228 789 228 789 252 c 257
 789 289 789 289 767.5 337.5 c 128
 746 386 746 386 714 441.5 c 128
 682 497 682 497 644 557 c 128
 606 617 606 617 574 676.5 c 128
 542 736 542 736 520.5 793 c 128
 499 850 499 850 499 900 c 257
 499 926 499 926 510.5 963 c 128
 522 1000 522 1000 548.5 1042 c 128
 575 1084 575 1084 618 1129 c 128
 661 1174 661 1174 723 1216 c 257
 299 1216 l 257
 276 1193 276 1193 268 1165 c 128
 260 1137 260 1137 260 1107 c 257
 260 1090 260 1090 264.5 1072 c 128
 269 1054 269 1054 274 1040 c 257
 280 1023 280 1023 289 1007 c 257
 183 947 l 257
 124 1030 124 1030 124 1121 c 257
 124 1251 124 1251 247 1400 c 257
EndSplineSet
EndChar
StartChar: lsquare
Encoding: 343 8467 343
GlifName: lsquare
Width: 900
VWidth: 0
Flags: W
LayerCount: 2
Fore
SplineSet
100 540 m 257
 200 540 l 257
 200 1000 l 257
 200 1112 200 1112 215.5 1207 c 128
 231 1302 231 1302 270 1371 c 128
 309 1440 309 1440 374.5 1478.5 c 128
 440 1517 440 1517 540 1517 c 257
 596 1517 596 1517 644 1494 c 128
 692 1471 692 1471 726.5 1421 c 128
 761 1371 761 1371 780.5 1291.5 c 128
 800 1212 800 1212 800 1100 c 257
 800 1025 800 1025 798.5 944 c 128
 797 863 797 863 789 785 c 128
 781 707 781 707 762.5 637.5 c 128
 744 568 744 568 711 515 c 128
 678 462 678 462 626.5 431 c 128
 575 400 575 400 500 400 c 257
 400 400 l 257
 400 383 l 257
 400 328 400 328 405 283.5 c 128
 410 239 410 239 426 207 c 257
 443 174 443 174 471 155 c 257
 503 134 503 134 537 130 c 257
 556 128 556 128 567 127 c 128
 578 126 578 126 582 126 c 257
 607 126 607 126 639.5 134 c 128
 672 142 672 142 691 153 c 257
 774 30 l 257
 753 20 753 20 729 11.5 c 128
 705 3 705 3 676 -3.5 c 128
 647 -10 647 -10 611 -13.5 c 128
 575 -17 575 -17 530 -17 c 257
 434 -17 434 -17 370.5 13.5 c 128
 307 44 307 44 269 98 c 128
 231 152 231 152 215.5 225 c 128
 200 298 200 298 200 383 c 257
 200 400 l 257
 100 400 l 257
 100 540 l 257
450 540 m 257
 500 540 l 257
 529 540 529 540 549.5 559 c 128
 570 578 570 578 583.5 610.5 c 128
 597 643 597 643 604.5 686.5 c 128
 612 730 612 730 615.5 780 c 128
 619 830 619 830 619.5 883 c 128
 620 936 620 936 620 987 c 257
 620 1060 620 1060 618.5 1129.5 c 128
 617 1199 617 1199 608 1252.5 c 128
 599 1306 599 1306 580.5 1338.5 c 128
 562 1371 562 1371 528 1371 c 257
 507 1371 507 1371 484.5 1354.5 c 128
 462 1338 462 1338 443 1299 c 128
 424 1260 424 1260 412 1196.5 c 128
 400 1133 400 1133 400 1039 c 257
 400 440 l 257
 450 540 l 257
EndSplineSet
EndChar
StartChar: angstrom
Encoding: 112 8491 112
GlifName: angstrom
Width: 1300
VWidth: 0
Flags: W
LayerCount: 2
Fore
SplineSet
20 0 m 257
 644 1284 l 257
 716 1494 l 257
 1071 1525 l 257
 1282 0 l 257
 955 0 l 257
 914 427 l 257
 522 427 l 257
 334 0 l 257
 20 0 l 257
882 1361 m 257
 764 990 l 257
 619 646 l 257
 893 646 l 257
 869 990 l 257
 882 1361 l 257
990 1926 m 257
 1052 1919 1052 1919 1103 1896 c 128
 1154 1873 1154 1873 1189 1836 c 128
 1224 1799 1224 1799 1241 1749.5 c 128
 1258 1700 1258 1700 1252 1640 c 257
 1246 1581 1246 1581 1213 1526 c 128
 1180 1471 1180 1471 1129.5 1430 c 128
 1079 1389 1079 1389 1016.5 1367 c 128
 954 1345 954 1345 889 1354 c 257
 752 1372 752 1372 686 1447 c 128
 620 1522 620 1522 625 1640 c 257
 627 1700 627 1700 660 1755 c 128
 693 1810 693 1810 745 1850.5 c 128
 797 1891 797 1891 861 1912 c 128
 925 1933 925 1933 990 1926 c 257
959 1736 m 257
 937 1738 937 1738 915 1731 c 128
 893 1724 893 1724 875.5 1710.5 c 128
 858 1697 858 1697 847 1678.5 c 128
 836 1660 836 1660 835 1639 c 257
 834 1598 834 1598 856 1573 c 128
 878 1548 878 1548 926 1541 c 257
 947 1538 947 1538 968 1545.5 c 128
 989 1553 989 1553 1006.5 1567 c 128
 1024 1581 1024 1581 1035 1600 c 128
 1046 1619 1046 1619 1048 1639 c 257
 1052 1681 1052 1681 1027.5 1706 c 128
 1003 1731 1003 1731 959 1736 c 257
EndSplineSet
EndChar
StartChar: onethirds
Encoding: 392 8531 392
GlifName: onethirds
Width: 1500
VWidth: 0
Flags: W
LayerCount: 2
Fore
SplineSet
474 0 m 257
 289 0 l 257
 1064 1500 l 257
 1240 1500 l 257
 474 0 l 257
369 1162 m 257
 438 1343 l 257
 300 1208 l 257
 252 1171 l 257
 190 1263 l 257
 469 1484 l 257
 581 1468 l 257
 467 822 l 257
 588 822 l 257
 571 722 l 257
 170 722 l 257
 187 822 l 257
 309 822 l 257
 369 1162 l 257
1048 507 m 257
 1073 523 1073 523 1111.5 546.5 c 128
 1150 570 1150 570 1191.5 599 c 128
 1233 628 1233 628 1270.5 660 c 128
 1308 692 1308 692 1331 725 c 257
 1194 688 l 257
 1029 688 l 257
 1057 788 l 257
 1471 788 l 257
 1456 701 l 257
 1435 671 1435 671 1400 632 c 128
 1365 593 1365 593 1323 564 c 257
 1237 522 l 257
 1282 524 1282 524 1320.5 510.5 c 128
 1359 497 1359 497 1386 471 c 128
 1413 445 1413 445 1426.5 407.5 c 128
 1440 370 1440 370 1436 324 c 257
 1429 247 1429 247 1381.5 193 c 128
 1334 139 1334 139 1261 104.5 c 128
 1188 70 1188 70 1096.5 54 c 128
 1005 38 1005 38 909 38 c 257
 927 138 l 257
 991 138 991 138 1052.5 151 c 128
 1114 164 1114 164 1162 187.5 c 128
 1210 211 1210 211 1240 244.5 c 128
 1270 278 1270 278 1271 319 c 257
 1272 348 1272 348 1261 368 c 128
 1250 388 1250 388 1231.5 400 c 128
 1213 412 1213 412 1188 417.5 c 128
 1163 423 1163 423 1136 423 c 257
 1128 423 1128 423 1114 422.5 c 128
 1100 422 1100 422 1084 421 c 128
 1068 420 1068 420 1054 419 c 128
 1040 418 1040 418 1033 418 c 257
 1048 507 l 257
EndSplineSet
EndChar
StartChar: twothirds
Encoding: 541 8532 541
GlifName: twothirds
Width: 1500
VWidth: 0
Flags: W
LayerCount: 2
Fore
SplineSet
474 0 m 257
 289 0 l 257
 1064 1500 l 257
 1240 1500 l 257
 474 0 l 257
80 722 m 257
 97 817 l 257
 127 854 127 854 167.5 897 c 128
 208 940 208 940 249 980.5 c 128
 290 1021 290 1021 326 1055.5 c 128
 362 1090 362 1090 384 1109 c 257
 426 1147 426 1147 449.5 1170.5 c 128
 473 1194 473 1194 485 1210.5 c 128
 497 1227 497 1227 501.5 1240 c 128
 506 1253 506 1253 511 1270 c 257
 515 1285 515 1285 512.5 1302.5 c 128
 510 1320 510 1320 500.5 1334.5 c 128
 491 1349 491 1349 475.5 1359.5 c 128
 460 1370 460 1370 440 1372 c 257
 399 1376 399 1376 361.5 1348.5 c 128
 324 1321 324 1321 295 1270 c 257
 186 1313 l 257
 226 1401 226 1401 298 1443 c 128
 370 1485 370 1485 467 1480 c 257
 524 1477 524 1477 563 1457 c 128
 602 1437 602 1437 625.5 1407 c 128
 649 1377 649 1377 657.5 1339.5 c 128
 666 1302 666 1302 662 1265 c 257
 657 1229 657 1229 638 1196.5 c 128
 619 1164 619 1164 593.5 1134.5 c 128
 568 1105 568 1105 540 1079.5 c 128
 512 1054 512 1054 490 1032 c 257
 460 1002 460 1002 427.5 971 c 128
 395 940 395 940 365.5 912 c 128
 336 884 336 884 312 860.5 c 128
 288 837 288 837 275 822 c 257
 596 822 l 257
 579 722 l 257
 80 722 l 257
1048 507 m 257
 1073 523 1073 523 1111.5 546.5 c 128
 1150 570 1150 570 1191.5 599 c 128
 1233 628 1233 628 1270.5 660 c 128
 1308 692 1308 692 1331 725 c 257
 1194 688 l 257
 1029 688 l 257
 1057 788 l 257
 1471 788 l 257
 1456 701 l 257
 1435 671 1435 671 1400 632 c 128
 1365 593 1365 593 1323 564 c 257
 1237 522 l 257
 1282 524 1282 524 1320.5 510.5 c 128
 1359 497 1359 497 1386 471 c 128
 1413 445 1413 445 1426.5 407.5 c 128
 1440 370 1440 370 1436 324 c 257
 1429 247 1429 247 1381.5 193 c 128
 1334 139 1334 139 1261 104.5 c 128
 1188 70 1188 70 1096.5 54 c 128
 1005 38 1005 38 909 38 c 257
 927 138 l 257
 991 138 991 138 1052.5 151 c 128
 1114 164 1114 164 1162 187.5 c 128
 1210 211 1210 211 1240 244.5 c 128
 1270 278 1270 278 1271 319 c 257
 1272 348 1272 348 1261 368 c 128
 1250 388 1250 388 1231.5 400 c 128
 1213 412 1213 412 1188 417.5 c 128
 1163 423 1163 423 1136 423 c 257
 1128 423 1128 423 1114 422.5 c 128
 1100 422 1100 422 1084 421 c 128
 1068 420 1068 420 1054 419 c 128
 1040 418 1040 418 1033 418 c 257
 1048 507 l 257
EndSplineSet
EndChar
StartChar: twofifths
Encoding: 537 8534 537
GlifName: twofifths
Width: 1500
VWidth: 0
Flags: W
LayerCount: 2
Fore
SplineSet
474 0 m 257
 289 0 l 257
 1064 1500 l 257
 1240 1500 l 257
 474 0 l 257
80 722 m 257
 97 817 l 257
 127 854 127 854 167.5 897 c 128
 208 940 208 940 249 980.5 c 128
 290 1021 290 1021 326 1055.5 c 128
 362 1090 362 1090 384 1109 c 257
 426 1147 426 1147 449.5 1170.5 c 128
 473 1194 473 1194 485 1210.5 c 128
 497 1227 497 1227 501.5 1240 c 128
 506 1253 506 1253 511 1270 c 257
 515 1285 515 1285 512.5 1302.5 c 128
 510 1320 510 1320 500.5 1334.5 c 128
 491 1349 491 1349 475.5 1359.5 c 128
 460 1370 460 1370 440 1372 c 257
 399 1376 399 1376 361.5 1348.5 c 128
 324 1321 324 1321 295 1270 c 257
 186 1313 l 257
 226 1401 226 1401 298 1443 c 128
 370 1485 370 1485 467 1480 c 257
 524 1477 524 1477 563 1457 c 128
 602 1437 602 1437 625.5 1407 c 128
 649 1377 649 1377 657.5 1339.5 c 128
 666 1302 666 1302 662 1265 c 257
 657 1229 657 1229 638 1196.5 c 128
 619 1164 619 1164 593.5 1134.5 c 128
 568 1105 568 1105 540 1079.5 c 128
 512 1054 512 1054 490 1032 c 257
 460 1002 460 1002 427.5 971 c 128
 395 940 395 940 365.5 912 c 128
 336 884 336 884 312 860.5 c 128
 288 837 288 837 275 822 c 257
 596 822 l 257
 579 722 l 257
 80 722 l 257
1165 561 m 257
 1190 567 1190 567 1224 567 c 257
 1273 567 1273 567 1313.5 551.5 c 128
 1354 536 1354 536 1381.5 507.5 c 128
 1409 479 1409 479 1421.5 439 c 128
 1434 399 1434 399 1428 351 c 257
 1419 274 1419 274 1369.5 216 c 128
 1320 158 1320 158 1246 118 c 128
 1172 78 1172 78 1081.5 58 c 128
 991 38 991 38 899 38 c 257
 918 151 l 257
 975 152 975 152 1036 165.5 c 128
 1097 179 1097 179 1147.5 203.5 c 128
 1198 228 1198 228 1231 262.5 c 128
 1264 297 1264 297 1267 341 c 257
 1270 384 1270 384 1251 413.5 c 128
 1232 443 1232 443 1190 449 c 257
 1171 452 1171 452 1156 450 c 128
 1141 448 1141 448 1128.5 443 c 128
 1116 438 1116 438 1103.5 431 c 128
 1091 424 1091 424 1078 417 c 257
 972 417 l 257
 1037 788 l 257
 1464 788 l 257
 1446 688 l 257
 1188 688 l 257
 1165 561 l 257
EndSplineSet
EndChar
StartChar: threefifths
Encoding: 522 8535 522
GlifName: threefifths
Width: 1500
VWidth: 0
Flags: W
LayerCount: 2
Fore
SplineSet
474 0 m 257
 289 0 l 257
 1064 1500 l 257
 1240 1500 l 257
 474 0 l 257
1165 561 m 257
 1190 567 1190 567 1224 567 c 257
 1273 567 1273 567 1313.5 551.5 c 128
 1354 536 1354 536 1381.5 507.5 c 128
 1409 479 1409 479 1421.5 439 c 128
 1434 399 1434 399 1428 351 c 257
 1419 274 1419 274 1369.5 216 c 128
 1320 158 1320 158 1246 118 c 128
 1172 78 1172 78 1081.5 58 c 128
 991 38 991 38 899 38 c 257
 918 151 l 257
 975 152 975 152 1036 165.5 c 128
 1097 179 1097 179 1147.5 203.5 c 128
 1198 228 1198 228 1231 262.5 c 128
 1264 297 1264 297 1267 341 c 257
 1270 384 1270 384 1251 413.5 c 128
 1232 443 1232 443 1190 449 c 257
 1171 452 1171 452 1156 450 c 128
 1141 448 1141 448 1128.5 443 c 128
 1116 438 1116 438 1103.5 431 c 128
 1091 424 1091 424 1078 417 c 257
 972 417 l 257
 1037 788 l 257
 1464 788 l 257
 1446 688 l 257
 1188 688 l 257
 1165 561 l 257
239 1191 m 257
 264 1207 264 1207 302.5 1230.5 c 128
 341 1254 341 1254 382.5 1283 c 128
 424 1312 424 1312 461.5 1344 c 128
 499 1376 499 1376 522 1409 c 257
 385 1372 l 257
 220 1372 l 257
 248 1472 l 257
 662 1472 l 257
 647 1385 l 257
 626 1355 626 1355 591 1316 c 128
 556 1277 556 1277 514 1248 c 257
 428 1206 l 257
 473 1208 473 1208 511.5 1194.5 c 128
 550 1181 550 1181 577 1155 c 128
 604 1129 604 1129 617.5 1091.5 c 128
 631 1054 631 1054 627 1008 c 257
 620 931 620 931 572.5 877 c 128
 525 823 525 823 452 788.5 c 128
 379 754 379 754 287.5 738 c 128
 196 722 196 722 100 722 c 257
 118 822 l 257
 182 822 182 822 243.5 835 c 128
 305 848 305 848 353 871.5 c 128
 401 895 401 895 431 928.5 c 128
 461 962 461 962 462 1003 c 257
 463 1032 463 1032 452 1052 c 128
 441 1072 441 1072 422.5 1084 c 128
 404 1096 404 1096 379 1101.5 c 128
 354 1107 354 1107 327 1107 c 257
 319 1107 319 1107 305 1106.5 c 128
 291 1106 291 1106 275 1105 c 128
 259 1104 259 1104 245 1103 c 128
 231 1102 231 1102 224 1102 c 257
 239 1191 l 257
EndSplineSet
EndChar
StartChar: fractionnumeratorone
Encoding: 286 8543 286
GlifName: fractionnumeratorone
Width: 1500
VWidth: 0
Flags: W
LayerCount: 2
Fore
SplineSet
474 0 m 257
 289 0 l 257
 1064 1500 l 257
 1240 1500 l 257
 474 0 l 257
367 1162 m 257
 436 1343 l 257
 298 1208 l 257
 250 1171 l 257
 188 1263 l 257
 467 1484 l 257
 579 1468 l 257
 465 822 l 257
 586 822 l 257
 569 722 l 257
 168 722 l 257
 185 822 l 257
 307 822 l 257
 367 1162 l 257
EndSplineSet
EndChar
StartChar: Fiveroman
Encoding: 29 8548 29
GlifName: F_iveroman
Width: 1300
VWidth: 0
Flags: W
LayerCount: 2
Fore
SplineSet
1545 1500 m 257
 906 204 l 257
 837 -25 l 257
 472 5 l 257
 258 1492 l 257
 576 1526 l 257
 683 700 l 257
 699 260 l 257
 846 700 l 257
 1235 1500 l 257
 1545 1500 l 257
EndSplineSet
EndChar
StartChar: Sixroman
Encoding: 76 8549 76
GlifName: S_ixroman
Width: 1900
VWidth: 0
Flags: W
LayerCount: 2
Fore
SplineSet
1545 1500 m 257
 906 204 l 257
 837 -25 l 257
 472 5 l 257
 258 1492 l 257
 576 1526 l 257
 683 700 l 257
 699 260 l 257
 846 700 l 257
 1235 1500 l 257
 1545 1500 l 257
1415 0 m 257
 1637 1263 l 257
 1645 1494 l 257
 2020 1525 l 257
 1752 0 l 257
 1415 0 l 257
EndSplineSet
EndChar
StartChar: Twelveroman
Encoding: 83 8555 83
GlifName: T_welveroman
Width: 2300
VWidth: 0
Flags: W
LayerCount: 2
Fore
SplineSet
766 375 m 257
 712 592 l 257
 620 400 l 257
 310 0 l 257
 -24 0 l 257
 595 797 l 257
 299 1492 l 257
 642 1524 l 257
 780 1198 l 257
 834 962 l 257
 910 1154 l 257
 1177 1500 l 257
 1513 1500 l 257
 949 775 l 257
 1278 0 l 257
 924 0 l 257
 766 375 l 257
1415 0 m 257
 1637 1263 l 257
 1645 1494 l 257
 2020 1525 l 257
 1752 0 l 257
 1415 0 l 257
1915 0 m 257
 2137 1263 l 257
 2145 1494 l 257
 2520 1525 l 257
 2252 0 l 257
 1915 0 l 257
EndSplineSet
EndChar
StartChar: fiveroman
Encoding: 273 8564 273
GlifName: fiveroman
Width: 1100
VWidth: 0
Flags: W
LayerCount: 2
Fore
SplineSet
585 700 m 257
 588 300 l 257
 731 700 l 257
 929 1093 l 257
 1243 1129 l 257
 664 -24 l 257
 372 5 l 257
 212 1093 l 257
 523 1125 l 257
 585 700 l 257
EndSplineSet
EndChar
StartChar: sevenroman
Encoding: 474 8566 474
GlifName: sevenroman
Width: 1900
VWidth: 0
Flags: W
LayerCount: 2
Fore
SplineSet
585 700 m 257
 588 300 l 257
 731 700 l 257
 929 1093 l 257
 1243 1129 l 257
 664 -24 l 257
 372 5 l 257
 212 1093 l 257
 523 1125 l 257
 585 700 l 257
1400 0 m 257
 1100 0 l 257
 1296 1114 l 257
 1602 1147 l 257
 1400 0 l 257
1800 0 m 257
 1500 0 l 257
 1696 1114 l 257
 2002 1147 l 257
 1800 0 l 257
EndSplineSet
EndChar
StartChar: eightroman
Encoding: 237 8567 237
GlifName: eightroman
Width: 2300
VWidth: 0
Flags: W
LayerCount: 2
Fore
SplineSet
585 700 m 257
 588 300 l 257
 731 700 l 257
 929 1093 l 257
 1243 1129 l 257
 664 -24 l 257
 372 5 l 257
 212 1093 l 257
 523 1125 l 257
 585 700 l 257
1400 0 m 257
 1100 0 l 257
 1296 1114 l 257
 1602 1147 l 257
 1400 0 l 257
1800 0 m 257
 1500 0 l 257
 1696 1114 l 257
 2002 1147 l 257
 1800 0 l 257
2200 0 m 257
 1900 0 l 257
 2096 1114 l 257
 2402 1147 l 257
 2200 0 l 257
EndSplineSet
EndChar
StartChar: arrowright
Encoding: 130 8594 130
GlifName: arrowright
Width: 1500
VWidth: 0
Flags: W
LayerCount: 2
Fore
SplineSet
100 500 m 257
 100 700 l 257
 953 700 l 257
 1057 690 l 257
 1000 765 l 257
 1000 1000 l 257
 1300 700 l 257
 1420 600 l 257
 1301 500 l 257
 1000 200 l 257
 1000 437 l 257
 1057 512 l 257
 953 500 l 257
 100 500 l 257
EndSplineSet
EndChar
StartChar: arrowdownleft
Encoding: 127 8601 127
GlifName: arrowdownleft
Width: 1200
VWidth: 0
Flags: W
LayerCount: 2
Fore
SplineSet
487 246 m 257
 406 181 l 257
 500 169 l 257
 666 0 l 257
 262 0 l 257
 80 -20 l 257
 100 162 l 257
 100 566 l 257
 268 401 l 257
 279 308 l 257
 346 387 l 257
 949 990 l 257
 1090 849 l 257
 487 246 l 257
EndSplineSet
EndChar
StartChar: rightwardsarrowwithhook
Encoding: 459 8618 459
GlifName: rightwardsarrowwithhook
Width: 1400
VWidth: 0
Flags: W
LayerCount: 2
Fore
SplineSet
400 400 m 257
 344 400 344 400 290 418.5 c 128
 236 437 236 437 194 474.5 c 128
 152 512 152 512 126 568.5 c 128
 100 625 100 625 100 700 c 257
 100 775 100 775 126 831 c 128
 152 887 152 887 194 924.5 c 128
 236 962 236 962 290 981 c 128
 344 1000 344 1000 400 1000 c 257
 400 800 l 257
 373 800 373 800 349.5 792 c 128
 326 784 326 784 308 770.5 c 128
 290 757 290 757 280 739 c 128
 270 721 270 721 270 700 c 257
 270 679 270 679 280 660.5 c 128
 290 642 290 642 308 628.5 c 128
 326 615 326 615 349.5 607.5 c 128
 373 600 373 600 400 600 c 257
 853 600 l 257
 957 590 l 257
 900 665 l 257
 900 900 l 257
 1200 600 l 257
 1320 500 l 257
 1201 400 l 257
 900 100 l 257
 900 337 l 257
 957 412 l 257
 853 400 l 257
 400 400 l 257
EndSplineSet
EndChar
StartChar: redo
Encoding: 451 8631 451
GlifName: redo
Width: 1600
VWidth: 0
Flags: W
LayerCount: 2
Fore
SplineSet
1194 381 m 257
 1113 446 l 257
 1046 500 1046 500 982 554.5 c 128
 918 609 918 609 854 652.5 c 128
 790 696 790 696 724 723.5 c 128
 658 751 658 751 587 751 c 257
 522 751 522 751 464.5 734.5 c 128
 407 718 407 718 364 685.5 c 128
 321 653 321 653 295.5 606.5 c 128
 270 560 270 560 270 500 c 257
 100 500 l 257
 101 618 101 618 137.5 703.5 c 128
 174 789 174 789 239 844 c 128
 304 899 304 899 395.5 925 c 128
 487 951 487 951 600 951 c 257
 697 951 697 951 782 924.5 c 128
 867 898 867 898 946 850 c 128
 1025 802 1025 802 1100.5 735 c 128
 1176 668 1176 668 1254 587 c 257
 1321 508 l 257
 1332 601 l 257
 1500 766 l 257
 1500 362 l 257
 1520 180 l 257
 1338 200 l 257
 934 200 l 257
 1100 369 l 257
 1194 381 l 257
EndSplineSet
EndChar
StartChar: arrowdbldown
Encoding: 116 8659 116
GlifName: arrowdbldown
Width: 1200
VWidth: 0
Flags: W
LayerCount: 2
Fore
SplineSet
599 0 m 257
 508 107 l 257
 142 473 l 257
 142 643 l 257
 387 398 l 257
 399 498 l 257
 399 1500 l 257
 515 1500 l 257
 515 648 l 257
 487 298 l 257
 599 167 l 257
 711 298 l 257
 683 648 l 257
 683 1500 l 257
 799 1500 l 257
 799 498 l 257
 812 398 l 257
 1056 643 l 257
 1056 473 l 257
 690 107 l 257
 599 0 l 257
EndSplineSet
EndChar
StartChar: arrowdblsouthwest
Encoding: 123 8665 123
GlifName: arrowdblsouthwest
Width: 1300
VWidth: 0
Flags: W
LayerCount: 2
Fore
SplineSet
88 -11 m 257
 99 129 l 257
 99 647 l 257
 220 767 l 257
 220 420 l 257
 299 483 l 257
 937 1120 l 257
 1019 1038 l 257
 487 507 l 257
 220 279 l 257
 206 107 l 257
 378 121 l 257
 606 388 l 257
 1137 920 l 257
 1219 838 l 257
 582 200 l 257
 520 121 l 257
 866 121 l 257
 746 0 l 257
 228 0 l 257
 88 -11 l 257
EndSplineSet
EndChar
StartChar: leftwardsdashedarrow
Encoding: 334 8672 334
GlifName: leftwardsdashedarrow
Width: 1600
VWidth: 0
Flags: W
LayerCount: 2
Fore
SplineSet
547 500 m 257
 443 512 l 257
 500 437 l 257
 500 200 l 257
 199 500 l 257
 80 600 l 257
 200 700 l 257
 500 1000 l 257
 500 765 l 257
 443 690 l 257
 547 700 l 257
 650 700 l 257
 650 500 l 257
 547 500 l 257
800 700 m 257
 1050 700 l 257
 1050 500 l 257
 800 500 l 257
 800 700 l 257
1200 700 m 257
 1450 700 l 257
 1450 500 l 257
 1200 500 l 257
 1200 700 l 257
EndSplineSet
EndChar
StartChar: ringoperator
Encoding: 462 8728 462
GlifName: ringoperator
Width: 600
VWidth: 0
Flags: W
LayerCount: 2
Fore
SplineSet
566 917 m 257
 625 911 625 911 673 889 c 128
 721 867 721 867 754.5 832 c 128
 788 797 788 797 804 750.5 c 128
 820 704 820 704 814 647 c 257
 808 592 808 592 777 540 c 128
 746 488 746 488 698 449 c 128
 650 410 650 410 591 389.5 c 128
 532 369 532 369 471 377 c 257
 342 394 342 394 279.5 465.5 c 128
 217 537 217 537 222 647 c 257
 224 704 224 704 255 755.5 c 128
 286 807 286 807 335 845.5 c 128
 384 884 384 884 444.5 904 c 128
 505 924 505 924 566 917 c 257
540 749 m 257
 516 752 516 752 492.5 744 c 128
 469 736 469 736 450 721.5 c 128
 431 707 431 707 419.5 687.5 c 128
 408 668 408 668 407 646 c 257
 405 603 405 603 428.5 576 c 128
 452 549 452 549 503 542 c 257
 526 539 526 539 548.5 547 c 128
 571 555 571 555 589.5 570 c 128
 608 585 608 585 620 605 c 128
 632 625 632 625 634 646 c 257
 639 690 639 690 612 717 c 128
 585 744 585 744 540 749 c 257
EndSplineSet
EndChar
StartChar: radical
Encoding: 448 8730 448
GlifName: radical
Width: 1600
VWidth: 0
Flags: W
LayerCount: 2
Fore
SplineSet
1500 1300 m 257
 1480 1150 l 257
 1210 1150 l 257
 1010 1170 l 257
 676 -20 l 257
 418 0 l 257
 265 550 l 257
 188 750 l 257
 373 770 l 257
 504 300 l 257
 550 60 l 257
 596 300 l 257
 878 1300 l 257
 1500 1300 l 257
EndSplineSet
EndChar
StartChar: therefore
Encoding: 516 8756 516
GlifName: therefore
Width: 1200
VWidth: 0
Flags: W
LayerCount: 2
Fore
SplineSet
95 171 m 257
 98 209 98 209 118 244.5 c 128
 138 280 138 280 168.5 306 c 128
 199 332 199 332 236.5 346 c 128
 274 360 274 360 311 356 c 257
 387 348 387 348 428 298 c 128
 469 248 469 248 464 171 c 257
 462 132 462 132 442 97 c 128
 422 62 422 62 391.5 35.5 c 128
 361 9 361 9 323 -5.5 c 128
 285 -20 285 -20 248 -17 c 257
 209 -14 209 -14 179 1.5 c 128
 149 17 149 17 129.5 42.5 c 128
 110 68 110 68 101 101 c 128
 92 134 92 134 95 171 c 257
895 171 m 257
 898 209 898 209 918 244.5 c 128
 938 280 938 280 968.5 306 c 128
 999 332 999 332 1036.5 346 c 128
 1074 360 1074 360 1111 356 c 257
 1187 348 1187 348 1228 298 c 128
 1269 248 1269 248 1264 171 c 257
 1262 132 1262 132 1242 97 c 128
 1222 62 1222 62 1191.5 35.5 c 128
 1161 9 1161 9 1123 -5.5 c 128
 1085 -20 1085 -20 1048 -17 c 257
 1009 -14 1009 -14 979 1.5 c 128
 949 17 949 17 929.5 42.5 c 128
 910 68 910 68 901 101 c 128
 892 134 892 134 895 171 c 257
495 1061 m 257
 498 1099 498 1099 518 1134.5 c 128
 538 1170 538 1170 568.5 1196 c 128
 599 1222 599 1222 636.5 1236 c 128
 674 1250 674 1250 711 1246 c 257
 787 1238 787 1238 828 1188 c 128
 869 1138 869 1138 864 1061 c 257
 862 1022 862 1022 842 987 c 128
 822 952 822 952 791.5 925.5 c 128
 761 899 761 899 723 884.5 c 128
 685 870 685 870 648 873 c 257
 609 876 609 876 579 891.5 c 128
 549 907 549 907 529.5 932.5 c 128
 510 958 510 958 501 991 c 128
 492 1024 492 1024 495 1061 c 257
EndSplineSet
EndChar
StartChar: similar
Encoding: 480 8764 480
GlifName: similar
Width: 1000
VWidth: 0
Flags: W
LayerCount: 2
Fore
SplineSet
734 400 m 257
 699 400 699 400 668 412.5 c 128
 637 425 637 425 608.5 444 c 128
 580 463 580 463 553.5 485 c 128
 527 507 527 507 501.5 526 c 128
 476 545 476 545 450.5 557.5 c 128
 425 570 425 570 399 570 c 257
 368 570 368 570 340.5 562.5 c 128
 313 555 313 555 286 541 c 128
 259 527 259 527 231.5 506.5 c 128
 204 486 204 486 174 460 c 257
 174 560 l 257
 194 588 194 588 217 613 c 128
 240 638 240 638 269 657.5 c 128
 298 677 298 677 333.5 688.5 c 128
 369 700 369 700 414 700 c 257
 466 700 466 700 510.5 673.5 c 128
 555 647 555 647 595 615 c 128
 635 583 635 583 672.5 556.5 c 128
 710 530 710 530 749 530 c 257
 810 530 810 530 862 558.5 c 128
 914 587 914 587 974 640 c 257
 974 540 l 257
 954 512 954 512 931 487 c 128
 908 462 908 462 879 442.5 c 128
 850 423 850 423 814.5 411.5 c 128
 779 400 779 400 734 400 c 257
EndSplineSet
EndChar
StartChar: congruent
Encoding: 207 8773 207
GlifName: congruent
Width: 1000
VWidth: 0
Flags: W
LayerCount: 2
Fore
SplineSet
120 600 m 257
 920 600 l 257
 920 460 l 257
 120 460 l 257
 120 600 l 257
120 300 m 257
 920 300 l 257
 920 160 l 257
 120 160 l 257
 120 300 l 257
681 700 m 257
 646 700 646 700 615 712.5 c 128
 584 725 584 725 555.5 744 c 128
 527 763 527 763 500.5 785 c 128
 474 807 474 807 448.5 826 c 128
 423 845 423 845 398 857.5 c 128
 373 870 373 870 346 870 c 257
 315 870 315 870 287.5 862.5 c 128
 260 855 260 855 233 841 c 128
 206 827 206 827 178.5 806.5 c 128
 151 786 151 786 121 760 c 257
 121 860 l 257
 141 888 141 888 164 913 c 128
 187 938 187 938 216 957.5 c 128
 245 977 245 977 280.5 988.5 c 128
 316 1000 316 1000 361 1000 c 257
 413 1000 413 1000 457.5 973.5 c 128
 502 947 502 947 542 915 c 128
 582 883 582 883 619.5 856.5 c 128
 657 830 657 830 696 830 c 257
 757 830 757 830 809 858.5 c 128
 861 887 861 887 921 940 c 257
 921 840 l 257
 901 812 901 812 878 787 c 128
 855 762 855 762 826 742.5 c 128
 797 723 797 723 761.5 711.5 c 128
 726 700 726 700 681 700 c 257
EndSplineSet
EndChar
StartChar: approxequal
Encoding: 113 8776 113
GlifName: approxequal
Width: 1000
VWidth: 0
Flags: W
LayerCount: 2
Fore
SplineSet
734 500 m 257
 699 500 699 500 668 512.5 c 128
 637 525 637 525 608.5 544 c 128
 580 563 580 563 553.5 585 c 128
 527 607 527 607 501.5 626 c 128
 476 645 476 645 450.5 657.5 c 128
 425 670 425 670 399 670 c 257
 368 670 368 670 340.5 662.5 c 128
 313 655 313 655 286 641 c 128
 259 627 259 627 231.5 606.5 c 128
 204 586 204 586 174 560 c 257
 174 660 l 257
 194 688 194 688 217 713 c 128
 240 738 240 738 269 757.5 c 128
 298 777 298 777 333.5 788.5 c 128
 369 800 369 800 414 800 c 257
 466 800 466 800 510.5 773.5 c 128
 555 747 555 747 595 715 c 128
 635 683 635 683 672.5 656.5 c 128
 710 630 710 630 749 630 c 257
 810 630 810 630 862 658.5 c 128
 914 687 914 687 974 740 c 257
 974 640 l 257
 954 612 954 612 931 587 c 128
 908 562 908 562 879 542.5 c 128
 850 523 850 523 814.5 511.5 c 128
 779 500 779 500 734 500 c 257
734 200 m 257
 699 200 699 200 668 212.5 c 128
 637 225 637 225 608.5 244 c 128
 580 263 580 263 553.5 285 c 128
 527 307 527 307 501.5 326 c 128
 476 345 476 345 450.5 357.5 c 128
 425 370 425 370 399 370 c 257
 368 370 368 370 340.5 362.5 c 128
 313 355 313 355 286 341 c 128
 259 327 259 327 231.5 306.5 c 128
 204 286 204 286 174 260 c 257
 174 360 l 257
 194 388 194 388 217 413 c 128
 240 438 240 438 269 457.5 c 128
 298 477 298 477 333.5 488.5 c 128
 369 500 369 500 414 500 c 257
 466 500 466 500 510.5 473.5 c 128
 555 447 555 447 595 415 c 128
 635 383 635 383 672.5 356.5 c 128
 710 330 710 330 749 330 c 257
 810 330 810 330 862 358.5 c 128
 914 387 914 387 974 440 c 257
 974 340 l 257
 954 312 954 312 931 287 c 128
 908 262 908 262 879 242.5 c 128
 850 223 850 223 814.5 211.5 c 128
 779 200 779 200 734 200 c 257
EndSplineSet
EndChar
StartChar: notequal
Encoding: 368 8800 368
GlifName: notequal
Width: 1000
VWidth: 0
Flags: W
LayerCount: 2
Fore
SplineSet
391 0 m 257
 236 0 l 257
 597 1000 l 257
 743 1000 l 257
 391 0 l 257
190 800 m 257
 990 800 l 257
 951 581 l 257
 151 581 l 257
 190 800 l 257
119 400 m 257
 919 400 l 257
 880 181 l 257
 80 181 l 257
 119 400 l 257
EndSplineSet
EndChar
StartChar: greaterequal
Encoding: 295 8805 295
GlifName: greaterequal
Width: 1300
VWidth: 0
Flags: W
LayerCount: 2
Fore
SplineSet
194 135 m 257
 1094 135 l 257
 1074 0 l 257
 194 0 l 257
 194 135 l 257
1267 766 m 257
 1228 586 l 257
 130 177 l 257
 178 392 l 257
 907 673 l 257
 302 957 l 257
 350 1172 l 257
 1267 766 l 257
EndSplineSet
EndChar
StartChar: propersubset
Encoding: 431 8834 431
GlifName: propersubset
Width: 1500
VWidth: 0
Flags: W
LayerCount: 2
Fore
SplineSet
1420 0 m 257
 843 0 l 257
 672 0 672 0 534.5 40.5 c 128
 397 81 397 81 300.5 162.5 c 128
 204 244 204 244 152 366 c 128
 100 488 100 488 100 650 c 257
 100 812 100 812 152 934 c 128
 204 1056 204 1056 300.5 1137.5 c 128
 397 1219 397 1219 534.5 1259.5 c 128
 672 1300 672 1300 843 1300 c 257
 1420 1300 l 257
 1400 1146 l 257
 847 1146 l 257
 716 1146 716 1146 611 1116.5 c 128
 506 1087 506 1087 432.5 1026 c 128
 359 965 359 965 320 871 c 257
 292 806 292 806 292 649.5 c 128
 292 493 292 493 320 428 c 257
 359 334 359 334 432.5 273 c 128
 506 212 506 212 611 182.5 c 128
 716 153 716 153 847 153 c 257
 1400 153 l 257
 1420 0 l 257
EndSplineSet
EndChar
StartChar: staroperator
Encoding: 504 8902 504
GlifName: staroperator
Width: 1100
VWidth: 0
Flags: W
LayerCount: 2
Fore
SplineSet
739 697 m 257
 848 360 l 257
 617 519 l 257
 549 585 l 257
 481 519 l 257
 248 360 l 257
 356 697 l 257
 98 900 l 257
 428 900 l 257
 549 1206 l 257
 668 900 l 257
 998 900 l 257
 739 697 l 257
EndSplineSet
EndChar
StartChar: topleftcorner
Encoding: 528 8988 528
GlifName: topleftcorner
Width: 1000
VWidth: 0
Flags: W
LayerCount: 2
Fore
SplineSet
300 750 m 257
 100 750 l 257
 100 1500 l 257
 850 1500 l 257
 850 1350 l 257
 300 1350 l 257
 300 750 l 257
EndSplineSet
EndChar
StartChar: blackrightpointingsmall
Encoding: 161 9656 161
GlifName: blackrightpointingsmall
Width: 900
VWidth: 0
Flags: W
LayerCount: 2
Fore
SplineSet
198 991 m 257
 699 700 l 257
 198 410 l 257
 215 700 l 257
 198 991 l 257
EndSplineSet
EndChar
StartChar: whiterightpointingsmall
Encoding: 573 9657 573
GlifName: whiterightpointingsmall
Width: 900
VWidth: 0
Flags: W
LayerCount: 2
Fore
SplineSet
198 410 m 257
 215 700 l 257
 198 991 l 257
 699 700 l 257
 198 410 l 257
286 847 m 257
 295 705 l 257
 295 695 l 257
 286 554 l 257
 539 700 l 257
 286 847 l 257
EndSplineSet
EndChar
StartChar: blackdownpointingtriangle
Encoding: 160 9660 160
GlifName: blackdownpointingtriangle
Width: 1300
VWidth: 0
Flags: W
LayerCount: 2
Fore
SplineSet
100 1100 m 257
 1200 1100 l 257
 650 200 l 257
 100 1100 l 257
EndSplineSet
EndChar
StartChar: blackdownpointingsmalltriangle
Encoding: 159 9662 159
GlifName: blackdownpointingsmalltriangle
Width: 900
VWidth: 0
Flags: W
LayerCount: 2
Fore
SplineSet
64 1100 m 257
 834 1100 l 257
 449 470 l 257
 64 1100 l 257
EndSplineSet
EndChar
StartChar: fisheye
Encoding: 269 9673 269
GlifName: fisheye
Width: 1000
VWidth: 0
Flags: W
LayerCount: 2
Fore
SplineSet
500 851 m 257
 531 851 531 851 558 839 c 128
 585 827 585 827 605.5 806.5 c 128
 626 786 626 786 638 759 c 128
 650 732 650 732 650 701 c 257
 650 670 650 670 638 642.5 c 128
 626 615 626 615 605.5 595 c 128
 585 575 585 575 558 563 c 128
 531 551 531 551 500 551 c 257
 469 551 469 551 441.5 563 c 128
 414 575 414 575 394 595 c 128
 374 615 374 615 362 642.5 c 128
 350 670 350 670 350 701 c 257
 350 732 350 732 362 759 c 128
 374 786 374 786 394 806.5 c 128
 414 827 414 827 441.5 839 c 128
 469 851 469 851 500 851 c 257
84 701 m 257
 84 787 84 787 116.5 863 c 128
 149 939 149 939 205.5 995.5 c 128
 262 1052 262 1052 338 1084.5 c 128
 414 1117 414 1117 500 1117 c 257
 586 1117 586 1117 662 1084.5 c 128
 738 1052 738 1052 794.5 995.5 c 128
 851 939 851 939 883.5 863 c 128
 916 787 916 787 916 701 c 257
 916 615 916 615 883.5 539 c 128
 851 463 851 463 794.5 406.5 c 128
 738 350 738 350 662 317.5 c 128
 586 285 586 285 500 285 c 257
 414 285 414 285 338 317.5 c 128
 262 350 262 350 205.5 406.5 c 128
 149 463 149 463 116.5 539 c 128
 84 615 84 615 84 701 c 257
200 701 m 257
 200 639 200 639 223.5 584 c 128
 247 529 247 529 287.5 488.5 c 128
 328 448 328 448 383 424.5 c 128
 438 401 438 401 500 401 c 257
 562 401 562 401 617 424.5 c 128
 672 448 672 448 712.5 488.5 c 128
 753 529 753 529 776.5 584 c 128
 800 639 800 639 800 701 c 257
 800 763 800 763 776.5 818 c 128
 753 873 753 873 712.5 913.5 c 128
 672 954 672 954 617 977.5 c 128
 562 1001 562 1001 500 1001 c 257
 438 1001 438 1001 383 977.5 c 128
 328 954 328 954 287.5 913.5 c 128
 247 873 247 873 223.5 818 c 128
 200 763 200 763 200 701 c 257
EndSplineSet
EndChar
StartChar: snowman
Encoding: 496 9731 496
GlifName: snowman
Width: 1666
VWidth: 0
Flags: W
LayerCount: 2
Fore
SplineSet
799 749 m 257
 799 728 799 728 814 713 c 128
 829 698 829 698 850 698 c 257
 871 698 871 698 886 713 c 128
 901 728 901 728 901 749 c 257
 901 770 901 770 886 785 c 128
 871 800 871 800 850 800 c 257
 829 800 829 800 814 785 c 128
 799 770 799 770 799 749 c 257
799 349 m 257
 799 328 799 328 814 313 c 128
 829 298 829 298 850 298 c 257
 871 298 871 298 886 313 c 128
 901 328 901 328 901 349 c 257
 901 370 901 370 886 385 c 128
 871 400 871 400 850 400 c 257
 829 400 829 400 814 385 c 128
 799 370 799 370 799 349 c 257
599 1250 m 257
 599 1229 599 1229 613.5 1214.5 c 128
 628 1200 628 1200 649 1200 c 257
 670 1200 670 1200 684.5 1214.5 c 128
 699 1229 699 1229 699 1250 c 257
 699 1271 699 1271 684.5 1285.5 c 128
 670 1300 670 1300 649 1300 c 257
 628 1300 628 1300 613.5 1285.5 c 128
 599 1271 599 1271 599 1250 c 257
899 1260 m 257
 899 1257 899 1257 906.5 1250.5 c 128
 914 1244 914 1244 925 1237.5 c 128
 936 1231 936 1231 949 1226 c 128
 962 1221 962 1221 973 1221 c 257
 984 1221 984 1221 991.5 1227 c 128
 999 1233 999 1233 999 1250 c 257
 999 1271 999 1271 984.5 1285.5 c 128
 970 1300 970 1300 949 1300 c 257
 928 1300 928 1300 913.5 1290.5 c 128
 899 1281 899 1281 899 1260 c 257
1231 783 m 257
 1251 752 1251 752 1267 698 c 128
 1283 644 1283 644 1294 583.5 c 128
 1305 523 1305 523 1310.5 465 c 128
 1316 407 1316 407 1316 368 c 257
 1316 261 1316 261 1275.5 187.5 c 128
 1235 114 1235 114 1164.5 68.5 c 128
 1094 23 1094 23 1000 3 c 128
 906 -17 906 -17 799 -17 c 257
 692 -17 692 -17 598 3 c 128
 504 23 504 23 433.5 68.5 c 128
 363 114 363 114 322.5 187.5 c 128
 282 261 282 261 282 368 c 257
 282 433 282 433 297.5 507 c 128
 313 581 313 581 341.5 654 c 128
 370 727 370 727 410 792.5 c 128
 450 858 450 858 499 906 c 257
 553 958 553 958 612 982 c 257
 586 1003 586 1003 565 1022.5 c 128
 544 1042 544 1042 529.5 1064.5 c 128
 515 1087 515 1087 507 1114 c 128
 499 1141 499 1141 499 1177 c 257
 499 1239 499 1239 522.5 1300 c 128
 546 1361 546 1361 586.5 1409 c 128
 627 1457 627 1457 682 1487 c 128
 737 1517 737 1517 799 1517 c 257
 861 1517 861 1517 916 1487 c 128
 971 1457 971 1457 1011.5 1409 c 128
 1052 1361 1052 1361 1075.5 1300 c 128
 1099 1239 1099 1239 1099 1177 c 257
 1099 1141 1099 1141 1091 1114 c 128
 1083 1087 1083 1087 1068.5 1064.5 c 128
 1054 1042 1054 1042 1033 1022.5 c 128
 1012 1003 1012 1003 986 982 c 257
 1006 974 1006 974 1031 961.5 c 128
 1056 949 1056 949 1083 931 c 128
 1110 913 1110 913 1137.5 890 c 128
 1165 867 1165 867 1189 839 c 257
 1172 962 l 257
 1314 1207 l 257
 1436 1137 l 257
 1231 783 l 257
799 549 m 257
 799 528 799 528 814 513 c 128
 829 498 829 498 850 498 c 257
 871 498 871 498 886 513 c 128
 901 528 901 528 901 549 c 257
 901 570 901 570 886 585 c 128
 871 600 871 600 850 600 c 257
 829 600 829 600 814 585 c 128
 799 570 799 570 799 549 c 257
776 1208 m 257
 769 1197 769 1197 769 1183 c 257
 769 1170 769 1170 775.5 1158.5 c 128
 782 1147 782 1147 794 1140 c 257
 801 1135 801 1135 824.5 1125 c 128
 848 1115 848 1115 876.5 1104.5 c 128
 905 1094 905 1094 932.5 1086 c 128
 960 1078 960 1078 977 1078 c 257
 989 1078 989 1078 992 1083 c 257
 993 1084 993 1084 993 1087 c 257
 993 1099 993 1099 973 1120.5 c 128
 953 1142 953 1142 927 1164 c 128
 901 1186 901 1186 877 1204 c 128
 853 1222 853 1222 844 1227 c 257
 833 1234 833 1234 819 1234 c 257
 806 1234 806 1234 794.5 1227.5 c 128
 783 1221 783 1221 776 1208 c 257
EndSplineSet
EndChar
StartChar: sun
Encoding: 509 9788 509
GlifName: sun
Width: 1800
VWidth: 0
Flags: W
LayerCount: 2
Fore
SplineSet
1428 456 m 257
 1423 428 1423 428 1416 401 c 128
 1409 374 1409 374 1399 347 c 257
 1527 245 l 257
 1509 206 l 257
 1349 244 l 257
 1303 172 1303 172 1238 114 c 257
 1328 -75 l 257
 1297 -96 l 257
 1146 47 l 257
 1122 33 1122 33 1096.5 20.5 c 128
 1071 8 1071 8 1044 -1 c 257
 1066 -247 l 257
 1035 -254 l 257
 940 -27 l 257
 918 -30 918 -30 896 -32 c 128
 874 -34 874 -34 851 -34 c 257
 845 -34 845 -34 839.5 -34 c 128
 834 -34 834 -34 828 -33 c 257
 769 -188 l 257
 726 -182 l 257
 712 -18 l 257
 629 5 629 5 555 47 c 257
 404 -96 l 257
 374 -75 l 257
 463 114 l 257
 442 133 442 133 422 153.5 c 128
 402 174 402 174 385 197 c 257
 159 100 l 257
 142 127 l 257
 329 287 l 257
 316 313 316 313 306 339 c 128
 296 365 296 365 288 393 c 257
 123 400 l 257
 116 442 l 257
 268 507 l 257
 268 518 268 518 267.5 528.5 c 128
 267 539 267 539 267 551 c 257
 267 618 267 618 280 676 c 257
 98 776 l 257
 109 811 l 257
 315 784 l 257
 338 837 338 837 371 884 c 257
 209 1069 l 257
 230 1094 l 257
 440 966 l 257
 460 986 460 986 482 1003.5 c 128
 504 1021 504 1021 527 1037 c 257
 483 1197 l 257
 521 1216 l 257
 629 1092 l 257
 705 1123 705 1123 794 1132 c 257
 832 1337 l 257
 870 1337 l 257
 908 1132 l 257
 937 1129 937 1129 965 1123.5 c 128
 993 1118 993 1118 1020 1110 c 257
 1145 1322 l 257
 1175 1310 l 257
 1119 1070 l 257
 1169 1044 1169 1044 1213 1009 c 257
 1352 1100 l 257
 1382 1070 l 257
 1296 929 l 257
 1324 896 1324 896 1347 860 c 128
 1370 824 1370 824 1387 784 c 257
 1593 811 l 257
 1604 776 l 257
 1422 676 l 257
 1427 649 1427 649 1430.5 621 c 128
 1434 593 1434 593 1435 564 c 257
 1674 509 l 257
 1674 477 l 257
 1428 456 l 257
1170 231 m 257
 1235 296 1235 296 1268.5 378 c 128
 1302 460 1302 460 1302 551 c 257
 1302 642 1302 642 1268.5 723.5 c 128
 1235 805 1235 805 1170 870 c 257
 1106 934 1106 934 1024 968 c 128
 942 1002 942 1002 851 1002 c 257
 760 1002 760 1002 678 968 c 128
 596 934 596 934 532 870 c 257
 467 805 467 805 433.5 723.5 c 128
 400 642 400 642 400 551 c 257
 400 460 400 460 433.5 378 c 128
 467 296 467 296 532 231 c 257
 596 167 596 167 678 133 c 128
 760 99 760 99 851 99 c 257
 942 99 942 99 1024 133 c 128
 1106 167 1106 167 1170 231 c 257
EndSplineSet
EndChar
StartChar: spade
Encoding: 498 9824 498
GlifName: spade
Width: 1400
VWidth: 0
Flags: W
LayerCount: 2
Fore
SplineSet
116 591 m 257
 116 667 116 667 153.5 735.5 c 128
 191 804 191 804 247 866 c 128
 303 928 303 928 369 985 c 128
 435 1042 435 1042 491 1095.5 c 128
 547 1149 547 1149 584.5 1199.5 c 128
 622 1250 622 1250 622 1300 c 257
 779 1300 l 257
 779 1250 779 1250 816.5 1199.5 c 128
 854 1149 854 1149 910 1095.5 c 128
 966 1042 966 1042 1031.5 985 c 128
 1097 928 1097 928 1153 866 c 128
 1209 804 1209 804 1246.5 735.5 c 128
 1284 667 1284 667 1284 591 c 257
 1284 518 1284 518 1260.5 459 c 128
 1237 400 1237 400 1195 358 c 128
 1153 316 1153 316 1094 293.5 c 128
 1035 271 1035 271 964 271 c 257
 763 441 l 257
 763 401 763 401 767 360.5 c 128
 771 320 771 320 784 282.5 c 128
 797 245 797 245 821.5 213 c 128
 846 181 846 181 885.5 157 c 128
 925 133 925 133 982.5 119.5 c 128
 1040 106 1040 106 1120 106 c 257
 1120 0 l 257
 280 0 l 257
 280 106 l 257
 400 106 400 106 470.5 135.5 c 128
 541 165 541 165 578 213 c 128
 615 261 615 261 625.5 321 c 128
 636 381 636 381 636 441 c 257
 436 271 l 257
 365 271 365 271 306 293.5 c 128
 247 316 247 316 205 358 c 128
 163 400 163 400 139.5 459 c 128
 116 518 116 518 116 591 c 257
EndSplineSet
EndChar
StartChar: heartsuitwhite
Encoding: 301 9825 301
GlifName: heartsuitwhite
Width: 1400
VWidth: 0
Flags: W
LayerCount: 2
Fore
SplineSet
130 700 m 257
 112 727 112 727 95.5 756.5 c 128
 79 786 79 786 66 817.5 c 128
 53 849 53 849 45 882.5 c 128
 37 916 37 916 37 951 c 257
 37 1034 37 1034 63.5 1101 c 128
 90 1168 90 1168 138 1215.5 c 128
 186 1263 186 1263 253 1284 c 128
 320 1305 320 1305 401 1305 c 257
 442 1305 442 1305 512.5 1282 c 128
 583 1259 583 1259 660 1180 c 257
 700 1022 l 257
 740 1180 l 257
 817 1258 817 1258 888 1281.5 c 128
 959 1305 959 1305 1000 1305 c 257
 1081 1305 1081 1305 1148 1284 c 128
 1215 1263 1215 1263 1263 1215.5 c 128
 1311 1168 1311 1168 1337.5 1101 c 128
 1364 1034 1364 1034 1364 951 c 257
 1364 881 1364 881 1336 817.5 c 128
 1308 754 1308 754 1270 700 c 257
 700 -100 l 257
 130 700 l 257
700 50 m 257
 740 220 l 257
 1141 791 l 257
 1192 867 1192 867 1194.5 939 c 128
 1197 1011 1197 1011 1181.5 1049.5 c 128
 1166 1088 1166 1088 1138.5 1114 c 128
 1111 1140 1111 1140 1078 1153 c 128
 1045 1166 1045 1166 1000 1166 c 257
 940 1166 940 1166 888.5 1132 c 128
 837 1098 837 1098 793.5 1006.5 c 128
 750 915 750 915 740 880 c 257
 660 880 l 257
 650 915 650 915 606.5 1007.5 c 128
 563 1100 563 1100 511.5 1134.5 c 128
 460 1169 460 1169 400 1169 c 257
 355 1169 355 1169 322 1155.5 c 128
 289 1142 289 1142 262 1115.5 c 128
 235 1089 235 1089 219.5 1050 c 128
 204 1011 204 1011 206.5 939 c 128
 209 867 209 867 260 791 c 257
 660 220 l 257
 700 50 l 257
EndSplineSet
EndChar
StartChar: flag2
Encoding: 278 9873 278
GlifName: flag2
Width: 1000
VWidth: 0
Flags: W
LayerCount: 2
Fore
SplineSet
900 1100 m 257
 900 541 l 257
 876 512 876 512 822.5 490.5 c 128
 769 469 769 469 700 469 c 257
 677 469 677 469 653.5 471.5 c 128
 630 474 630 474 605.5 481 c 128
 581 488 581 488 555 501 c 128
 529 514 529 514 500 535 c 257
 457 566 457 566 422 593 c 128
 387 620 387 620 356.5 639 c 128
 326 658 326 658 297.5 669 c 128
 269 680 269 680 239 680 c 257
 220 680 220 680 200 673 c 257
 200 0 l 257
 100 -20 l 257
 100 1040 l 257
 82 1275 l 257
 83 1275 83 1275 87 1277 c 257
 96 1280 96 1280 113 1286 c 128
 130 1292 130 1292 152.5 1297 c 128
 175 1302 175 1302 202.5 1306 c 128
 230 1310 230 1310 262 1310 c 257
 294 1310 294 1310 329.5 1304.5 c 128
 365 1299 365 1299 401.5 1285.5 c 128
 438 1272 438 1272 475 1249 c 128
 512 1226 512 1226 548 1191 c 257
 605 1135 605 1135 653 1112 c 128
 701 1089 701 1089 741 1089 c 257
 767 1089 767 1089 789.5 1098 c 128
 812 1107 812 1107 832 1121 c 257
 900 1100 l 257
EndSplineSet
EndChar
StartChar: plane
Encoding: 423 9992 423
GlifName: plane
Width: 1800
VWidth: 0
Flags: W
LayerCount: 2
Fore
SplineSet
696 -20 m 257
 788 431 l 257
 813 642 l 257
 600 642 l 257
 525 642 525 642 467.5 646.5 c 128
 410 651 410 651 371 657 c 257
 325 664 325 664 293 673 c 257
 140 457 l 257
 77 453 l 257
 109 705 l 257
 30 741 l 257
 30 759 l 257
 109 795 l 257
 77 1047 l 257
 140 1043 l 257
 293 827 l 257
 325 835 325 835 371 842 c 257
 410 848 410 848 467.5 853 c 128
 525 858 525 858 600 858 c 257
 813 858 l 257
 788 1069 l 257
 696 1520 l 257
 795 1500 l 257
 1140 853 l 257
 1540 838 l 257
 1562 837 1562 837 1590 831.5 c 128
 1618 826 1618 826 1642.5 815 c 128
 1667 804 1667 804 1683.5 788 c 128
 1700 772 1700 772 1700 750 c 257
 1700 728 1700 728 1683.5 712 c 128
 1667 696 1667 696 1642.5 685 c 128
 1618 674 1618 674 1590 668.5 c 128
 1562 663 1562 663 1540 662 c 257
 1140 647 l 257
 795 0 l 257
 696 -20 l 257
EndSplineSet
EndChar
StartChar: whitecircledone
Encoding: 565 10112 565
GlifName: whitecircledone
Width: 1700
VWidth: 0
Flags: W
LayerCount: 2
Fore
SplineSet
180 750 m 257
 180 856 180 856 207.5 954 c 128
 235 1052 235 1052 285 1137 c 128
 335 1222 335 1222 405 1292 c 128
 475 1362 475 1362 560 1412 c 128
 645 1462 645 1462 743 1489.5 c 128
 841 1517 841 1517 947 1517 c 257
 1053 1517 1053 1517 1151 1489.5 c 128
 1249 1462 1249 1462 1334 1412 c 128
 1419 1362 1419 1362 1489 1292 c 128
 1559 1222 1559 1222 1609 1137 c 128
 1659 1052 1659 1052 1686.5 954 c 128
 1714 856 1714 856 1714 750 c 257
 1714 644 1714 644 1686.5 546 c 128
 1659 448 1659 448 1609 363 c 128
 1559 278 1559 278 1489 208 c 128
 1419 138 1419 138 1334 88 c 128
 1249 38 1249 38 1151 10.5 c 128
 1053 -17 1053 -17 947 -17 c 257
 841 -17 841 -17 743 10.5 c 128
 645 38 645 38 560 88 c 128
 475 138 475 138 405 208 c 128
 335 278 335 278 285 363 c 128
 235 448 235 448 207.5 546 c 128
 180 644 180 644 180 750 c 257
298 750 m 257
 298 616 298 616 349 497.5 c 128
 400 379 400 379 488 291 c 128
 576 203 576 203 694.5 152 c 128
 813 101 813 101 947 101 c 257
 1037 101 1037 101 1119.5 124 c 128
 1202 147 1202 147 1274 189.5 c 128
 1346 232 1346 232 1405 291.5 c 128
 1464 351 1464 351 1506.5 423 c 128
 1549 495 1549 495 1572 577.5 c 128
 1595 660 1595 660 1595 750 c 257
 1595 884 1595 884 1544 1002 c 128
 1493 1120 1493 1120 1405 1208 c 128
 1317 1296 1317 1296 1199 1347 c 128
 1081 1398 1081 1398 947 1398 c 257
 858 1398 858 1398 775 1375 c 128
 692 1352 692 1352 620 1309.5 c 128
 548 1267 548 1267 488.5 1208 c 128
 429 1149 429 1149 386.5 1077 c 128
 344 1005 344 1005 321 922 c 128
 298 839 298 839 298 750 c 257
912 828 m 257
 995 1046 l 257
 830 883 l 257
 772 839 l 257
 698 950 l 257
 1033 1215 l 257
 1166 1195 l 257
 1030 420 l 257
 1175 420 l 257
 1154 300 l 257
 673 300 l 257
 694 420 l 257
 840 420 l 257
 912 828 l 257
EndSplineSet
EndChar
StartChar: whitecircledfive
Encoding: 562 10116 562
GlifName: whitecircledfive
Width: 1700
VWidth: 0
Flags: W
LayerCount: 2
Fore
SplineSet
180 750 m 257
 180 856 180 856 207.5 954 c 128
 235 1052 235 1052 285 1137 c 128
 335 1222 335 1222 405 1292 c 128
 475 1362 475 1362 560 1412 c 128
 645 1462 645 1462 743 1489.5 c 128
 841 1517 841 1517 947 1517 c 257
 1053 1517 1053 1517 1151 1489.5 c 128
 1249 1462 1249 1462 1334 1412 c 128
 1419 1362 1419 1362 1489 1292 c 128
 1559 1222 1559 1222 1609 1137 c 128
 1659 1052 1659 1052 1686.5 954 c 128
 1714 856 1714 856 1714 750 c 257
 1714 644 1714 644 1686.5 546 c 128
 1659 448 1659 448 1609 363 c 128
 1559 278 1559 278 1489 208 c 128
 1419 138 1419 138 1334 88 c 128
 1249 38 1249 38 1151 10.5 c 128
 1053 -17 1053 -17 947 -17 c 257
 841 -17 841 -17 743 10.5 c 128
 645 38 645 38 560 88 c 128
 475 138 475 138 405 208 c 128
 335 278 335 278 285 363 c 128
 235 448 235 448 207.5 546 c 128
 180 644 180 644 180 750 c 257
298 750 m 257
 298 616 298 616 349 497.5 c 128
 400 379 400 379 488 291 c 128
 576 203 576 203 694.5 152 c 128
 813 101 813 101 947 101 c 257
 1037 101 1037 101 1119.5 124 c 128
 1202 147 1202 147 1274 189.5 c 128
 1346 232 1346 232 1405 291.5 c 128
 1464 351 1464 351 1506.5 423 c 128
 1549 495 1549 495 1572 577.5 c 128
 1595 660 1595 660 1595 750 c 257
 1595 884 1595 884 1544 1002 c 128
 1493 1120 1493 1120 1405 1208 c 128
 1317 1296 1317 1296 1199 1347 c 128
 1081 1398 1081 1398 947 1398 c 257
 858 1398 858 1398 775 1375 c 128
 692 1352 692 1352 620 1309.5 c 128
 548 1267 548 1267 488.5 1208 c 128
 429 1149 429 1149 386.5 1077 c 128
 344 1005 344 1005 321 922 c 128
 298 839 298 839 298 750 c 257
953 928 m 257
 968 931 968 931 985.5 933 c 128
 1003 935 1003 935 1024 935 c 257
 1083 935 1083 935 1131 916.5 c 128
 1179 898 1179 898 1212 864 c 128
 1245 830 1245 830 1260 782 c 128
 1275 734 1275 734 1268 676 c 257
 1257 584 1257 584 1197.5 514 c 128
 1138 444 1138 444 1049.5 396.5 c 128
 961 349 961 349 852 324.5 c 128
 743 300 743 300 633 300 c 257
 657 436 l 257
 726 437 726 437 798.5 453 c 128
 871 469 871 469 931.5 498.5 c 128
 992 528 992 528 1032 569.5 c 128
 1072 611 1072 611 1075 664 c 257
 1079 716 1079 716 1056.5 751 c 128
 1034 786 1034 786 983 793 c 257
 960 796 960 796 942 794 c 128
 924 792 924 792 908.5 786.5 c 128
 893 781 893 781 878.5 772.5 c 128
 864 764 864 764 848 755 c 257
 721 755 l 257
 799 1200 l 257
 1311 1200 l 257
 1290 1080 l 257
 980 1080 l 257
 953 928 l 257
EndSplineSet
EndChar
StartChar: whitecircledsix
Encoding: 567 10117 567
GlifName: whitecircledsix
Width: 1700
VWidth: 0
Flags: W
LayerCount: 2
Fore
SplineSet
180 750 m 257
 180 856 180 856 207.5 954 c 128
 235 1052 235 1052 285 1137 c 128
 335 1222 335 1222 405 1292 c 128
 475 1362 475 1362 560 1412 c 128
 645 1462 645 1462 743 1489.5 c 128
 841 1517 841 1517 947 1517 c 257
 1053 1517 1053 1517 1151 1489.5 c 128
 1249 1462 1249 1462 1334 1412 c 128
 1419 1362 1419 1362 1489 1292 c 128
 1559 1222 1559 1222 1609 1137 c 128
 1659 1052 1659 1052 1686.5 954 c 128
 1714 856 1714 856 1714 750 c 257
 1714 644 1714 644 1686.5 546 c 128
 1659 448 1659 448 1609 363 c 128
 1559 278 1559 278 1489 208 c 128
 1419 138 1419 138 1334 88 c 128
 1249 38 1249 38 1151 10.5 c 128
 1053 -17 1053 -17 947 -17 c 257
 841 -17 841 -17 743 10.5 c 128
 645 38 645 38 560 88 c 128
 475 138 475 138 405 208 c 128
 335 278 335 278 285 363 c 128
 235 448 235 448 207.5 546 c 128
 180 644 180 644 180 750 c 257
298 750 m 257
 298 616 298 616 349 497.5 c 128
 400 379 400 379 488 291 c 128
 576 203 576 203 694.5 152 c 128
 813 101 813 101 947 101 c 257
 1037 101 1037 101 1119.5 124 c 128
 1202 147 1202 147 1274 189.5 c 128
 1346 232 1346 232 1405 291.5 c 128
 1464 351 1464 351 1506.5 423 c 128
 1549 495 1549 495 1572 577.5 c 128
 1595 660 1595 660 1595 750 c 257
 1595 884 1595 884 1544 1002 c 128
 1493 1120 1493 1120 1405 1208 c 128
 1317 1296 1317 1296 1199 1347 c 128
 1081 1398 1081 1398 947 1398 c 257
 858 1398 858 1398 775 1375 c 128
 692 1352 692 1352 620 1309.5 c 128
 548 1267 548 1267 488.5 1208 c 128
 429 1149 429 1149 386.5 1077 c 128
 344 1005 344 1005 321 922 c 128
 298 839 298 839 298 750 c 257
1243 1068 m 257
 1229 1076 1229 1076 1211 1077.5 c 128
 1193 1079 1193 1079 1179 1080 c 257
 1129 1084 1129 1084 1077.5 1063 c 128
 1026 1042 1026 1042 981 1001.5 c 128
 936 961 936 961 901 904 c 128
 866 847 866 847 849 780 c 257
 963 867 l 257
 980 870 980 870 995.5 871 c 128
 1011 872 1011 872 1025 874 c 257
 1077 877 1077 877 1124.5 863 c 128
 1172 849 1172 849 1206.5 817 c 128
 1241 785 1241 785 1259.5 734.5 c 128
 1278 684 1278 684 1273 615 c 257
 1268 548 1268 548 1235.5 487.5 c 128
 1203 427 1203 427 1151.5 381.5 c 128
 1100 336 1100 336 1033 311 c 128
 966 286 966 286 892 290 c 257
 827 293 827 293 782 314 c 128
 737 335 737 335 707.5 366.5 c 128
 678 398 678 398 661.5 437.5 c 128
 645 477 645 477 638 518.5 c 128
 631 560 631 560 631.5 601 c 128
 632 642 632 642 636 676 c 257
 644 747 644 747 669.5 816 c 128
 695 885 695 885 734.5 945.5 c 128
 774 1006 774 1006 826 1057 c 128
 878 1108 878 1108 939 1143.5 c 128
 1000 1179 1000 1179 1068 1196.5 c 128
 1136 1214 1136 1214 1207 1210 c 257
 1218 1209 1218 1209 1238 1208 c 128
 1258 1207 1258 1207 1287 1199 c 257
 1243 1068 l 257
996 754 m 257
 975 757 975 757 952 751 c 128
 929 745 929 745 907 732.5 c 128
 885 720 885 720 864.5 701.5 c 128
 844 683 844 683 828 661 c 257
 822 629 822 629 818.5 607.5 c 128
 815 586 815 586 820 560 c 257
 824 537 824 537 832 513.5 c 128
 840 490 840 490 851.5 470 c 128
 863 450 863 450 879 436.5 c 128
 895 423 895 423 917 420 c 257
 950 416 950 416 978.5 433 c 128
 1007 450 1007 450 1028 478 c 128
 1049 506 1049 506 1062 541.5 c 128
 1075 577 1075 577 1077 610 c 257
 1082 671 1082 671 1060 709 c 128
 1038 747 1038 747 996 754 c 257
EndSplineSet
EndChar
StartChar: whitecircledseven
Encoding: 566 10118 566
GlifName: whitecircledseven
Width: 1700
VWidth: 0
Flags: W
LayerCount: 2
Fore
SplineSet
180 750 m 257
 180 856 180 856 207.5 954 c 128
 235 1052 235 1052 285 1137 c 128
 335 1222 335 1222 405 1292 c 128
 475 1362 475 1362 560 1412 c 128
 645 1462 645 1462 743 1489.5 c 128
 841 1517 841 1517 947 1517 c 257
 1053 1517 1053 1517 1151 1489.5 c 128
 1249 1462 1249 1462 1334 1412 c 128
 1419 1362 1419 1362 1489 1292 c 128
 1559 1222 1559 1222 1609 1137 c 128
 1659 1052 1659 1052 1686.5 954 c 128
 1714 856 1714 856 1714 750 c 257
 1714 644 1714 644 1686.5 546 c 128
 1659 448 1659 448 1609 363 c 128
 1559 278 1559 278 1489 208 c 128
 1419 138 1419 138 1334 88 c 128
 1249 38 1249 38 1151 10.5 c 128
 1053 -17 1053 -17 947 -17 c 257
 841 -17 841 -17 743 10.5 c 128
 645 38 645 38 560 88 c 128
 475 138 475 138 405 208 c 128
 335 278 335 278 285 363 c 128
 235 448 235 448 207.5 546 c 128
 180 644 180 644 180 750 c 257
298 750 m 257
 298 616 298 616 349 497.5 c 128
 400 379 400 379 488 291 c 128
 576 203 576 203 694.5 152 c 128
 813 101 813 101 947 101 c 257
 1037 101 1037 101 1119.5 124 c 128
 1202 147 1202 147 1274 189.5 c 128
 1346 232 1346 232 1405 291.5 c 128
 1464 351 1464 351 1506.5 423 c 128
 1549 495 1549 495 1572 577.5 c 128
 1595 660 1595 660 1595 750 c 257
 1595 884 1595 884 1544 1002 c 128
 1493 1120 1493 1120 1405 1208 c 128
 1317 1296 1317 1296 1199 1347 c 128
 1081 1398 1081 1398 947 1398 c 257
 858 1398 858 1398 775 1375 c 128
 692 1352 692 1352 620 1309.5 c 128
 548 1267 548 1267 488.5 1208 c 128
 429 1149 429 1149 386.5 1077 c 128
 344 1005 344 1005 321 922 c 128
 298 839 298 839 298 750 c 257
737 1200 m 257
 1333 1200 l 257
 1316 1103 l 257
 1308 1058 1308 1058 1269 1005.5 c 128
 1230 953 1230 953 1171 886 c 257
 1132 841 1132 841 1094.5 795.5 c 128
 1057 750 1057 750 1025.5 703 c 128
 994 656 994 656 970.5 607.5 c 128
 947 559 947 559 936 508 c 257
 931 486 931 486 925 459.5 c 128
 919 433 919 433 913 405 c 128
 907 377 907 377 902 350 c 128
 897 323 897 323 893 300 c 257
 698 300 l 257
 701 319 701 319 707.5 351.5 c 128
 714 384 714 384 722 420 c 128
 730 456 730 456 739 491 c 128
 748 526 748 526 756 551 c 257
 797 670 797 670 864.5 768.5 c 128
 932 867 932 867 1012 952 c 257
 1042 984 1042 984 1062.5 1013.5 c 128
 1083 1043 1083 1043 1094 1063 c 257
 713 1063 l 257
 737 1200 l 257
EndSplineSet
EndChar
StartChar: whitecircledeight
Encoding: 561 10119 561
GlifName: whitecircledeight
Width: 1700
VWidth: 0
Flags: W
LayerCount: 2
Fore
SplineSet
180 750 m 257
 180 856 180 856 207.5 954 c 128
 235 1052 235 1052 285 1137 c 128
 335 1222 335 1222 405 1292 c 128
 475 1362 475 1362 560 1412 c 128
 645 1462 645 1462 743 1489.5 c 128
 841 1517 841 1517 947 1517 c 257
 1053 1517 1053 1517 1151 1489.5 c 128
 1249 1462 1249 1462 1334 1412 c 128
 1419 1362 1419 1362 1489 1292 c 128
 1559 1222 1559 1222 1609 1137 c 128
 1659 1052 1659 1052 1686.5 954 c 128
 1714 856 1714 856 1714 750 c 257
 1714 644 1714 644 1686.5 546 c 128
 1659 448 1659 448 1609 363 c 128
 1559 278 1559 278 1489 208 c 128
 1419 138 1419 138 1334 88 c 128
 1249 38 1249 38 1151 10.5 c 128
 1053 -17 1053 -17 947 -17 c 257
 841 -17 841 -17 743 10.5 c 128
 645 38 645 38 560 88 c 128
 475 138 475 138 405 208 c 128
 335 278 335 278 285 363 c 128
 235 448 235 448 207.5 546 c 128
 180 644 180 644 180 750 c 257
298 750 m 257
 298 616 298 616 349 497.5 c 128
 400 379 400 379 488 291 c 128
 576 203 576 203 694.5 152 c 128
 813 101 813 101 947 101 c 257
 1037 101 1037 101 1119.5 124 c 128
 1202 147 1202 147 1274 189.5 c 128
 1346 232 1346 232 1405 291.5 c 128
 1464 351 1464 351 1506.5 423 c 128
 1549 495 1549 495 1572 577.5 c 128
 1595 660 1595 660 1595 750 c 257
 1595 884 1595 884 1544 1002 c 128
 1493 1120 1493 1120 1405 1208 c 128
 1317 1296 1317 1296 1199 1347 c 128
 1081 1398 1081 1398 947 1398 c 257
 858 1398 858 1398 775 1375 c 128
 692 1352 692 1352 620 1309.5 c 128
 548 1267 548 1267 488.5 1208 c 128
 429 1149 429 1149 386.5 1077 c 128
 344 1005 344 1005 321 922 c 128
 298 839 298 839 298 750 c 257
1047 1210 m 257
 1168 1201 1168 1201 1231.5 1144.5 c 128
 1295 1088 1295 1088 1285 980 c 257
 1282 950 1282 950 1266.5 922.5 c 128
 1251 895 1251 895 1228 872.5 c 128
 1205 850 1205 850 1176.5 832.5 c 128
 1148 815 1148 815 1120 806 c 257
 1145 796 1145 796 1173 772 c 128
 1201 748 1201 748 1223 714.5 c 128
 1245 681 1245 681 1257.5 640 c 128
 1270 599 1270 599 1266 556 c 257
 1259 482 1259 482 1223 430 c 128
 1187 378 1187 378 1133.5 345.5 c 128
 1080 313 1080 313 1016 299.5 c 128
 952 286 952 286 888 290 c 257
 826 294 826 294 774.5 311.5 c 128
 723 329 723 329 687 362.5 c 128
 651 396 651 396 633 446 c 128
 615 496 615 496 620 565 c 257
 627 651 627 651 684.5 712 c 128
 742 773 742 773 836 809 c 257
 814 827 814 827 795 845.5 c 128
 776 864 776 864 762.5 884 c 128
 749 904 749 904 742 926.5 c 128
 735 949 735 949 737 974 c 257
 743 1037 743 1037 773.5 1083 c 128
 804 1129 804 1129 848.5 1158.5 c 128
 893 1188 893 1188 945.5 1201 c 128
 998 1214 998 1214 1047 1210 c 257
1079 553 m 257
 1080 586 1080 586 1070.5 612.5 c 128
 1061 639 1061 639 1043.5 660 c 128
 1026 681 1026 681 1003.5 697.5 c 128
 981 714 981 714 956 727 c 257
 926 716 926 716 899 699.5 c 128
 872 683 872 683 851 661.5 c 128
 830 640 830 640 817.5 613 c 128
 805 586 805 586 805 553 c 257
 804 493 804 493 834.5 459.5 c 128
 865 426 865 426 912 420 c 257
 940 416 940 416 969 424.5 c 128
 998 433 998 433 1022 451 c 128
 1046 469 1046 469 1061.5 495 c 128
 1077 521 1077 521 1079 553 c 257
924 994 m 257
 923 973 923 973 930.5 955 c 128
 938 937 938 937 950 922.5 c 128
 962 908 962 908 976.5 897 c 128
 991 886 991 886 1004 878 c 257
 1052 901 1052 901 1078 928 c 128
 1104 955 1104 955 1103 991 c 257
 1102 1035 1102 1035 1083 1054.5 c 128
 1064 1074 1064 1074 1035 1080 c 257
 1014 1084 1014 1084 994.5 1078 c 128
 975 1072 975 1072 959.5 1059 c 128
 944 1046 944 1046 934.5 1029 c 128
 925 1012 925 1012 924 994 c 257
EndSplineSet
EndChar
StartChar: whitecirclednine
Encoding: 564 10120 564
GlifName: whitecirclednine
Width: 1700
VWidth: 0
Flags: W
LayerCount: 2
Fore
SplineSet
180 750 m 257
 180 856 180 856 207.5 954 c 128
 235 1052 235 1052 285 1137 c 128
 335 1222 335 1222 405 1292 c 128
 475 1362 475 1362 560 1412 c 128
 645 1462 645 1462 743 1489.5 c 128
 841 1517 841 1517 947 1517 c 257
 1053 1517 1053 1517 1151 1489.5 c 128
 1249 1462 1249 1462 1334 1412 c 128
 1419 1362 1419 1362 1489 1292 c 128
 1559 1222 1559 1222 1609 1137 c 128
 1659 1052 1659 1052 1686.5 954 c 128
 1714 856 1714 856 1714 750 c 257
 1714 644 1714 644 1686.5 546 c 128
 1659 448 1659 448 1609 363 c 128
 1559 278 1559 278 1489 208 c 128
 1419 138 1419 138 1334 88 c 128
 1249 38 1249 38 1151 10.5 c 128
 1053 -17 1053 -17 947 -17 c 257
 841 -17 841 -17 743 10.5 c 128
 645 38 645 38 560 88 c 128
 475 138 475 138 405 208 c 128
 335 278 335 278 285 363 c 128
 235 448 235 448 207.5 546 c 128
 180 644 180 644 180 750 c 257
298 750 m 257
 298 616 298 616 349 497.5 c 128
 400 379 400 379 488 291 c 128
 576 203 576 203 694.5 152 c 128
 813 101 813 101 947 101 c 257
 1037 101 1037 101 1119.5 124 c 128
 1202 147 1202 147 1274 189.5 c 128
 1346 232 1346 232 1405 291.5 c 128
 1464 351 1464 351 1506.5 423 c 128
 1549 495 1549 495 1572 577.5 c 128
 1595 660 1595 660 1595 750 c 257
 1595 884 1595 884 1544 1002 c 128
 1493 1120 1493 1120 1405 1208 c 128
 1317 1296 1317 1296 1199 1347 c 128
 1081 1398 1081 1398 947 1398 c 257
 858 1398 858 1398 775 1375 c 128
 692 1352 692 1352 620 1309.5 c 128
 548 1267 548 1267 488.5 1208 c 128
 429 1149 429 1149 386.5 1077 c 128
 344 1005 344 1005 321 922 c 128
 298 839 298 839 298 750 c 257
720 419 m 257
 791 419 791 419 856 444 c 128
 921 469 921 469 972 510.5 c 128
 1023 552 1023 552 1057 606 c 128
 1091 660 1091 660 1100 720 c 257
 977 629 l 257
 967 628 967 628 957.5 627 c 128
 948 626 948 626 937 626 c 257
 878 628 878 628 829.5 648 c 128
 781 668 781 668 747 704.5 c 128
 713 741 713 741 696 793 c 128
 679 845 679 845 684 910 c 257
 688 977 688 977 719 1034.5 c 128
 750 1092 750 1092 799.5 1132.5 c 128
 849 1173 849 1173 914 1194 c 128
 979 1215 979 1215 1053 1210 c 257
 1116 1205 1116 1205 1160.5 1184.5 c 128
 1205 1164 1205 1164 1235 1132.5 c 128
 1265 1101 1265 1101 1281.5 1061.5 c 128
 1298 1022 1298 1022 1305.5 980.5 c 128
 1313 939 1313 939 1313 898.5 c 128
 1313 858 1313 858 1309 824 c 257
 1297 718 1297 718 1251 623.5 c 128
 1205 529 1205 529 1129.5 457 c 128
 1054 385 1054 385 951 340.5 c 128
 848 296 848 296 723 290 c 257
 720 419 l 257
966 757 m 257
 988 753 988 753 1011.5 761 c 128
 1035 769 1035 769 1057 784.5 c 128
 1079 800 1079 800 1097.5 821.5 c 128
 1116 843 1116 843 1128 867 c 257
 1136 906 1136 906 1132 943 c 128
 1128 980 1128 980 1115.5 1009.5 c 128
 1103 1039 1103 1039 1082 1058 c 128
 1061 1077 1061 1077 1035 1080 c 257
 1005 1083 1005 1083 976 1071 c 128
 947 1059 947 1059 924.5 1036.5 c 128
 902 1014 902 1014 888.5 983.5 c 128
 875 953 875 953 876 920 c 257
 876 888 876 888 880.5 860.5 c 128
 885 833 885 833 895 811 c 128
 905 789 905 789 922 775 c 128
 939 761 939 761 966 757 c 257
EndSplineSet
EndChar
StartChar: blackcircledone
Encoding: 153 10122 153
GlifName: blackcircledone
Width: 1700
VWidth: 0
Flags: W
LayerCount: 2
Fore
SplineSet
180 750 m 257
 180 856 180 856 207.5 954 c 128
 235 1052 235 1052 285 1137 c 128
 335 1222 335 1222 405 1292 c 128
 475 1362 475 1362 560 1412 c 128
 645 1462 645 1462 743 1489.5 c 128
 841 1517 841 1517 947 1517 c 257
 1053 1517 1053 1517 1151 1489.5 c 128
 1249 1462 1249 1462 1334 1412 c 128
 1419 1362 1419 1362 1489 1292 c 128
 1559 1222 1559 1222 1609 1137 c 128
 1659 1052 1659 1052 1686.5 954 c 128
 1714 856 1714 856 1714 750 c 257
 1714 644 1714 644 1686.5 546 c 128
 1659 448 1659 448 1609 363 c 128
 1559 278 1559 278 1489 208 c 128
 1419 138 1419 138 1334 88 c 128
 1249 38 1249 38 1151 10.5 c 128
 1053 -17 1053 -17 947 -17 c 257
 841 -17 841 -17 743 10.5 c 128
 645 38 645 38 560 88 c 128
 475 138 475 138 405 208 c 128
 335 278 335 278 285 363 c 128
 235 448 235 448 207.5 546 c 128
 180 644 180 644 180 750 c 257
840 420 m 257
 694 420 l 257
 673 300 l 257
 1154 300 l 257
 1175 420 l 257
 1030 420 l 257
 1166 1195 l 257
 1033 1215 l 257
 698 950 l 257
 772 839 l 257
 830 883 l 257
 995 1046 l 257
 912 828 l 257
 840 420 l 257
EndSplineSet
EndChar
StartChar: blackcircledtwo
Encoding: 157 10123 157
GlifName: blackcircledtwo
Width: 1700
VWidth: 0
Flags: W
LayerCount: 2
Fore
SplineSet
180 750 m 257
 180 856 180 856 207.5 954 c 128
 235 1052 235 1052 285 1137 c 128
 335 1222 335 1222 405 1292 c 128
 475 1362 475 1362 560 1412 c 128
 645 1462 645 1462 743 1489.5 c 128
 841 1517 841 1517 947 1517 c 257
 1053 1517 1053 1517 1151 1489.5 c 128
 1249 1462 1249 1462 1334 1412 c 128
 1419 1362 1419 1362 1489 1292 c 128
 1559 1222 1559 1222 1609 1137 c 128
 1659 1052 1659 1052 1686.5 954 c 128
 1714 856 1714 856 1714 750 c 257
 1714 644 1714 644 1686.5 546 c 128
 1659 448 1659 448 1609 363 c 128
 1559 278 1559 278 1489 208 c 128
 1419 138 1419 138 1334 88 c 128
 1249 38 1249 38 1151 10.5 c 128
 1053 -17 1053 -17 947 -17 c 257
 841 -17 841 -17 743 10.5 c 128
 645 38 645 38 560 88 c 128
 475 138 475 138 405 208 c 128
 335 278 335 278 285 363 c 128
 235 448 235 448 207.5 546 c 128
 180 644 180 644 180 750 c 257
1215 300 m 257
 1236 420 l 257
 850 420 l 257
 866 438 866 438 895 466.5 c 128
 924 495 924 495 959 529 c 128
 994 563 994 563 1033 600 c 128
 1072 637 1072 637 1108 673 c 257
 1135 699 1135 699 1168.5 729.5 c 128
 1202 760 1202 760 1232.5 795.5 c 128
 1263 831 1263 831 1286 870 c 128
 1309 909 1309 909 1314 952 c 257
 1320 996 1320 996 1309.5 1040.5 c 128
 1299 1085 1299 1085 1270.5 1121.5 c 128
 1242 1158 1242 1158 1195 1182.5 c 128
 1148 1207 1148 1207 1080 1210 c 257
 963 1216 963 1216 877.5 1165 c 128
 792 1114 792 1114 744 1010 c 257
 874 958 l 257
 909 1019 909 1019 954.5 1052 c 128
 1000 1085 1000 1085 1048 1080 c 257
 1072 1078 1072 1078 1090.5 1065.5 c 128
 1109 1053 1109 1053 1120.5 1035 c 128
 1132 1017 1132 1017 1135.5 996.5 c 128
 1139 976 1139 976 1133 958 c 257
 1127 937 1127 937 1121 921 c 128
 1115 905 1115 905 1101 885.5 c 128
 1087 866 1087 866 1059.5 838 c 128
 1032 810 1032 810 981 765 c 257
 955 742 955 742 911.5 701 c 128
 868 660 868 660 818.5 611 c 128
 769 562 769 562 720.5 510 c 128
 672 458 672 458 636 414 c 257
 616 300 l 257
 1215 300 l 257
EndSplineSet
EndChar
StartChar: blackcircledthree
Encoding: 156 10124 156
GlifName: blackcircledthree
Width: 1700
VWidth: 0
Flags: W
LayerCount: 2
Fore
SplineSet
180 750 m 257
 180 856 180 856 207.5 954 c 128
 235 1052 235 1052 285 1137 c 128
 335 1222 335 1222 405 1292 c 128
 475 1362 475 1362 560 1412 c 128
 645 1462 645 1462 743 1489.5 c 128
 841 1517 841 1517 947 1517 c 257
 1053 1517 1053 1517 1151 1489.5 c 128
 1249 1462 1249 1462 1334 1412 c 128
 1419 1362 1419 1362 1489 1292 c 128
 1559 1222 1559 1222 1609 1137 c 128
 1659 1052 1659 1052 1686.5 954 c 128
 1714 856 1714 856 1714 750 c 257
 1714 644 1714 644 1686.5 546 c 128
 1659 448 1659 448 1609 363 c 128
 1559 278 1559 278 1489 208 c 128
 1419 138 1419 138 1334 88 c 128
 1249 38 1249 38 1151 10.5 c 128
 1053 -17 1053 -17 947 -17 c 257
 841 -17 841 -17 743 10.5 c 128
 645 38 645 38 560 88 c 128
 475 138 475 138 405 208 c 128
 335 278 335 278 285 363 c 128
 235 448 235 448 207.5 546 c 128
 180 644 180 644 180 750 c 257
787 756 m 257
 796 756 796 756 813 757 c 128
 830 758 830 758 849 759 c 128
 868 760 868 760 885.5 761 c 128
 903 762 903 762 912 762 c 257
 945 762 945 762 974.5 755.5 c 128
 1004 749 1004 749 1026.5 734.5 c 128
 1049 720 1049 720 1062 696.5 c 128
 1075 673 1075 673 1074 638 c 257
 1072 588 1072 588 1036.5 548 c 128
 1001 508 1001 508 943 479.5 c 128
 885 451 885 451 811.5 435.5 c 128
 738 420 738 420 660 420 c 257
 639 300 l 257
 715 300 715 300 790.5 308.5 c 128
 866 317 866 317 934 334.5 c 128
 1002 352 1002 352 1061.5 379.5 c 128
 1121 407 1121 407 1166 445 c 128
 1211 483 1211 483 1238.5 532.5 c 128
 1266 582 1266 582 1272 644 c 257
 1277 700 1277 700 1260.5 745 c 128
 1244 790 1244 790 1211 821 c 128
 1178 852 1178 852 1132.5 867.5 c 128
 1087 883 1087 883 1033 881 c 257
 1135 931 l 257
 1160 949 1160 949 1183.5 970 c 128
 1207 991 1207 991 1227.5 1013 c 128
 1248 1035 1248 1035 1265.5 1056.5 c 128
 1283 1078 1283 1078 1295 1096 c 257
 1314 1200 l 257
 816 1200 l 257
 783 1080 l 257
 981 1080 l 257
 1145 1124 l 257
 1118 1085 1118 1085 1073 1046.5 c 128
 1028 1008 1028 1008 978.5 973.5 c 128
 929 939 929 939 882.5 910.5 c 128
 836 882 836 882 806 863 c 257
 787 756 l 257
EndSplineSet
EndChar
StartChar: blackcircledfour
Encoding: 151 10125 151
GlifName: blackcircledfour
Width: 1700
VWidth: 0
Flags: W
LayerCount: 2
Fore
SplineSet
180 750 m 257
 180 856 180 856 207.5 954 c 128
 235 1052 235 1052 285 1137 c 128
 335 1222 335 1222 405 1292 c 128
 475 1362 475 1362 560 1412 c 128
 645 1462 645 1462 743 1489.5 c 128
 841 1517 841 1517 947 1517 c 257
 1053 1517 1053 1517 1151 1489.5 c 128
 1249 1462 1249 1462 1334 1412 c 128
 1419 1362 1419 1362 1489 1292 c 128
 1559 1222 1559 1222 1609 1137 c 128
 1659 1052 1659 1052 1686.5 954 c 128
 1714 856 1714 856 1714 750 c 257
 1714 644 1714 644 1686.5 546 c 128
 1659 448 1659 448 1609 363 c 128
 1559 278 1559 278 1489 208 c 128
 1419 138 1419 138 1334 88 c 128
 1249 38 1249 38 1151 10.5 c 128
 1053 -17 1053 -17 947 -17 c 257
 841 -17 841 -17 743 10.5 c 128
 645 38 645 38 560 88 c 128
 475 138 475 138 405 208 c 128
 335 278 335 278 285 363 c 128
 235 448 235 448 207.5 546 c 128
 180 644 180 644 180 750 c 257
1270 600 m 257
 1151 600 l 257
 1180 763 l 257
 997 779 l 257
 966 600 l 257
 791 600 l 257
 923 758 l 257
 1197 1195 l 257
 1017 1215 l 257
 612 600 l 257
 590 480 l 257
 944 480 l 257
 913 300 l 257
 1098 300 l 257
 1129 480 l 257
 1236 480 l 257
 1270 600 l 257
EndSplineSet
EndChar
StartChar: blackcircledfive
Encoding: 150 10126 150
GlifName: blackcircledfive
Width: 1700
VWidth: 0
Flags: W
LayerCount: 2
Fore
SplineSet
180 750 m 257
 180 856 180 856 207.5 954 c 128
 235 1052 235 1052 285 1137 c 128
 335 1222 335 1222 405 1292 c 128
 475 1362 475 1362 560 1412 c 128
 645 1462 645 1462 743 1489.5 c 128
 841 1517 841 1517 947 1517 c 257
 1053 1517 1053 1517 1151 1489.5 c 128
 1249 1462 1249 1462 1334 1412 c 128
 1419 1362 1419 1362 1489 1292 c 128
 1559 1222 1559 1222 1609 1137 c 128
 1659 1052 1659 1052 1686.5 954 c 128
 1714 856 1714 856 1714 750 c 257
 1714 644 1714 644 1686.5 546 c 128
 1659 448 1659 448 1609 363 c 128
 1559 278 1559 278 1489 208 c 128
 1419 138 1419 138 1334 88 c 128
 1249 38 1249 38 1151 10.5 c 128
 1053 -17 1053 -17 947 -17 c 257
 841 -17 841 -17 743 10.5 c 128
 645 38 645 38 560 88 c 128
 475 138 475 138 405 208 c 128
 335 278 335 278 285 363 c 128
 235 448 235 448 207.5 546 c 128
 180 644 180 644 180 750 c 257
980 1080 m 257
 1290 1080 l 257
 1311 1200 l 257
 799 1200 l 257
 721 755 l 257
 848 755 l 257
 864 764 864 764 878.5 772.5 c 128
 893 781 893 781 908.5 786.5 c 128
 924 792 924 792 942 794 c 128
 960 796 960 796 983 793 c 257
 1034 786 1034 786 1056.5 751 c 128
 1079 716 1079 716 1075 664 c 257
 1072 611 1072 611 1032 569.5 c 128
 992 528 992 528 931.5 498.5 c 128
 871 469 871 469 798.5 453 c 128
 726 437 726 437 657 436 c 257
 633 300 l 257
 743 300 743 300 852 324.5 c 128
 961 349 961 349 1049.5 396.5 c 128
 1138 444 1138 444 1197.5 514 c 128
 1257 584 1257 584 1268 676 c 257
 1275 734 1275 734 1260 782 c 128
 1245 830 1245 830 1212 864 c 128
 1179 898 1179 898 1131 916.5 c 128
 1083 935 1083 935 1024 935 c 257
 1003 935 1003 935 985.5 933 c 128
 968 931 968 931 953 928 c 257
 980 1080 l 257
EndSplineSet
EndChar
StartChar: blackcircledsix
Encoding: 155 10127 155
GlifName: blackcircledsix
Width: 1700
VWidth: 0
Flags: W
LayerCount: 2
Fore
SplineSet
180 750 m 257
 180 856 180 856 207.5 954 c 128
 235 1052 235 1052 285 1137 c 128
 335 1222 335 1222 405 1292 c 128
 475 1362 475 1362 560 1412 c 128
 645 1462 645 1462 743 1489.5 c 128
 841 1517 841 1517 947 1517 c 257
 1053 1517 1053 1517 1151 1489.5 c 128
 1249 1462 1249 1462 1334 1412 c 128
 1419 1362 1419 1362 1489 1292 c 128
 1559 1222 1559 1222 1609 1137 c 128
 1659 1052 1659 1052 1686.5 954 c 128
 1714 856 1714 856 1714 750 c 257
 1714 644 1714 644 1686.5 546 c 128
 1659 448 1659 448 1609 363 c 128
 1559 278 1559 278 1489 208 c 128
 1419 138 1419 138 1334 88 c 128
 1249 38 1249 38 1151 10.5 c 128
 1053 -17 1053 -17 947 -17 c 257
 841 -17 841 -17 743 10.5 c 128
 645 38 645 38 560 88 c 128
 475 138 475 138 405 208 c 128
 335 278 335 278 285 363 c 128
 235 448 235 448 207.5 546 c 128
 180 644 180 644 180 750 c 257
1287 1199 m 257
 1258 1207 1258 1207 1238 1208 c 128
 1218 1209 1218 1209 1207 1210 c 257
 1136 1214 1136 1214 1068 1196.5 c 128
 1000 1179 1000 1179 939 1143.5 c 128
 878 1108 878 1108 826 1057 c 128
 774 1006 774 1006 734.5 945.5 c 128
 695 885 695 885 669.5 816 c 128
 644 747 644 747 636 676 c 257
 632 642 632 642 631.5 601 c 128
 631 560 631 560 638 518.5 c 128
 645 477 645 477 661.5 437.5 c 128
 678 398 678 398 707.5 366.5 c 128
 737 335 737 335 782 314 c 128
 827 293 827 293 892 290 c 257
 966 286 966 286 1033 311 c 128
 1100 336 1100 336 1151.5 381.5 c 128
 1203 427 1203 427 1235.5 487.5 c 128
 1268 548 1268 548 1273 615 c 257
 1278 684 1278 684 1259.5 734.5 c 128
 1241 785 1241 785 1206.5 817 c 128
 1172 849 1172 849 1124.5 863 c 128
 1077 877 1077 877 1025 874 c 257
 1011 872 1011 872 995.5 871 c 128
 980 870 980 870 963 867 c 257
 849 780 l 257
 866 847 866 847 901 904 c 128
 936 961 936 961 981 1001.5 c 128
 1026 1042 1026 1042 1077.5 1063 c 128
 1129 1084 1129 1084 1179 1080 c 257
 1193 1079 1193 1079 1211 1077.5 c 128
 1229 1076 1229 1076 1243 1068 c 257
 1287 1199 l 257
996 754 m 257
 1038 747 1038 747 1060 709 c 128
 1082 671 1082 671 1077 610 c 257
 1075 577 1075 577 1062 541.5 c 128
 1049 506 1049 506 1028 478 c 128
 1007 450 1007 450 978.5 433 c 128
 950 416 950 416 917 420 c 257
 895 423 895 423 879 436.5 c 128
 863 450 863 450 851.5 470 c 128
 840 490 840 490 832 513.5 c 128
 824 537 824 537 820 560 c 257
 815 586 815 586 818.5 607.5 c 128
 822 629 822 629 828 661 c 257
 844 683 844 683 864.5 701.5 c 128
 885 720 885 720 907 732.5 c 128
 929 745 929 745 952 751 c 128
 975 757 975 757 996 754 c 257
EndSplineSet
EndChar
